%TF.GenerationSoftware,KiCad,Pcbnew,(6.0.9)*%
%TF.CreationDate,2023-04-17T01:59:29-04:00*%
%TF.ProjectId,TrailCounter,54726169-6c43-46f7-956e-7465722e6b69,rev?*%
%TF.SameCoordinates,Original*%
%TF.FileFunction,Soldermask,Bot*%
%TF.FilePolarity,Negative*%
%FSLAX46Y46*%
G04 Gerber Fmt 4.6, Leading zero omitted, Abs format (unit mm)*
G04 Created by KiCad (PCBNEW (6.0.9)) date 2023-04-17 01:59:29*
%MOMM*%
%LPD*%
G01*
G04 APERTURE LIST*
%ADD10R,1.700000X1.700000*%
%ADD11O,1.700000X1.700000*%
%ADD12C,1.524000*%
%ADD13C,0.950000*%
%ADD14C,2.850000*%
%ADD15C,4.500000*%
%ADD16C,1.540000*%
%ADD17C,1.650000*%
%ADD18C,1.800000*%
%ADD19C,2.400000*%
G04 APERTURE END LIST*
D10*
%TO.C,J4*%
X171145200Y-113842800D03*
D11*
X173685200Y-113842800D03*
X176225200Y-113842800D03*
%TD*%
D10*
%TO.C,J5*%
X190231000Y-83362800D03*
D11*
X187691000Y-83362800D03*
X185151000Y-83362800D03*
%TD*%
D12*
%TO.C,U4*%
X152006000Y-34290000D03*
X152006000Y-36830000D03*
X152006000Y-39370000D03*
X152006000Y-41910000D03*
X152006000Y-44450000D03*
X152006000Y-46990000D03*
X152006000Y-49530000D03*
X152006000Y-52070000D03*
X152006000Y-54610000D03*
X152006000Y-57150000D03*
X152006000Y-59690000D03*
X152006000Y-62230000D03*
X152006000Y-64770000D03*
X152006000Y-67310000D03*
X152006000Y-69850000D03*
X152006000Y-72390000D03*
X152006000Y-74930000D03*
X152006000Y-77470000D03*
X152006000Y-80010000D03*
X152006000Y-82550000D03*
X172606000Y-34290000D03*
X172606000Y-36830000D03*
X172606000Y-39370000D03*
X172606000Y-41910000D03*
X172606000Y-44450000D03*
X172606000Y-46990000D03*
X172606000Y-49530000D03*
X172606000Y-52070000D03*
X172606000Y-54610000D03*
X172606000Y-57150000D03*
X172606000Y-59690000D03*
X172606000Y-62230000D03*
X172606000Y-64770000D03*
X172606000Y-67310000D03*
X172606000Y-69850000D03*
X172606000Y-72390000D03*
X172606000Y-74930000D03*
X172606000Y-77470000D03*
X172606000Y-80010000D03*
X172606000Y-82550000D03*
%TD*%
D13*
%TO.C,J2*%
X186800200Y-51797000D03*
X193400200Y-51797000D03*
%TD*%
D14*
%TO.C,U2*%
X61720000Y-103518000D03*
X61720000Y-32118000D03*
X42420000Y-32118000D03*
X42420000Y-103518000D03*
D15*
X52070000Y-94668000D03*
X52070000Y-40968000D03*
%TD*%
D16*
%TO.C,U5*%
X117010000Y-33782000D03*
X117010000Y-36322000D03*
X117010000Y-38862000D03*
X117010000Y-41402000D03*
X117010000Y-43942000D03*
X117010000Y-46482000D03*
X117010000Y-49022000D03*
X117010000Y-51562000D03*
X117010000Y-54102000D03*
X117010000Y-56642000D03*
X117010000Y-59182000D03*
X117010000Y-61722000D03*
X144610000Y-33782000D03*
X144610000Y-36322000D03*
X144610000Y-38862000D03*
X144610000Y-41402000D03*
X144610000Y-43942000D03*
X144610000Y-46482000D03*
X144610000Y-49022000D03*
X144610000Y-51562000D03*
X144610000Y-54102000D03*
X144610000Y-56642000D03*
X144610000Y-59182000D03*
X144610000Y-61722000D03*
%TD*%
D10*
%TO.C,J3*%
X73456800Y-124917200D03*
D11*
X73456800Y-122377200D03*
X73456800Y-119837200D03*
X73456800Y-117297200D03*
X73456800Y-114757200D03*
X73456800Y-112217200D03*
%TD*%
D17*
%TO.C,J1*%
X197456000Y-99710400D03*
X197456000Y-104810400D03*
D18*
X199656000Y-99710400D03*
X199656000Y-104810400D03*
D19*
X199906000Y-109260400D03*
X199906000Y-95260400D03*
%TD*%
D14*
%TO.C,U1*%
X103630000Y-103518000D03*
X103630000Y-32118000D03*
X84330000Y-32118000D03*
X84330000Y-103518000D03*
D15*
X93980000Y-94668000D03*
X93980000Y-40968000D03*
%TD*%
M02*
