M48
; DRILL file {KiCad (6.0.9)} date Mon Apr 17 01:59:31 2023
; FORMAT={-:-/ absolute / metric / decimal}
; #@! TF.CreationDate,2023-04-17T01:59:31-04:00
; #@! TF.GenerationSoftware,Kicad,Pcbnew,(6.0.9)
; #@! TF.FileFunction,Plated,1,2,PTH
FMAT,2
METRIC
; #@! TA.AperFunction,Plated,PTH,ViaDrill
T1C0.300
; #@! TA.AperFunction,Plated,PTH,ViaDrill
T2C0.600
; #@! TA.AperFunction,Plated,PTH,ComponentDrill
T3C1.000
; #@! TA.AperFunction,Plated,PTH,ComponentDrill
T4C1.100
; #@! TA.AperFunction,Plated,PTH,ComponentDrill
T5C1.200
; #@! TA.AperFunction,Plated,PTH,ComponentDrill
T6C1.600
; #@! TA.AperFunction,Plated,PTH,ComponentDrill
T7C1.900
; #@! TA.AperFunction,Plated,PTH,ComponentDrill
T8C3.000
; #@! TA.AperFunction,Plated,PTH,ViaDrill
T9C3.500
%
G90
G05
T1
X121.151Y-102.464
X121.514Y-106.934
X122.072Y-102.311
X122.174Y-101.651
X122.276Y-103.886
X122.326Y-101.041
X124.562Y-99.314
X124.562Y-112.776
X126.031Y-105.156
X126.187Y-107.086
X126.187Y-107.848
X126.477Y-110.368
X126.594Y-99.314
X126.949Y-107.086
X126.949Y-107.848
X127.102Y-114.3
X127.711Y-107.086
X127.711Y-107.848
X128.473Y-107.086
X128.473Y-107.848
X129.134Y-114.3
X130.404Y-107.696
X130.454Y-108.61
X130.469Y-112.965
X131.888Y-111.111
X132.182Y-111.76
X132.182Y-114.554
X132.385Y-115.367
X133.198Y-115.418
X133.858Y-131.978
X134.823Y-114.148
X135.128Y-93.828
X135.128Y-133.045
X135.23Y-106.68
X135.28Y-114.503
X135.636Y-107.661
X136.754Y-101.6
X137.008Y-112.776
X137.058Y-91.999
X137.16Y-133.096
X137.566Y-111.608
X138.836Y-114.706
X139.192Y-133.045
X139.243Y-114.097
X140.462Y-132.029
X140.818Y-114.656
X141.63Y-114.554
X141.834Y-113.792
X141.986Y-83.414
X141.986Y-85.395
X142.037Y-75.794
X142.037Y-77.572
X142.24Y-87.579
X142.291Y-91.44
X142.596Y-110.744
X142.636Y-75.418
X142.963Y-74.473
X143.459Y-89.306
X143.561Y-90.322
X143.612Y-93.472
X144.018Y-115.519
X144.628Y-115.519
X144.678Y-78.283
X144.983Y-110.338
X145.339Y-115.519
X145.542Y-113.182
X145.644Y-79.045
X145.644Y-85.395
X147.472Y-108.763
X147.777Y-83.007
X147.828Y-85.293
X148.184Y-108.814
X148.438Y-109.677
X148.641Y-103.48
X151.46Y-89.738
X151.943Y-90.424
X152.603Y-103.48
X152.705Y-114.351
X152.79Y-109.305
X153.568Y-114.148
X153.772Y-109.626
X153.772Y-113.03
X153.822Y-110.642
X154.229Y-92.862
X154.33Y-84.988
X154.381Y-83.363
X154.94Y-93.523
X157.175Y-50.14
X157.175Y-61.163
X158.801Y-113.589
X160.63Y-111.709
X162.408Y-93.421
X162.814Y-94.691
X162.814Y-104.496
X162.814Y-115.214
X162.818Y-91.228
X162.819Y-108.978
X163.017Y-89.911
X163.271Y-90.678
X163.326Y-91.741
X163.982Y-96.774
X163.982Y-104.496
X163.982Y-108.864
X164.033Y-115.113
X164.541Y-98.4
X164.694Y-41.554
X166.167Y-99.974
X166.37Y-84.684
X166.601Y-83.414
X168.707Y-95.555
X169.266Y-98.603
X169.266Y-102.565
X169.266Y-104.699
X169.316Y-83.414
X169.723Y-84.48
X170.231Y-106.985
X170.993Y-94.945
X171.247Y-90.729
X171.348Y-84.582
X172.076Y-95.961
X172.11Y-84.176
X172.314Y-100.432
X172.568Y-92.05
X173.482Y-89.408
X174.142Y-87.427
X174.65Y-83.21
X176.117Y-94.788
X177.343Y-93.167
X177.851Y-87.986
X178.156Y-94.183
X178.41Y-89.459
X179.73Y-94.183
X179.781Y-84.836
X179.781Y-92.862
X183.337Y-51.41
X183.439Y-42.367
X186.792Y-39.218
X196.901Y-42.367
X197.155Y-51.359
T2
X133.35Y-36.119
T3
X73.457Y-112.217
X73.457Y-114.757
X73.457Y-117.297
X73.457Y-119.837
X73.457Y-122.377
X73.457Y-124.917
X117.01Y-33.782
X117.01Y-36.322
X117.01Y-38.862
X117.01Y-41.402
X117.01Y-43.942
X117.01Y-46.482
X117.01Y-49.022
X117.01Y-51.562
X117.01Y-54.102
X117.01Y-56.642
X117.01Y-59.182
X117.01Y-61.722
X144.61Y-33.782
X144.61Y-36.322
X144.61Y-38.862
X144.61Y-41.402
X144.61Y-43.942
X144.61Y-46.482
X144.61Y-49.022
X144.61Y-51.562
X144.61Y-54.102
X144.61Y-56.642
X144.61Y-59.182
X144.61Y-61.722
X152.006Y-34.29
X152.006Y-36.83
X152.006Y-39.37
X152.006Y-41.91
X152.006Y-44.45
X152.006Y-46.99
X152.006Y-49.53
X152.006Y-52.07
X152.006Y-54.61
X152.006Y-57.15
X152.006Y-59.69
X152.006Y-62.23
X152.006Y-64.77
X152.006Y-67.31
X152.006Y-69.85
X152.006Y-72.39
X152.006Y-74.93
X152.006Y-77.47
X152.006Y-80.01
X152.006Y-82.55
X171.145Y-113.843
X172.606Y-34.29
X172.606Y-36.83
X172.606Y-39.37
X172.606Y-41.91
X172.606Y-44.45
X172.606Y-46.99
X172.606Y-49.53
X172.606Y-52.07
X172.606Y-54.61
X172.606Y-57.15
X172.606Y-59.69
X172.606Y-62.23
X172.606Y-64.77
X172.606Y-67.31
X172.606Y-69.85
X172.606Y-72.39
X172.606Y-74.93
X172.606Y-77.47
X172.606Y-80.01
X172.606Y-82.55
X173.685Y-113.843
X176.225Y-113.843
X185.151Y-83.363
X187.691Y-83.363
X190.231Y-83.363
T4
X197.456Y-99.71
X197.456Y-104.81
T5
X199.656Y-99.71
X199.656Y-104.81
T6
X199.906Y-95.26
X199.906Y-109.26
T7
X42.42Y-32.118
X42.42Y-103.518
X61.72Y-32.118
X61.72Y-103.518
X84.33Y-32.118
X84.33Y-103.518
X103.63Y-32.118
X103.63Y-103.518
T8
X52.07Y-40.968
X52.07Y-94.668
X93.98Y-40.968
X93.98Y-94.668
T9
X38.1Y-26.213
X38.1Y-128.016
X192.075Y-26.213
X192.075Y-127.965
T0
M30
