%TF.GenerationSoftware,KiCad,Pcbnew,(6.0.9)*%
%TF.CreationDate,2023-04-17T01:59:31-04:00*%
%TF.ProjectId,TrailCounter,54726169-6c43-46f7-956e-7465722e6b69,rev?*%
%TF.SameCoordinates,Original*%
%TF.FileFunction,Drillmap*%
%TF.FilePolarity,Positive*%
%FSLAX45Y45*%
G04 Gerber Fmt 4.5, Leading zero omitted, Abs format (unit mm)*
G04 Created by KiCad (PCBNEW (6.0.9)) date 2023-04-17 01:59:31*
%MOMM*%
%LPD*%
G01*
G04 APERTURE LIST*
%ADD10C,0.100000*%
%ADD11C,0.200000*%
%ADD12C,0.095000*%
G04 APERTURE END LIST*
D10*
X2810000Y-2250000D02*
X20200000Y-2250000D01*
X20200000Y-2250000D02*
X20200000Y-13700000D01*
X20200000Y-13700000D02*
X2810000Y-13700000D01*
X2810000Y-13700000D02*
X2810000Y-2250000D01*
D11*
D12*
X18632520Y-5132200D02*
X18727520Y-5227200D01*
X18727520Y-5132200D02*
X18632520Y-5227200D01*
X19292520Y-5132200D02*
X19387520Y-5227200D01*
X19387520Y-5132200D02*
X19292520Y-5227200D01*
D11*
X3062619Y-14015476D02*
X3062619Y-13815476D01*
X3110238Y-13815476D01*
X3138809Y-13825000D01*
X3157857Y-13844048D01*
X3167381Y-13863095D01*
X3176905Y-13901190D01*
X3176905Y-13929762D01*
X3167381Y-13967857D01*
X3157857Y-13986905D01*
X3138809Y-14005952D01*
X3110238Y-14015476D01*
X3062619Y-14015476D01*
X3262619Y-14015476D02*
X3262619Y-13882143D01*
X3262619Y-13920238D02*
X3272143Y-13901190D01*
X3281667Y-13891667D01*
X3300714Y-13882143D01*
X3319762Y-13882143D01*
X3386428Y-14015476D02*
X3386428Y-13882143D01*
X3386428Y-13815476D02*
X3376905Y-13825000D01*
X3386428Y-13834524D01*
X3395952Y-13825000D01*
X3386428Y-13815476D01*
X3386428Y-13834524D01*
X3510238Y-14015476D02*
X3491190Y-14005952D01*
X3481667Y-13986905D01*
X3481667Y-13815476D01*
X3615000Y-14015476D02*
X3595952Y-14005952D01*
X3586428Y-13986905D01*
X3586428Y-13815476D01*
X3843571Y-14015476D02*
X3843571Y-13815476D01*
X3910238Y-13958333D01*
X3976905Y-13815476D01*
X3976905Y-14015476D01*
X4157857Y-14015476D02*
X4157857Y-13910714D01*
X4148333Y-13891667D01*
X4129286Y-13882143D01*
X4091190Y-13882143D01*
X4072143Y-13891667D01*
X4157857Y-14005952D02*
X4138809Y-14015476D01*
X4091190Y-14015476D01*
X4072143Y-14005952D01*
X4062619Y-13986905D01*
X4062619Y-13967857D01*
X4072143Y-13948809D01*
X4091190Y-13939286D01*
X4138809Y-13939286D01*
X4157857Y-13929762D01*
X4253095Y-13882143D02*
X4253095Y-14082143D01*
X4253095Y-13891667D02*
X4272143Y-13882143D01*
X4310238Y-13882143D01*
X4329286Y-13891667D01*
X4338810Y-13901190D01*
X4348333Y-13920238D01*
X4348333Y-13977381D01*
X4338810Y-13996428D01*
X4329286Y-14005952D01*
X4310238Y-14015476D01*
X4272143Y-14015476D01*
X4253095Y-14005952D01*
X4434048Y-13996428D02*
X4443571Y-14005952D01*
X4434048Y-14015476D01*
X4424524Y-14005952D01*
X4434048Y-13996428D01*
X4434048Y-14015476D01*
X4434048Y-13891667D02*
X4443571Y-13901190D01*
X4434048Y-13910714D01*
X4424524Y-13901190D01*
X4434048Y-13891667D01*
X4434048Y-13910714D01*
D12*
X2710000Y-14297500D02*
X2805000Y-14392500D01*
X2805000Y-14297500D02*
X2710000Y-14392500D01*
D11*
X3100714Y-14235476D02*
X3119762Y-14235476D01*
X3138809Y-14245000D01*
X3148333Y-14254524D01*
X3157857Y-14273571D01*
X3167381Y-14311667D01*
X3167381Y-14359286D01*
X3157857Y-14397381D01*
X3148333Y-14416428D01*
X3138809Y-14425952D01*
X3119762Y-14435476D01*
X3100714Y-14435476D01*
X3081667Y-14425952D01*
X3072143Y-14416428D01*
X3062619Y-14397381D01*
X3053095Y-14359286D01*
X3053095Y-14311667D01*
X3062619Y-14273571D01*
X3072143Y-14254524D01*
X3081667Y-14245000D01*
X3100714Y-14235476D01*
X3253095Y-14416428D02*
X3262619Y-14425952D01*
X3253095Y-14435476D01*
X3243571Y-14425952D01*
X3253095Y-14416428D01*
X3253095Y-14435476D01*
X3357857Y-14435476D02*
X3395952Y-14435476D01*
X3415000Y-14425952D01*
X3424524Y-14416428D01*
X3443571Y-14387857D01*
X3453095Y-14349762D01*
X3453095Y-14273571D01*
X3443571Y-14254524D01*
X3434048Y-14245000D01*
X3415000Y-14235476D01*
X3376905Y-14235476D01*
X3357857Y-14245000D01*
X3348333Y-14254524D01*
X3338809Y-14273571D01*
X3338809Y-14321190D01*
X3348333Y-14340238D01*
X3357857Y-14349762D01*
X3376905Y-14359286D01*
X3415000Y-14359286D01*
X3434048Y-14349762D01*
X3443571Y-14340238D01*
X3453095Y-14321190D01*
X3634048Y-14235476D02*
X3538809Y-14235476D01*
X3529286Y-14330714D01*
X3538809Y-14321190D01*
X3557857Y-14311667D01*
X3605476Y-14311667D01*
X3624524Y-14321190D01*
X3634048Y-14330714D01*
X3643571Y-14349762D01*
X3643571Y-14397381D01*
X3634048Y-14416428D01*
X3624524Y-14425952D01*
X3605476Y-14435476D01*
X3557857Y-14435476D01*
X3538809Y-14425952D01*
X3529286Y-14416428D01*
X3767381Y-14235476D02*
X3786428Y-14235476D01*
X3805476Y-14245000D01*
X3815000Y-14254524D01*
X3824524Y-14273571D01*
X3834048Y-14311667D01*
X3834048Y-14359286D01*
X3824524Y-14397381D01*
X3815000Y-14416428D01*
X3805476Y-14425952D01*
X3786428Y-14435476D01*
X3767381Y-14435476D01*
X3748333Y-14425952D01*
X3738809Y-14416428D01*
X3729286Y-14397381D01*
X3719762Y-14359286D01*
X3719762Y-14311667D01*
X3729286Y-14273571D01*
X3738809Y-14254524D01*
X3748333Y-14245000D01*
X3767381Y-14235476D01*
X3919762Y-14435476D02*
X3919762Y-14302143D01*
X3919762Y-14321190D02*
X3929286Y-14311667D01*
X3948333Y-14302143D01*
X3976905Y-14302143D01*
X3995952Y-14311667D01*
X4005476Y-14330714D01*
X4005476Y-14435476D01*
X4005476Y-14330714D02*
X4015000Y-14311667D01*
X4034048Y-14302143D01*
X4062619Y-14302143D01*
X4081667Y-14311667D01*
X4091190Y-14330714D01*
X4091190Y-14435476D01*
X4186428Y-14435476D02*
X4186428Y-14302143D01*
X4186428Y-14321190D02*
X4195952Y-14311667D01*
X4215000Y-14302143D01*
X4243571Y-14302143D01*
X4262619Y-14311667D01*
X4272143Y-14330714D01*
X4272143Y-14435476D01*
X4272143Y-14330714D02*
X4281667Y-14311667D01*
X4300714Y-14302143D01*
X4329286Y-14302143D01*
X4348333Y-14311667D01*
X4357857Y-14330714D01*
X4357857Y-14435476D01*
X4748333Y-14225952D02*
X4576905Y-14483095D01*
X5005476Y-14235476D02*
X5024524Y-14235476D01*
X5043571Y-14245000D01*
X5053095Y-14254524D01*
X5062619Y-14273571D01*
X5072143Y-14311667D01*
X5072143Y-14359286D01*
X5062619Y-14397381D01*
X5053095Y-14416428D01*
X5043571Y-14425952D01*
X5024524Y-14435476D01*
X5005476Y-14435476D01*
X4986429Y-14425952D01*
X4976905Y-14416428D01*
X4967381Y-14397381D01*
X4957857Y-14359286D01*
X4957857Y-14311667D01*
X4967381Y-14273571D01*
X4976905Y-14254524D01*
X4986429Y-14245000D01*
X5005476Y-14235476D01*
X5157857Y-14416428D02*
X5167381Y-14425952D01*
X5157857Y-14435476D01*
X5148333Y-14425952D01*
X5157857Y-14416428D01*
X5157857Y-14435476D01*
X5291190Y-14235476D02*
X5310238Y-14235476D01*
X5329286Y-14245000D01*
X5338810Y-14254524D01*
X5348333Y-14273571D01*
X5357857Y-14311667D01*
X5357857Y-14359286D01*
X5348333Y-14397381D01*
X5338810Y-14416428D01*
X5329286Y-14425952D01*
X5310238Y-14435476D01*
X5291190Y-14435476D01*
X5272143Y-14425952D01*
X5262619Y-14416428D01*
X5253095Y-14397381D01*
X5243571Y-14359286D01*
X5243571Y-14311667D01*
X5253095Y-14273571D01*
X5262619Y-14254524D01*
X5272143Y-14245000D01*
X5291190Y-14235476D01*
X5424524Y-14235476D02*
X5548333Y-14235476D01*
X5481667Y-14311667D01*
X5510238Y-14311667D01*
X5529286Y-14321190D01*
X5538810Y-14330714D01*
X5548333Y-14349762D01*
X5548333Y-14397381D01*
X5538810Y-14416428D01*
X5529286Y-14425952D01*
X5510238Y-14435476D01*
X5453095Y-14435476D01*
X5434048Y-14425952D01*
X5424524Y-14416428D01*
X5615000Y-14235476D02*
X5748333Y-14235476D01*
X5662619Y-14435476D01*
X5910238Y-14302143D02*
X5910238Y-14435476D01*
X5862619Y-14225952D02*
X5815000Y-14368809D01*
X5938809Y-14368809D01*
X6005476Y-14235476D02*
X6005476Y-14273571D01*
X6081667Y-14235476D02*
X6081667Y-14273571D01*
X6376905Y-14511667D02*
X6367381Y-14502143D01*
X6348333Y-14473571D01*
X6338809Y-14454524D01*
X6329286Y-14425952D01*
X6319762Y-14378333D01*
X6319762Y-14340238D01*
X6329286Y-14292619D01*
X6338809Y-14264048D01*
X6348333Y-14245000D01*
X6367381Y-14216428D01*
X6376905Y-14206905D01*
X6443571Y-14254524D02*
X6453095Y-14245000D01*
X6472143Y-14235476D01*
X6519762Y-14235476D01*
X6538809Y-14245000D01*
X6548333Y-14254524D01*
X6557857Y-14273571D01*
X6557857Y-14292619D01*
X6548333Y-14321190D01*
X6434048Y-14435476D01*
X6557857Y-14435476D01*
X6795952Y-14435476D02*
X6795952Y-14235476D01*
X6881667Y-14435476D02*
X6881667Y-14330714D01*
X6872143Y-14311667D01*
X6853095Y-14302143D01*
X6824524Y-14302143D01*
X6805476Y-14311667D01*
X6795952Y-14321190D01*
X7005476Y-14435476D02*
X6986428Y-14425952D01*
X6976905Y-14416428D01*
X6967381Y-14397381D01*
X6967381Y-14340238D01*
X6976905Y-14321190D01*
X6986428Y-14311667D01*
X7005476Y-14302143D01*
X7034048Y-14302143D01*
X7053095Y-14311667D01*
X7062619Y-14321190D01*
X7072143Y-14340238D01*
X7072143Y-14397381D01*
X7062619Y-14416428D01*
X7053095Y-14425952D01*
X7034048Y-14435476D01*
X7005476Y-14435476D01*
X7186428Y-14435476D02*
X7167381Y-14425952D01*
X7157857Y-14406905D01*
X7157857Y-14235476D01*
X7338809Y-14425952D02*
X7319762Y-14435476D01*
X7281667Y-14435476D01*
X7262619Y-14425952D01*
X7253095Y-14406905D01*
X7253095Y-14330714D01*
X7262619Y-14311667D01*
X7281667Y-14302143D01*
X7319762Y-14302143D01*
X7338809Y-14311667D01*
X7348333Y-14330714D01*
X7348333Y-14349762D01*
X7253095Y-14368809D01*
X7424524Y-14425952D02*
X7443571Y-14435476D01*
X7481667Y-14435476D01*
X7500714Y-14425952D01*
X7510238Y-14406905D01*
X7510238Y-14397381D01*
X7500714Y-14378333D01*
X7481667Y-14368809D01*
X7453095Y-14368809D01*
X7434048Y-14359286D01*
X7424524Y-14340238D01*
X7424524Y-14330714D01*
X7434048Y-14311667D01*
X7453095Y-14302143D01*
X7481667Y-14302143D01*
X7500714Y-14311667D01*
X7576905Y-14511667D02*
X7586428Y-14502143D01*
X7605476Y-14473571D01*
X7615000Y-14454524D01*
X7624524Y-14425952D01*
X7634048Y-14378333D01*
X7634048Y-14340238D01*
X7624524Y-14292619D01*
X7615000Y-14264048D01*
X7605476Y-14245000D01*
X7586428Y-14216428D01*
X7576905Y-14206905D01*
X7938809Y-14511667D02*
X7929286Y-14502143D01*
X7910238Y-14473571D01*
X7900714Y-14454524D01*
X7891190Y-14425952D01*
X7881667Y-14378333D01*
X7881667Y-14340238D01*
X7891190Y-14292619D01*
X7900714Y-14264048D01*
X7910238Y-14245000D01*
X7929286Y-14216428D01*
X7938809Y-14206905D01*
X8015000Y-14302143D02*
X8015000Y-14435476D01*
X8015000Y-14321190D02*
X8024524Y-14311667D01*
X8043571Y-14302143D01*
X8072143Y-14302143D01*
X8091190Y-14311667D01*
X8100714Y-14330714D01*
X8100714Y-14435476D01*
X8224524Y-14435476D02*
X8205476Y-14425952D01*
X8195952Y-14416428D01*
X8186428Y-14397381D01*
X8186428Y-14340238D01*
X8195952Y-14321190D01*
X8205476Y-14311667D01*
X8224524Y-14302143D01*
X8253095Y-14302143D01*
X8272143Y-14311667D01*
X8281667Y-14321190D01*
X8291190Y-14340238D01*
X8291190Y-14397381D01*
X8281667Y-14416428D01*
X8272143Y-14425952D01*
X8253095Y-14435476D01*
X8224524Y-14435476D01*
X8348333Y-14302143D02*
X8424524Y-14302143D01*
X8376905Y-14235476D02*
X8376905Y-14406905D01*
X8386428Y-14425952D01*
X8405476Y-14435476D01*
X8424524Y-14435476D01*
X8643571Y-14302143D02*
X8643571Y-14502143D01*
X8643571Y-14311667D02*
X8662619Y-14302143D01*
X8700714Y-14302143D01*
X8719762Y-14311667D01*
X8729286Y-14321190D01*
X8738810Y-14340238D01*
X8738810Y-14397381D01*
X8729286Y-14416428D01*
X8719762Y-14425952D01*
X8700714Y-14435476D01*
X8662619Y-14435476D01*
X8643571Y-14425952D01*
X8853095Y-14435476D02*
X8834048Y-14425952D01*
X8824524Y-14406905D01*
X8824524Y-14235476D01*
X9015000Y-14435476D02*
X9015000Y-14330714D01*
X9005476Y-14311667D01*
X8986429Y-14302143D01*
X8948333Y-14302143D01*
X8929286Y-14311667D01*
X9015000Y-14425952D02*
X8995952Y-14435476D01*
X8948333Y-14435476D01*
X8929286Y-14425952D01*
X8919762Y-14406905D01*
X8919762Y-14387857D01*
X8929286Y-14368809D01*
X8948333Y-14359286D01*
X8995952Y-14359286D01*
X9015000Y-14349762D01*
X9081667Y-14302143D02*
X9157857Y-14302143D01*
X9110238Y-14235476D02*
X9110238Y-14406905D01*
X9119762Y-14425952D01*
X9138810Y-14435476D01*
X9157857Y-14435476D01*
X9300714Y-14425952D02*
X9281667Y-14435476D01*
X9243571Y-14435476D01*
X9224524Y-14425952D01*
X9215000Y-14406905D01*
X9215000Y-14330714D01*
X9224524Y-14311667D01*
X9243571Y-14302143D01*
X9281667Y-14302143D01*
X9300714Y-14311667D01*
X9310238Y-14330714D01*
X9310238Y-14349762D01*
X9215000Y-14368809D01*
X9481667Y-14435476D02*
X9481667Y-14235476D01*
X9481667Y-14425952D02*
X9462619Y-14435476D01*
X9424524Y-14435476D01*
X9405476Y-14425952D01*
X9395952Y-14416428D01*
X9386429Y-14397381D01*
X9386429Y-14340238D01*
X9395952Y-14321190D01*
X9405476Y-14311667D01*
X9424524Y-14302143D01*
X9462619Y-14302143D01*
X9481667Y-14311667D01*
X9557857Y-14511667D02*
X9567381Y-14502143D01*
X9586429Y-14473571D01*
X9595952Y-14454524D01*
X9605476Y-14425952D01*
X9615000Y-14378333D01*
X9615000Y-14340238D01*
X9605476Y-14292619D01*
X9595952Y-14264048D01*
X9586429Y-14245000D01*
X9567381Y-14216428D01*
X9557857Y-14206905D01*
M02*
