%TF.GenerationSoftware,KiCad,Pcbnew,(6.0.9)*%
%TF.CreationDate,2023-04-17T01:59:31-04:00*%
%TF.ProjectId,TrailCounter,54726169-6c43-46f7-956e-7465722e6b69,rev?*%
%TF.SameCoordinates,Original*%
%TF.FileFunction,Drillmap*%
%TF.FilePolarity,Positive*%
%FSLAX45Y45*%
G04 Gerber Fmt 4.5, Leading zero omitted, Abs format (unit mm)*
G04 Created by KiCad (PCBNEW (6.0.9)) date 2023-04-17 01:59:31*
%MOMM*%
%LPD*%
G01*
G04 APERTURE LIST*
%ADD10C,0.100000*%
%ADD11C,0.200000*%
%ADD12C,0.030000*%
%ADD13C,0.060000*%
%ADD14C,0.110000*%
%ADD15C,0.120000*%
%ADD16C,0.160000*%
%ADD17C,0.190000*%
%ADD18C,0.300000*%
%ADD19C,0.350000*%
G04 APERTURE END LIST*
D10*
X2810000Y-2250000D02*
X20200000Y-2250000D01*
X20200000Y-2250000D02*
X20200000Y-13700000D01*
X20200000Y-13700000D02*
X2810000Y-13700000D01*
X2810000Y-13700000D02*
X2810000Y-2250000D01*
D11*
D12*
X12100110Y-10231360D02*
X12130110Y-10261360D01*
X12130110Y-10231360D02*
X12100110Y-10261360D01*
X12136360Y-10678400D02*
X12166360Y-10708400D01*
X12166360Y-10678400D02*
X12136360Y-10708400D01*
X12192240Y-10216120D02*
X12222240Y-10246120D01*
X12222240Y-10216120D02*
X12192240Y-10246120D01*
X12202400Y-10150080D02*
X12232400Y-10180080D01*
X12232400Y-10150080D02*
X12202400Y-10180080D01*
X12212560Y-10373600D02*
X12242560Y-10403600D01*
X12242560Y-10373600D02*
X12212560Y-10403600D01*
X12217640Y-10089120D02*
X12247640Y-10119120D01*
X12247640Y-10089120D02*
X12217640Y-10119120D01*
X12441160Y-9916400D02*
X12471160Y-9946400D01*
X12471160Y-9916400D02*
X12441160Y-9946400D01*
X12441160Y-11262600D02*
X12471160Y-11292600D01*
X12471160Y-11262600D02*
X12441160Y-11292600D01*
X12588110Y-10500600D02*
X12618110Y-10530600D01*
X12618110Y-10500600D02*
X12588110Y-10530600D01*
X12603720Y-10693640D02*
X12633720Y-10723640D01*
X12633720Y-10693640D02*
X12603720Y-10723640D01*
X12603720Y-10769840D02*
X12633720Y-10799840D01*
X12633720Y-10769840D02*
X12603720Y-10799840D01*
X12632709Y-11021809D02*
X12662709Y-11051809D01*
X12662709Y-11021809D02*
X12632709Y-11051809D01*
X12644360Y-9916400D02*
X12674360Y-9946400D01*
X12674360Y-9916400D02*
X12644360Y-9946400D01*
X12679920Y-10693640D02*
X12709920Y-10723640D01*
X12709920Y-10693640D02*
X12679920Y-10723640D01*
X12679920Y-10769840D02*
X12709920Y-10799840D01*
X12709920Y-10769840D02*
X12679920Y-10799840D01*
X12695160Y-11415000D02*
X12725160Y-11445000D01*
X12725160Y-11415000D02*
X12695160Y-11445000D01*
X12756120Y-10693640D02*
X12786120Y-10723640D01*
X12786120Y-10693640D02*
X12756120Y-10723640D01*
X12756120Y-10769840D02*
X12786120Y-10799840D01*
X12786120Y-10769840D02*
X12756120Y-10799840D01*
X12832320Y-10693640D02*
X12862320Y-10723640D01*
X12862320Y-10693640D02*
X12832320Y-10723640D01*
X12832320Y-10769840D02*
X12862320Y-10799840D01*
X12862320Y-10769840D02*
X12832320Y-10799840D01*
X12898360Y-11415000D02*
X12928360Y-11445000D01*
X12928360Y-11415000D02*
X12898360Y-11445000D01*
X13025360Y-10754600D02*
X13055360Y-10784600D01*
X13055360Y-10754600D02*
X13025360Y-10784600D01*
X13030440Y-10846040D02*
X13060440Y-10876040D01*
X13060440Y-10846040D02*
X13030440Y-10876040D01*
X13031880Y-11281480D02*
X13061880Y-11311480D01*
X13061880Y-11281480D02*
X13031880Y-11311480D01*
X13173780Y-11096060D02*
X13203780Y-11126060D01*
X13203780Y-11096060D02*
X13173780Y-11126060D01*
X13203160Y-11161000D02*
X13233160Y-11191000D01*
X13233160Y-11161000D02*
X13203160Y-11191000D01*
X13203160Y-11440400D02*
X13233160Y-11470400D01*
X13233160Y-11440400D02*
X13203160Y-11470400D01*
X13223480Y-11521680D02*
X13253480Y-11551680D01*
X13253480Y-11521680D02*
X13223480Y-11551680D01*
X13304760Y-11526760D02*
X13334760Y-11556760D01*
X13334760Y-11526760D02*
X13304760Y-11556760D01*
X13370800Y-13182840D02*
X13400800Y-13212840D01*
X13400800Y-13182840D02*
X13370800Y-13212840D01*
X13467320Y-11399760D02*
X13497320Y-11429760D01*
X13497320Y-11399760D02*
X13467320Y-11429760D01*
X13497800Y-9367760D02*
X13527800Y-9397760D01*
X13527800Y-9367760D02*
X13497800Y-9397760D01*
X13497800Y-13289520D02*
X13527800Y-13319520D01*
X13527800Y-13289520D02*
X13497800Y-13319520D01*
X13507960Y-10653000D02*
X13537960Y-10683000D01*
X13537960Y-10653000D02*
X13507960Y-10683000D01*
X13513040Y-11435320D02*
X13543040Y-11465320D01*
X13543040Y-11435320D02*
X13513040Y-11465320D01*
X13548600Y-10751090D02*
X13578600Y-10781090D01*
X13578600Y-10751090D02*
X13548600Y-10781090D01*
X13660360Y-10145000D02*
X13690360Y-10175000D01*
X13690360Y-10145000D02*
X13660360Y-10175000D01*
X13685760Y-11262600D02*
X13715760Y-11292600D01*
X13715760Y-11262600D02*
X13685760Y-11292600D01*
X13690840Y-9184880D02*
X13720840Y-9214880D01*
X13720840Y-9184880D02*
X13690840Y-9214880D01*
X13701000Y-13294600D02*
X13731000Y-13324600D01*
X13731000Y-13294600D02*
X13701000Y-13324600D01*
X13741640Y-11145760D02*
X13771640Y-11175760D01*
X13771640Y-11145760D02*
X13741640Y-11175760D01*
X13868640Y-11455640D02*
X13898640Y-11485640D01*
X13898640Y-11455640D02*
X13868640Y-11485640D01*
X13904200Y-13289520D02*
X13934200Y-13319520D01*
X13934200Y-13289520D02*
X13904200Y-13319520D01*
X13909280Y-11394680D02*
X13939280Y-11424680D01*
X13939280Y-11394680D02*
X13909280Y-11424680D01*
X14031200Y-13187920D02*
X14061200Y-13217920D01*
X14061200Y-13187920D02*
X14031200Y-13217920D01*
X14066760Y-11450560D02*
X14096760Y-11480560D01*
X14096760Y-11450560D02*
X14066760Y-11480560D01*
X14148040Y-11440400D02*
X14178040Y-11470400D01*
X14178040Y-11440400D02*
X14148040Y-11470400D01*
X14168360Y-11364200D02*
X14198360Y-11394200D01*
X14198360Y-11364200D02*
X14168360Y-11394200D01*
X14183600Y-8326360D02*
X14213600Y-8356360D01*
X14213600Y-8326360D02*
X14183600Y-8356360D01*
X14183600Y-8524480D02*
X14213600Y-8554480D01*
X14213600Y-8524480D02*
X14183600Y-8554480D01*
X14188680Y-7564360D02*
X14218680Y-7594360D01*
X14218680Y-7564360D02*
X14188680Y-7594360D01*
X14188680Y-7742160D02*
X14218680Y-7772160D01*
X14218680Y-7742160D02*
X14188680Y-7772160D01*
X14209000Y-8742920D02*
X14239000Y-8772920D01*
X14239000Y-8742920D02*
X14209000Y-8772920D01*
X14214080Y-9129000D02*
X14244080Y-9159000D01*
X14244080Y-9129000D02*
X14214080Y-9159000D01*
X14244560Y-11059400D02*
X14274560Y-11089400D01*
X14274560Y-11059400D02*
X14244560Y-11089400D01*
X14248630Y-7526805D02*
X14278630Y-7556805D01*
X14278630Y-7526805D02*
X14248630Y-7556805D01*
X14281330Y-7432280D02*
X14311330Y-7462280D01*
X14311330Y-7432280D02*
X14281330Y-7462280D01*
X14330920Y-8915640D02*
X14360920Y-8945640D01*
X14360920Y-8915640D02*
X14330920Y-8945640D01*
X14341080Y-9017240D02*
X14371080Y-9047240D01*
X14371080Y-9017240D02*
X14341080Y-9047240D01*
X14346160Y-9332200D02*
X14376160Y-9362200D01*
X14376160Y-9332200D02*
X14346160Y-9362200D01*
X14386800Y-11536920D02*
X14416800Y-11566920D01*
X14416800Y-11536920D02*
X14386800Y-11566920D01*
X14447760Y-11536920D02*
X14477760Y-11566920D01*
X14477760Y-11536920D02*
X14447760Y-11566920D01*
X14452840Y-7813280D02*
X14482840Y-7843280D01*
X14482840Y-7813280D02*
X14452840Y-7843280D01*
X14483320Y-11018760D02*
X14513320Y-11048760D01*
X14513320Y-11018760D02*
X14483320Y-11048760D01*
X14518880Y-11536920D02*
X14548880Y-11566920D01*
X14548880Y-11536920D02*
X14518880Y-11566920D01*
X14539200Y-11303240D02*
X14569200Y-11333240D01*
X14569200Y-11303240D02*
X14539200Y-11333240D01*
X14549360Y-7889480D02*
X14579360Y-7919480D01*
X14579360Y-7889480D02*
X14549360Y-7919480D01*
X14549360Y-8524480D02*
X14579360Y-8554480D01*
X14579360Y-8524480D02*
X14549360Y-8554480D01*
X14732240Y-10861280D02*
X14762240Y-10891280D01*
X14762240Y-10861280D02*
X14732240Y-10891280D01*
X14762720Y-8285720D02*
X14792720Y-8315720D01*
X14792720Y-8285720D02*
X14762720Y-8315720D01*
X14767800Y-8514320D02*
X14797800Y-8544320D01*
X14797800Y-8514320D02*
X14767800Y-8544320D01*
X14803360Y-10866360D02*
X14833360Y-10896360D01*
X14833360Y-10866360D02*
X14803360Y-10896360D01*
X14828760Y-10952720D02*
X14858760Y-10982720D01*
X14858760Y-10952720D02*
X14828760Y-10982720D01*
X14849080Y-10332960D02*
X14879080Y-10362960D01*
X14879080Y-10332960D02*
X14849080Y-10362960D01*
X15131037Y-8958803D02*
X15161037Y-8988803D01*
X15161037Y-8958803D02*
X15131037Y-8988803D01*
X15179280Y-9027400D02*
X15209280Y-9057400D01*
X15209280Y-9027400D02*
X15179280Y-9057400D01*
X15245320Y-10332960D02*
X15275320Y-10362960D01*
X15275320Y-10332960D02*
X15245320Y-10362960D01*
X15255480Y-11420080D02*
X15285480Y-11450080D01*
X15285480Y-11420080D02*
X15255480Y-11450080D01*
X15264007Y-10915528D02*
X15294007Y-10945528D01*
X15294007Y-10915528D02*
X15264007Y-10945528D01*
X15341840Y-11399760D02*
X15371840Y-11429760D01*
X15371840Y-11399760D02*
X15341840Y-11429760D01*
X15362160Y-10947640D02*
X15392160Y-10977640D01*
X15392160Y-10947640D02*
X15362160Y-10977640D01*
X15362160Y-11288000D02*
X15392160Y-11318000D01*
X15392160Y-11288000D02*
X15362160Y-11318000D01*
X15367240Y-11049240D02*
X15397240Y-11079240D01*
X15397240Y-11049240D02*
X15367240Y-11079240D01*
X15407880Y-9271240D02*
X15437880Y-9301240D01*
X15437880Y-9271240D02*
X15407880Y-9301240D01*
X15418040Y-8483840D02*
X15448040Y-8513840D01*
X15448040Y-8483840D02*
X15418040Y-8513840D01*
X15423120Y-8321280D02*
X15453120Y-8351280D01*
X15453120Y-8321280D02*
X15423120Y-8351280D01*
X15479000Y-9337280D02*
X15509000Y-9367280D01*
X15509000Y-9337280D02*
X15479000Y-9367280D01*
X15702520Y-4998960D02*
X15732520Y-5028960D01*
X15732520Y-4998960D02*
X15702520Y-5028960D01*
X15702520Y-6101320D02*
X15732520Y-6131320D01*
X15732520Y-6101320D02*
X15702520Y-6131320D01*
X15865080Y-11343880D02*
X15895080Y-11373880D01*
X15895080Y-11343880D02*
X15865080Y-11373880D01*
X16047960Y-11155920D02*
X16077960Y-11185920D01*
X16077960Y-11155920D02*
X16047960Y-11185920D01*
X16225760Y-9327120D02*
X16255760Y-9357120D01*
X16255760Y-9327120D02*
X16225760Y-9357120D01*
X16266400Y-9454120D02*
X16296400Y-9484120D01*
X16296400Y-9454120D02*
X16266400Y-9484120D01*
X16266400Y-10434560D02*
X16296400Y-10464560D01*
X16296400Y-10434560D02*
X16266400Y-10464560D01*
X16266400Y-11506440D02*
X16296400Y-11536440D01*
X16296400Y-11506440D02*
X16266400Y-11536440D01*
X16266751Y-9107829D02*
X16296751Y-9137829D01*
X16296751Y-9107829D02*
X16266751Y-9137829D01*
X16266889Y-10882770D02*
X16296889Y-10912770D01*
X16296889Y-10882770D02*
X16266889Y-10912770D01*
X16286720Y-8976100D02*
X16316720Y-9006100D01*
X16316720Y-8976100D02*
X16286720Y-9006100D01*
X16312120Y-9052800D02*
X16342120Y-9082800D01*
X16342120Y-9052800D02*
X16312120Y-9082800D01*
X16317551Y-9159129D02*
X16347551Y-9189129D01*
X16347551Y-9159129D02*
X16317551Y-9189129D01*
X16383240Y-9662400D02*
X16413240Y-9692400D01*
X16413240Y-9662400D02*
X16383240Y-9692400D01*
X16383240Y-10434560D02*
X16413240Y-10464560D01*
X16413240Y-10434560D02*
X16383240Y-10464560D01*
X16383240Y-10871440D02*
X16413240Y-10901440D01*
X16413240Y-10871440D02*
X16383240Y-10901440D01*
X16388320Y-11496280D02*
X16418320Y-11526280D01*
X16418320Y-11496280D02*
X16388320Y-11526280D01*
X16439120Y-9824960D02*
X16469120Y-9854960D01*
X16469120Y-9824960D02*
X16439120Y-9854960D01*
X16454360Y-4140440D02*
X16484360Y-4170440D01*
X16484360Y-4140440D02*
X16454360Y-4170440D01*
X16601680Y-9982440D02*
X16631680Y-10012440D01*
X16631680Y-9982440D02*
X16601680Y-10012440D01*
X16622000Y-8453360D02*
X16652000Y-8483360D01*
X16652000Y-8453360D02*
X16622000Y-8483360D01*
X16645150Y-8326360D02*
X16675150Y-8356360D01*
X16675150Y-8326360D02*
X16645150Y-8356360D01*
X16855680Y-9540480D02*
X16885680Y-9570480D01*
X16885680Y-9540480D02*
X16855680Y-9570480D01*
X16911560Y-9845280D02*
X16941560Y-9875280D01*
X16941560Y-9845280D02*
X16911560Y-9875280D01*
X16911560Y-10241520D02*
X16941560Y-10271520D01*
X16941560Y-10241520D02*
X16911560Y-10271520D01*
X16911560Y-10454880D02*
X16941560Y-10484880D01*
X16941560Y-10454880D02*
X16911560Y-10484880D01*
X16916640Y-8326360D02*
X16946640Y-8356360D01*
X16946640Y-8326360D02*
X16916640Y-8356360D01*
X16957280Y-8433040D02*
X16987280Y-8463040D01*
X16987280Y-8433040D02*
X16957280Y-8463040D01*
X17008080Y-10683480D02*
X17038080Y-10713480D01*
X17038080Y-10683480D02*
X17008080Y-10713480D01*
X17084280Y-9479520D02*
X17114280Y-9509520D01*
X17114280Y-9479520D02*
X17084280Y-9509520D01*
X17109680Y-9057880D02*
X17139680Y-9087880D01*
X17139680Y-9057880D02*
X17109680Y-9087880D01*
X17119840Y-8443200D02*
X17149840Y-8473200D01*
X17149840Y-8443200D02*
X17119840Y-8473200D01*
X17192650Y-9581120D02*
X17222650Y-9611120D01*
X17222650Y-9581120D02*
X17192650Y-9611120D01*
X17196040Y-8402560D02*
X17226040Y-8432560D01*
X17226040Y-8402560D02*
X17196040Y-8432560D01*
X17216360Y-10028160D02*
X17246360Y-10058160D01*
X17246360Y-10028160D02*
X17216360Y-10058160D01*
X17241760Y-9189960D02*
X17271760Y-9219960D01*
X17271760Y-9189960D02*
X17241760Y-9219960D01*
X17333200Y-8925800D02*
X17363200Y-8955800D01*
X17363200Y-8925800D02*
X17333200Y-8955800D01*
X17399240Y-8727680D02*
X17429240Y-8757680D01*
X17429240Y-8727680D02*
X17399240Y-8757680D01*
X17450040Y-8306040D02*
X17480040Y-8336040D01*
X17480040Y-8306040D02*
X17450040Y-8336040D01*
X17596724Y-9463850D02*
X17626724Y-9493850D01*
X17626724Y-9463850D02*
X17596724Y-9493850D01*
X17719280Y-9301720D02*
X17749280Y-9331720D01*
X17749280Y-9301720D02*
X17719280Y-9331720D01*
X17770080Y-8783560D02*
X17800080Y-8813560D01*
X17800080Y-8783560D02*
X17770080Y-8813560D01*
X17800560Y-9403320D02*
X17830560Y-9433320D01*
X17830560Y-9403320D02*
X17800560Y-9433320D01*
X17825960Y-8930880D02*
X17855960Y-8960880D01*
X17855960Y-8930880D02*
X17825960Y-8960880D01*
X17958040Y-9403320D02*
X17988040Y-9433320D01*
X17988040Y-9403320D02*
X17958040Y-9433320D01*
X17963120Y-8468600D02*
X17993120Y-8498600D01*
X17993120Y-8468600D02*
X17963120Y-8498600D01*
X17963120Y-9271240D02*
X17993120Y-9301240D01*
X17993120Y-9271240D02*
X17963120Y-9301240D01*
X18318720Y-5125960D02*
X18348720Y-5155960D01*
X18348720Y-5125960D02*
X18318720Y-5155960D01*
X18328880Y-4221720D02*
X18358880Y-4251720D01*
X18358880Y-4221720D02*
X18328880Y-4251720D01*
X18664160Y-3906760D02*
X18694160Y-3936760D01*
X18694160Y-3906760D02*
X18664160Y-3936760D01*
X19675080Y-4221720D02*
X19705080Y-4251720D01*
X19705080Y-4221720D02*
X19675080Y-4251720D01*
X19700480Y-5120880D02*
X19730480Y-5150880D01*
X19730480Y-5120880D02*
X19700480Y-5150880D01*
D13*
X13365000Y-3611880D02*
G75*
G03*
X13365000Y-3611880I-30000J0D01*
G01*
D10*
X7345680Y-11171720D02*
X7345680Y-11271720D01*
X7295680Y-11221720D02*
X7395680Y-11221720D01*
X7345680Y-11425720D02*
X7345680Y-11525720D01*
X7295680Y-11475720D02*
X7395680Y-11475720D01*
X7345680Y-11679720D02*
X7345680Y-11779720D01*
X7295680Y-11729720D02*
X7395680Y-11729720D01*
X7345680Y-11933720D02*
X7345680Y-12033720D01*
X7295680Y-11983720D02*
X7395680Y-11983720D01*
X7345680Y-12187720D02*
X7345680Y-12287720D01*
X7295680Y-12237720D02*
X7395680Y-12237720D01*
X7345680Y-12441720D02*
X7345680Y-12541720D01*
X7295680Y-12491720D02*
X7395680Y-12491720D01*
X11701000Y-3328200D02*
X11701000Y-3428200D01*
X11651000Y-3378200D02*
X11751000Y-3378200D01*
X11701000Y-3582200D02*
X11701000Y-3682200D01*
X11651000Y-3632200D02*
X11751000Y-3632200D01*
X11701000Y-3836200D02*
X11701000Y-3936200D01*
X11651000Y-3886200D02*
X11751000Y-3886200D01*
X11701000Y-4090200D02*
X11701000Y-4190200D01*
X11651000Y-4140200D02*
X11751000Y-4140200D01*
X11701000Y-4344200D02*
X11701000Y-4444200D01*
X11651000Y-4394200D02*
X11751000Y-4394200D01*
X11701000Y-4598200D02*
X11701000Y-4698200D01*
X11651000Y-4648200D02*
X11751000Y-4648200D01*
X11701000Y-4852200D02*
X11701000Y-4952200D01*
X11651000Y-4902200D02*
X11751000Y-4902200D01*
X11701000Y-5106200D02*
X11701000Y-5206200D01*
X11651000Y-5156200D02*
X11751000Y-5156200D01*
X11701000Y-5360200D02*
X11701000Y-5460200D01*
X11651000Y-5410200D02*
X11751000Y-5410200D01*
X11701000Y-5614200D02*
X11701000Y-5714200D01*
X11651000Y-5664200D02*
X11751000Y-5664200D01*
X11701000Y-5868200D02*
X11701000Y-5968200D01*
X11651000Y-5918200D02*
X11751000Y-5918200D01*
X11701000Y-6122200D02*
X11701000Y-6222200D01*
X11651000Y-6172200D02*
X11751000Y-6172200D01*
X14461000Y-3328200D02*
X14461000Y-3428200D01*
X14411000Y-3378200D02*
X14511000Y-3378200D01*
X14461000Y-3582200D02*
X14461000Y-3682200D01*
X14411000Y-3632200D02*
X14511000Y-3632200D01*
X14461000Y-3836200D02*
X14461000Y-3936200D01*
X14411000Y-3886200D02*
X14511000Y-3886200D01*
X14461000Y-4090200D02*
X14461000Y-4190200D01*
X14411000Y-4140200D02*
X14511000Y-4140200D01*
X14461000Y-4344200D02*
X14461000Y-4444200D01*
X14411000Y-4394200D02*
X14511000Y-4394200D01*
X14461000Y-4598200D02*
X14461000Y-4698200D01*
X14411000Y-4648200D02*
X14511000Y-4648200D01*
X14461000Y-4852200D02*
X14461000Y-4952200D01*
X14411000Y-4902200D02*
X14511000Y-4902200D01*
X14461000Y-5106200D02*
X14461000Y-5206200D01*
X14411000Y-5156200D02*
X14511000Y-5156200D01*
X14461000Y-5360200D02*
X14461000Y-5460200D01*
X14411000Y-5410200D02*
X14511000Y-5410200D01*
X14461000Y-5614200D02*
X14461000Y-5714200D01*
X14411000Y-5664200D02*
X14511000Y-5664200D01*
X14461000Y-5868200D02*
X14461000Y-5968200D01*
X14411000Y-5918200D02*
X14511000Y-5918200D01*
X14461000Y-6122200D02*
X14461000Y-6222200D01*
X14411000Y-6172200D02*
X14511000Y-6172200D01*
X15200600Y-3379000D02*
X15200600Y-3479000D01*
X15150600Y-3429000D02*
X15250600Y-3429000D01*
X15200600Y-3633000D02*
X15200600Y-3733000D01*
X15150600Y-3683000D02*
X15250600Y-3683000D01*
X15200600Y-3887000D02*
X15200600Y-3987000D01*
X15150600Y-3937000D02*
X15250600Y-3937000D01*
X15200600Y-4141000D02*
X15200600Y-4241000D01*
X15150600Y-4191000D02*
X15250600Y-4191000D01*
X15200600Y-4395000D02*
X15200600Y-4495000D01*
X15150600Y-4445000D02*
X15250600Y-4445000D01*
X15200600Y-4649000D02*
X15200600Y-4749000D01*
X15150600Y-4699000D02*
X15250600Y-4699000D01*
X15200600Y-4903000D02*
X15200600Y-5003000D01*
X15150600Y-4953000D02*
X15250600Y-4953000D01*
X15200600Y-5157000D02*
X15200600Y-5257000D01*
X15150600Y-5207000D02*
X15250600Y-5207000D01*
X15200600Y-5411000D02*
X15200600Y-5511000D01*
X15150600Y-5461000D02*
X15250600Y-5461000D01*
X15200600Y-5665000D02*
X15200600Y-5765000D01*
X15150600Y-5715000D02*
X15250600Y-5715000D01*
X15200600Y-5919000D02*
X15200600Y-6019000D01*
X15150600Y-5969000D02*
X15250600Y-5969000D01*
X15200600Y-6173000D02*
X15200600Y-6273000D01*
X15150600Y-6223000D02*
X15250600Y-6223000D01*
X15200600Y-6427000D02*
X15200600Y-6527000D01*
X15150600Y-6477000D02*
X15250600Y-6477000D01*
X15200600Y-6681000D02*
X15200600Y-6781000D01*
X15150600Y-6731000D02*
X15250600Y-6731000D01*
X15200600Y-6935000D02*
X15200600Y-7035000D01*
X15150600Y-6985000D02*
X15250600Y-6985000D01*
X15200600Y-7189000D02*
X15200600Y-7289000D01*
X15150600Y-7239000D02*
X15250600Y-7239000D01*
X15200600Y-7443000D02*
X15200600Y-7543000D01*
X15150600Y-7493000D02*
X15250600Y-7493000D01*
X15200600Y-7697000D02*
X15200600Y-7797000D01*
X15150600Y-7747000D02*
X15250600Y-7747000D01*
X15200600Y-7951000D02*
X15200600Y-8051000D01*
X15150600Y-8001000D02*
X15250600Y-8001000D01*
X15200600Y-8205000D02*
X15200600Y-8305000D01*
X15150600Y-8255000D02*
X15250600Y-8255000D01*
X17114520Y-11334280D02*
X17114520Y-11434280D01*
X17064520Y-11384280D02*
X17164520Y-11384280D01*
X17260600Y-3379000D02*
X17260600Y-3479000D01*
X17210600Y-3429000D02*
X17310600Y-3429000D01*
X17260600Y-3633000D02*
X17260600Y-3733000D01*
X17210600Y-3683000D02*
X17310600Y-3683000D01*
X17260600Y-3887000D02*
X17260600Y-3987000D01*
X17210600Y-3937000D02*
X17310600Y-3937000D01*
X17260600Y-4141000D02*
X17260600Y-4241000D01*
X17210600Y-4191000D02*
X17310600Y-4191000D01*
X17260600Y-4395000D02*
X17260600Y-4495000D01*
X17210600Y-4445000D02*
X17310600Y-4445000D01*
X17260600Y-4649000D02*
X17260600Y-4749000D01*
X17210600Y-4699000D02*
X17310600Y-4699000D01*
X17260600Y-4903000D02*
X17260600Y-5003000D01*
X17210600Y-4953000D02*
X17310600Y-4953000D01*
X17260600Y-5157000D02*
X17260600Y-5257000D01*
X17210600Y-5207000D02*
X17310600Y-5207000D01*
X17260600Y-5411000D02*
X17260600Y-5511000D01*
X17210600Y-5461000D02*
X17310600Y-5461000D01*
X17260600Y-5665000D02*
X17260600Y-5765000D01*
X17210600Y-5715000D02*
X17310600Y-5715000D01*
X17260600Y-5919000D02*
X17260600Y-6019000D01*
X17210600Y-5969000D02*
X17310600Y-5969000D01*
X17260600Y-6173000D02*
X17260600Y-6273000D01*
X17210600Y-6223000D02*
X17310600Y-6223000D01*
X17260600Y-6427000D02*
X17260600Y-6527000D01*
X17210600Y-6477000D02*
X17310600Y-6477000D01*
X17260600Y-6681000D02*
X17260600Y-6781000D01*
X17210600Y-6731000D02*
X17310600Y-6731000D01*
X17260600Y-6935000D02*
X17260600Y-7035000D01*
X17210600Y-6985000D02*
X17310600Y-6985000D01*
X17260600Y-7189000D02*
X17260600Y-7289000D01*
X17210600Y-7239000D02*
X17310600Y-7239000D01*
X17260600Y-7443000D02*
X17260600Y-7543000D01*
X17210600Y-7493000D02*
X17310600Y-7493000D01*
X17260600Y-7697000D02*
X17260600Y-7797000D01*
X17210600Y-7747000D02*
X17310600Y-7747000D01*
X17260600Y-7951000D02*
X17260600Y-8051000D01*
X17210600Y-8001000D02*
X17310600Y-8001000D01*
X17260600Y-8205000D02*
X17260600Y-8305000D01*
X17210600Y-8255000D02*
X17310600Y-8255000D01*
X17368520Y-11334280D02*
X17368520Y-11434280D01*
X17318520Y-11384280D02*
X17418520Y-11384280D01*
X17622520Y-11334280D02*
X17622520Y-11434280D01*
X17572520Y-11384280D02*
X17672520Y-11384280D01*
X18515100Y-8286280D02*
X18515100Y-8386280D01*
X18465100Y-8336280D02*
X18565100Y-8336280D01*
X18769100Y-8286280D02*
X18769100Y-8386280D01*
X18719100Y-8336280D02*
X18819100Y-8336280D01*
X19023100Y-8286280D02*
X19023100Y-8386280D01*
X18973100Y-8336280D02*
X19073100Y-8336280D01*
D14*
X19784491Y-10009931D02*
X19784491Y-9932149D01*
X19706709Y-9932149D01*
X19706709Y-10009931D01*
X19784491Y-10009931D01*
X19784491Y-10519931D02*
X19784491Y-10442149D01*
X19706709Y-10442149D01*
X19706709Y-10519931D01*
X19784491Y-10519931D01*
D15*
X19965600Y-10031040D02*
X20025600Y-9971040D01*
X19965600Y-9911040D01*
X19905600Y-9971040D01*
X19965600Y-10031040D01*
X19965600Y-10541040D02*
X20025600Y-10481040D01*
X19965600Y-10421040D01*
X19905600Y-10481040D01*
X19965600Y-10541040D01*
D16*
X19910600Y-9446040D02*
X20070600Y-9606040D01*
X20070600Y-9446040D02*
X19910600Y-9606040D01*
X20070600Y-9526040D02*
G75*
G03*
X20070600Y-9526040I-80000J0D01*
G01*
X19910600Y-10846040D02*
X20070600Y-11006040D01*
X20070600Y-10846040D02*
X19910600Y-11006040D01*
X20070600Y-10926040D02*
G75*
G03*
X20070600Y-10926040I-80000J0D01*
G01*
D17*
X4147000Y-3116800D02*
X4337000Y-3306800D01*
X4337000Y-3116800D02*
X4147000Y-3306800D01*
X4242000Y-3116800D02*
X4242000Y-3306800D01*
X4147000Y-3211800D02*
X4337000Y-3211800D01*
X4147000Y-10256800D02*
X4337000Y-10446800D01*
X4337000Y-10256800D02*
X4147000Y-10446800D01*
X4242000Y-10256800D02*
X4242000Y-10446800D01*
X4147000Y-10351800D02*
X4337000Y-10351800D01*
X6077000Y-3116800D02*
X6267000Y-3306800D01*
X6267000Y-3116800D02*
X6077000Y-3306800D01*
X6172000Y-3116800D02*
X6172000Y-3306800D01*
X6077000Y-3211800D02*
X6267000Y-3211800D01*
X6077000Y-10256800D02*
X6267000Y-10446800D01*
X6267000Y-10256800D02*
X6077000Y-10446800D01*
X6172000Y-10256800D02*
X6172000Y-10446800D01*
X6077000Y-10351800D02*
X6267000Y-10351800D01*
X8338000Y-3116800D02*
X8528000Y-3306800D01*
X8528000Y-3116800D02*
X8338000Y-3306800D01*
X8433000Y-3116800D02*
X8433000Y-3306800D01*
X8338000Y-3211800D02*
X8528000Y-3211800D01*
X8338000Y-10256800D02*
X8528000Y-10446800D01*
X8528000Y-10256800D02*
X8338000Y-10446800D01*
X8433000Y-10256800D02*
X8433000Y-10446800D01*
X8338000Y-10351800D02*
X8528000Y-10351800D01*
X10268000Y-3116800D02*
X10458000Y-3306800D01*
X10458000Y-3116800D02*
X10268000Y-3306800D01*
X10363000Y-3116800D02*
X10363000Y-3306800D01*
X10268000Y-3211800D02*
X10458000Y-3211800D01*
X10268000Y-10256800D02*
X10458000Y-10446800D01*
X10458000Y-10256800D02*
X10268000Y-10446800D01*
X10363000Y-10256800D02*
X10363000Y-10446800D01*
X10268000Y-10351800D02*
X10458000Y-10351800D01*
D18*
X5057000Y-3946800D02*
X5357000Y-4246800D01*
X5357000Y-3946800D02*
X5057000Y-4246800D01*
X5313067Y-4202867D02*
X5313067Y-3990733D01*
X5100933Y-3990733D01*
X5100933Y-4202867D01*
X5313067Y-4202867D01*
X5057000Y-9316800D02*
X5357000Y-9616800D01*
X5357000Y-9316800D02*
X5057000Y-9616800D01*
X5313067Y-9572867D02*
X5313067Y-9360733D01*
X5100933Y-9360733D01*
X5100933Y-9572867D01*
X5313067Y-9572867D01*
X9248000Y-3946800D02*
X9548000Y-4246800D01*
X9548000Y-3946800D02*
X9248000Y-4246800D01*
X9504067Y-4202867D02*
X9504067Y-3990733D01*
X9291933Y-3990733D01*
X9291933Y-4202867D01*
X9504067Y-4202867D01*
X9248000Y-9316800D02*
X9548000Y-9616800D01*
X9548000Y-9316800D02*
X9248000Y-9616800D01*
X9504067Y-9572867D02*
X9504067Y-9360733D01*
X9291933Y-9360733D01*
X9291933Y-9572867D01*
X9504067Y-9572867D01*
D19*
X3635000Y-2446280D02*
X3985000Y-2796280D01*
X3985000Y-2446280D02*
X3635000Y-2796280D01*
X3810000Y-2796280D02*
X3985000Y-2621280D01*
X3810000Y-2446280D01*
X3635000Y-2621280D01*
X3810000Y-2796280D01*
X3635000Y-12626600D02*
X3985000Y-12976600D01*
X3985000Y-12626600D02*
X3635000Y-12976600D01*
X3810000Y-12976600D02*
X3985000Y-12801600D01*
X3810000Y-12626600D01*
X3635000Y-12801600D01*
X3810000Y-12976600D01*
X19032480Y-2446280D02*
X19382480Y-2796280D01*
X19382480Y-2446280D02*
X19032480Y-2796280D01*
X19207480Y-2796280D02*
X19382480Y-2621280D01*
X19207480Y-2446280D01*
X19032480Y-2621280D01*
X19207480Y-2796280D01*
X19032480Y-12621520D02*
X19382480Y-12971520D01*
X19382480Y-12621520D02*
X19032480Y-12971520D01*
X19207480Y-12971520D02*
X19382480Y-12796520D01*
X19207480Y-12621520D01*
X19032480Y-12796520D01*
X19207480Y-12971520D01*
D11*
X3062619Y-14015476D02*
X3062619Y-13815476D01*
X3110238Y-13815476D01*
X3138809Y-13825000D01*
X3157857Y-13844048D01*
X3167381Y-13863095D01*
X3176905Y-13901190D01*
X3176905Y-13929762D01*
X3167381Y-13967857D01*
X3157857Y-13986905D01*
X3138809Y-14005952D01*
X3110238Y-14015476D01*
X3062619Y-14015476D01*
X3262619Y-14015476D02*
X3262619Y-13882143D01*
X3262619Y-13920238D02*
X3272143Y-13901190D01*
X3281667Y-13891667D01*
X3300714Y-13882143D01*
X3319762Y-13882143D01*
X3386428Y-14015476D02*
X3386428Y-13882143D01*
X3386428Y-13815476D02*
X3376905Y-13825000D01*
X3386428Y-13834524D01*
X3395952Y-13825000D01*
X3386428Y-13815476D01*
X3386428Y-13834524D01*
X3510238Y-14015476D02*
X3491190Y-14005952D01*
X3481667Y-13986905D01*
X3481667Y-13815476D01*
X3615000Y-14015476D02*
X3595952Y-14005952D01*
X3586428Y-13986905D01*
X3586428Y-13815476D01*
X3843571Y-14015476D02*
X3843571Y-13815476D01*
X3910238Y-13958333D01*
X3976905Y-13815476D01*
X3976905Y-14015476D01*
X4157857Y-14015476D02*
X4157857Y-13910714D01*
X4148333Y-13891667D01*
X4129286Y-13882143D01*
X4091190Y-13882143D01*
X4072143Y-13891667D01*
X4157857Y-14005952D02*
X4138809Y-14015476D01*
X4091190Y-14015476D01*
X4072143Y-14005952D01*
X4062619Y-13986905D01*
X4062619Y-13967857D01*
X4072143Y-13948809D01*
X4091190Y-13939286D01*
X4138809Y-13939286D01*
X4157857Y-13929762D01*
X4253095Y-13882143D02*
X4253095Y-14082143D01*
X4253095Y-13891667D02*
X4272143Y-13882143D01*
X4310238Y-13882143D01*
X4329286Y-13891667D01*
X4338810Y-13901190D01*
X4348333Y-13920238D01*
X4348333Y-13977381D01*
X4338810Y-13996428D01*
X4329286Y-14005952D01*
X4310238Y-14015476D01*
X4272143Y-14015476D01*
X4253095Y-14005952D01*
X4434048Y-13996428D02*
X4443571Y-14005952D01*
X4434048Y-14015476D01*
X4424524Y-14005952D01*
X4434048Y-13996428D01*
X4434048Y-14015476D01*
X4434048Y-13891667D02*
X4443571Y-13901190D01*
X4434048Y-13910714D01*
X4424524Y-13901190D01*
X4434048Y-13891667D01*
X4434048Y-13910714D01*
D12*
X2775000Y-14330000D02*
X2805000Y-14360000D01*
X2805000Y-14330000D02*
X2775000Y-14360000D01*
D11*
X3100714Y-14235476D02*
X3119762Y-14235476D01*
X3138809Y-14245000D01*
X3148333Y-14254524D01*
X3157857Y-14273571D01*
X3167381Y-14311667D01*
X3167381Y-14359286D01*
X3157857Y-14397381D01*
X3148333Y-14416428D01*
X3138809Y-14425952D01*
X3119762Y-14435476D01*
X3100714Y-14435476D01*
X3081667Y-14425952D01*
X3072143Y-14416428D01*
X3062619Y-14397381D01*
X3053095Y-14359286D01*
X3053095Y-14311667D01*
X3062619Y-14273571D01*
X3072143Y-14254524D01*
X3081667Y-14245000D01*
X3100714Y-14235476D01*
X3253095Y-14416428D02*
X3262619Y-14425952D01*
X3253095Y-14435476D01*
X3243571Y-14425952D01*
X3253095Y-14416428D01*
X3253095Y-14435476D01*
X3329286Y-14235476D02*
X3453095Y-14235476D01*
X3386428Y-14311667D01*
X3415000Y-14311667D01*
X3434048Y-14321190D01*
X3443571Y-14330714D01*
X3453095Y-14349762D01*
X3453095Y-14397381D01*
X3443571Y-14416428D01*
X3434048Y-14425952D01*
X3415000Y-14435476D01*
X3357857Y-14435476D01*
X3338809Y-14425952D01*
X3329286Y-14416428D01*
X3576905Y-14235476D02*
X3595952Y-14235476D01*
X3615000Y-14245000D01*
X3624524Y-14254524D01*
X3634048Y-14273571D01*
X3643571Y-14311667D01*
X3643571Y-14359286D01*
X3634048Y-14397381D01*
X3624524Y-14416428D01*
X3615000Y-14425952D01*
X3595952Y-14435476D01*
X3576905Y-14435476D01*
X3557857Y-14425952D01*
X3548333Y-14416428D01*
X3538809Y-14397381D01*
X3529286Y-14359286D01*
X3529286Y-14311667D01*
X3538809Y-14273571D01*
X3548333Y-14254524D01*
X3557857Y-14245000D01*
X3576905Y-14235476D01*
X3767381Y-14235476D02*
X3786428Y-14235476D01*
X3805476Y-14245000D01*
X3815000Y-14254524D01*
X3824524Y-14273571D01*
X3834048Y-14311667D01*
X3834048Y-14359286D01*
X3824524Y-14397381D01*
X3815000Y-14416428D01*
X3805476Y-14425952D01*
X3786428Y-14435476D01*
X3767381Y-14435476D01*
X3748333Y-14425952D01*
X3738809Y-14416428D01*
X3729286Y-14397381D01*
X3719762Y-14359286D01*
X3719762Y-14311667D01*
X3729286Y-14273571D01*
X3738809Y-14254524D01*
X3748333Y-14245000D01*
X3767381Y-14235476D01*
X3919762Y-14435476D02*
X3919762Y-14302143D01*
X3919762Y-14321190D02*
X3929286Y-14311667D01*
X3948333Y-14302143D01*
X3976905Y-14302143D01*
X3995952Y-14311667D01*
X4005476Y-14330714D01*
X4005476Y-14435476D01*
X4005476Y-14330714D02*
X4015000Y-14311667D01*
X4034048Y-14302143D01*
X4062619Y-14302143D01*
X4081667Y-14311667D01*
X4091190Y-14330714D01*
X4091190Y-14435476D01*
X4186428Y-14435476D02*
X4186428Y-14302143D01*
X4186428Y-14321190D02*
X4195952Y-14311667D01*
X4215000Y-14302143D01*
X4243571Y-14302143D01*
X4262619Y-14311667D01*
X4272143Y-14330714D01*
X4272143Y-14435476D01*
X4272143Y-14330714D02*
X4281667Y-14311667D01*
X4300714Y-14302143D01*
X4329286Y-14302143D01*
X4348333Y-14311667D01*
X4357857Y-14330714D01*
X4357857Y-14435476D01*
X4748333Y-14225952D02*
X4576905Y-14483095D01*
X5005476Y-14235476D02*
X5024524Y-14235476D01*
X5043571Y-14245000D01*
X5053095Y-14254524D01*
X5062619Y-14273571D01*
X5072143Y-14311667D01*
X5072143Y-14359286D01*
X5062619Y-14397381D01*
X5053095Y-14416428D01*
X5043571Y-14425952D01*
X5024524Y-14435476D01*
X5005476Y-14435476D01*
X4986429Y-14425952D01*
X4976905Y-14416428D01*
X4967381Y-14397381D01*
X4957857Y-14359286D01*
X4957857Y-14311667D01*
X4967381Y-14273571D01*
X4976905Y-14254524D01*
X4986429Y-14245000D01*
X5005476Y-14235476D01*
X5157857Y-14416428D02*
X5167381Y-14425952D01*
X5157857Y-14435476D01*
X5148333Y-14425952D01*
X5157857Y-14416428D01*
X5157857Y-14435476D01*
X5291190Y-14235476D02*
X5310238Y-14235476D01*
X5329286Y-14245000D01*
X5338810Y-14254524D01*
X5348333Y-14273571D01*
X5357857Y-14311667D01*
X5357857Y-14359286D01*
X5348333Y-14397381D01*
X5338810Y-14416428D01*
X5329286Y-14425952D01*
X5310238Y-14435476D01*
X5291190Y-14435476D01*
X5272143Y-14425952D01*
X5262619Y-14416428D01*
X5253095Y-14397381D01*
X5243571Y-14359286D01*
X5243571Y-14311667D01*
X5253095Y-14273571D01*
X5262619Y-14254524D01*
X5272143Y-14245000D01*
X5291190Y-14235476D01*
X5548333Y-14435476D02*
X5434048Y-14435476D01*
X5491190Y-14435476D02*
X5491190Y-14235476D01*
X5472143Y-14264048D01*
X5453095Y-14283095D01*
X5434048Y-14292619D01*
X5738809Y-14435476D02*
X5624524Y-14435476D01*
X5681667Y-14435476D02*
X5681667Y-14235476D01*
X5662619Y-14264048D01*
X5643571Y-14283095D01*
X5624524Y-14292619D01*
X5853095Y-14321190D02*
X5834048Y-14311667D01*
X5824524Y-14302143D01*
X5815000Y-14283095D01*
X5815000Y-14273571D01*
X5824524Y-14254524D01*
X5834048Y-14245000D01*
X5853095Y-14235476D01*
X5891190Y-14235476D01*
X5910238Y-14245000D01*
X5919762Y-14254524D01*
X5929286Y-14273571D01*
X5929286Y-14283095D01*
X5919762Y-14302143D01*
X5910238Y-14311667D01*
X5891190Y-14321190D01*
X5853095Y-14321190D01*
X5834048Y-14330714D01*
X5824524Y-14340238D01*
X5815000Y-14359286D01*
X5815000Y-14397381D01*
X5824524Y-14416428D01*
X5834048Y-14425952D01*
X5853095Y-14435476D01*
X5891190Y-14435476D01*
X5910238Y-14425952D01*
X5919762Y-14416428D01*
X5929286Y-14397381D01*
X5929286Y-14359286D01*
X5919762Y-14340238D01*
X5910238Y-14330714D01*
X5891190Y-14321190D01*
X6005476Y-14235476D02*
X6005476Y-14273571D01*
X6081667Y-14235476D02*
X6081667Y-14273571D01*
X6376905Y-14511667D02*
X6367381Y-14502143D01*
X6348333Y-14473571D01*
X6338809Y-14454524D01*
X6329286Y-14425952D01*
X6319762Y-14378333D01*
X6319762Y-14340238D01*
X6329286Y-14292619D01*
X6338809Y-14264048D01*
X6348333Y-14245000D01*
X6367381Y-14216428D01*
X6376905Y-14206905D01*
X6557857Y-14435476D02*
X6443571Y-14435476D01*
X6500714Y-14435476D02*
X6500714Y-14235476D01*
X6481667Y-14264048D01*
X6462619Y-14283095D01*
X6443571Y-14292619D01*
X6624524Y-14235476D02*
X6748333Y-14235476D01*
X6681667Y-14311667D01*
X6710238Y-14311667D01*
X6729286Y-14321190D01*
X6738809Y-14330714D01*
X6748333Y-14349762D01*
X6748333Y-14397381D01*
X6738809Y-14416428D01*
X6729286Y-14425952D01*
X6710238Y-14435476D01*
X6653095Y-14435476D01*
X6634048Y-14425952D01*
X6624524Y-14416428D01*
X6843571Y-14435476D02*
X6881667Y-14435476D01*
X6900714Y-14425952D01*
X6910238Y-14416428D01*
X6929286Y-14387857D01*
X6938809Y-14349762D01*
X6938809Y-14273571D01*
X6929286Y-14254524D01*
X6919762Y-14245000D01*
X6900714Y-14235476D01*
X6862619Y-14235476D01*
X6843571Y-14245000D01*
X6834048Y-14254524D01*
X6824524Y-14273571D01*
X6824524Y-14321190D01*
X6834048Y-14340238D01*
X6843571Y-14349762D01*
X6862619Y-14359286D01*
X6900714Y-14359286D01*
X6919762Y-14349762D01*
X6929286Y-14340238D01*
X6938809Y-14321190D01*
X7176905Y-14435476D02*
X7176905Y-14235476D01*
X7262619Y-14435476D02*
X7262619Y-14330714D01*
X7253095Y-14311667D01*
X7234048Y-14302143D01*
X7205476Y-14302143D01*
X7186428Y-14311667D01*
X7176905Y-14321190D01*
X7386428Y-14435476D02*
X7367381Y-14425952D01*
X7357857Y-14416428D01*
X7348333Y-14397381D01*
X7348333Y-14340238D01*
X7357857Y-14321190D01*
X7367381Y-14311667D01*
X7386428Y-14302143D01*
X7415000Y-14302143D01*
X7434048Y-14311667D01*
X7443571Y-14321190D01*
X7453095Y-14340238D01*
X7453095Y-14397381D01*
X7443571Y-14416428D01*
X7434048Y-14425952D01*
X7415000Y-14435476D01*
X7386428Y-14435476D01*
X7567381Y-14435476D02*
X7548333Y-14425952D01*
X7538809Y-14406905D01*
X7538809Y-14235476D01*
X7719762Y-14425952D02*
X7700714Y-14435476D01*
X7662619Y-14435476D01*
X7643571Y-14425952D01*
X7634048Y-14406905D01*
X7634048Y-14330714D01*
X7643571Y-14311667D01*
X7662619Y-14302143D01*
X7700714Y-14302143D01*
X7719762Y-14311667D01*
X7729286Y-14330714D01*
X7729286Y-14349762D01*
X7634048Y-14368809D01*
X7805476Y-14425952D02*
X7824524Y-14435476D01*
X7862619Y-14435476D01*
X7881667Y-14425952D01*
X7891190Y-14406905D01*
X7891190Y-14397381D01*
X7881667Y-14378333D01*
X7862619Y-14368809D01*
X7834048Y-14368809D01*
X7815000Y-14359286D01*
X7805476Y-14340238D01*
X7805476Y-14330714D01*
X7815000Y-14311667D01*
X7834048Y-14302143D01*
X7862619Y-14302143D01*
X7881667Y-14311667D01*
X7957857Y-14511667D02*
X7967381Y-14502143D01*
X7986428Y-14473571D01*
X7995952Y-14454524D01*
X8005476Y-14425952D01*
X8015000Y-14378333D01*
X8015000Y-14340238D01*
X8005476Y-14292619D01*
X7995952Y-14264048D01*
X7986428Y-14245000D01*
X7967381Y-14216428D01*
X7957857Y-14206905D01*
D13*
X2805000Y-14609000D02*
G75*
G03*
X2805000Y-14609000I-30000J0D01*
G01*
D11*
X3100714Y-14499476D02*
X3119762Y-14499476D01*
X3138809Y-14509000D01*
X3148333Y-14518524D01*
X3157857Y-14537571D01*
X3167381Y-14575667D01*
X3167381Y-14623286D01*
X3157857Y-14661381D01*
X3148333Y-14680428D01*
X3138809Y-14689952D01*
X3119762Y-14699476D01*
X3100714Y-14699476D01*
X3081667Y-14689952D01*
X3072143Y-14680428D01*
X3062619Y-14661381D01*
X3053095Y-14623286D01*
X3053095Y-14575667D01*
X3062619Y-14537571D01*
X3072143Y-14518524D01*
X3081667Y-14509000D01*
X3100714Y-14499476D01*
X3253095Y-14680428D02*
X3262619Y-14689952D01*
X3253095Y-14699476D01*
X3243571Y-14689952D01*
X3253095Y-14680428D01*
X3253095Y-14699476D01*
X3434048Y-14499476D02*
X3395952Y-14499476D01*
X3376905Y-14509000D01*
X3367381Y-14518524D01*
X3348333Y-14547095D01*
X3338809Y-14585190D01*
X3338809Y-14661381D01*
X3348333Y-14680428D01*
X3357857Y-14689952D01*
X3376905Y-14699476D01*
X3415000Y-14699476D01*
X3434048Y-14689952D01*
X3443571Y-14680428D01*
X3453095Y-14661381D01*
X3453095Y-14613762D01*
X3443571Y-14594714D01*
X3434048Y-14585190D01*
X3415000Y-14575667D01*
X3376905Y-14575667D01*
X3357857Y-14585190D01*
X3348333Y-14594714D01*
X3338809Y-14613762D01*
X3576905Y-14499476D02*
X3595952Y-14499476D01*
X3615000Y-14509000D01*
X3624524Y-14518524D01*
X3634048Y-14537571D01*
X3643571Y-14575667D01*
X3643571Y-14623286D01*
X3634048Y-14661381D01*
X3624524Y-14680428D01*
X3615000Y-14689952D01*
X3595952Y-14699476D01*
X3576905Y-14699476D01*
X3557857Y-14689952D01*
X3548333Y-14680428D01*
X3538809Y-14661381D01*
X3529286Y-14623286D01*
X3529286Y-14575667D01*
X3538809Y-14537571D01*
X3548333Y-14518524D01*
X3557857Y-14509000D01*
X3576905Y-14499476D01*
X3767381Y-14499476D02*
X3786428Y-14499476D01*
X3805476Y-14509000D01*
X3815000Y-14518524D01*
X3824524Y-14537571D01*
X3834048Y-14575667D01*
X3834048Y-14623286D01*
X3824524Y-14661381D01*
X3815000Y-14680428D01*
X3805476Y-14689952D01*
X3786428Y-14699476D01*
X3767381Y-14699476D01*
X3748333Y-14689952D01*
X3738809Y-14680428D01*
X3729286Y-14661381D01*
X3719762Y-14623286D01*
X3719762Y-14575667D01*
X3729286Y-14537571D01*
X3738809Y-14518524D01*
X3748333Y-14509000D01*
X3767381Y-14499476D01*
X3919762Y-14699476D02*
X3919762Y-14566143D01*
X3919762Y-14585190D02*
X3929286Y-14575667D01*
X3948333Y-14566143D01*
X3976905Y-14566143D01*
X3995952Y-14575667D01*
X4005476Y-14594714D01*
X4005476Y-14699476D01*
X4005476Y-14594714D02*
X4015000Y-14575667D01*
X4034048Y-14566143D01*
X4062619Y-14566143D01*
X4081667Y-14575667D01*
X4091190Y-14594714D01*
X4091190Y-14699476D01*
X4186428Y-14699476D02*
X4186428Y-14566143D01*
X4186428Y-14585190D02*
X4195952Y-14575667D01*
X4215000Y-14566143D01*
X4243571Y-14566143D01*
X4262619Y-14575667D01*
X4272143Y-14594714D01*
X4272143Y-14699476D01*
X4272143Y-14594714D02*
X4281667Y-14575667D01*
X4300714Y-14566143D01*
X4329286Y-14566143D01*
X4348333Y-14575667D01*
X4357857Y-14594714D01*
X4357857Y-14699476D01*
X4748333Y-14489952D02*
X4576905Y-14747095D01*
X5005476Y-14499476D02*
X5024524Y-14499476D01*
X5043571Y-14509000D01*
X5053095Y-14518524D01*
X5062619Y-14537571D01*
X5072143Y-14575667D01*
X5072143Y-14623286D01*
X5062619Y-14661381D01*
X5053095Y-14680428D01*
X5043571Y-14689952D01*
X5024524Y-14699476D01*
X5005476Y-14699476D01*
X4986429Y-14689952D01*
X4976905Y-14680428D01*
X4967381Y-14661381D01*
X4957857Y-14623286D01*
X4957857Y-14575667D01*
X4967381Y-14537571D01*
X4976905Y-14518524D01*
X4986429Y-14509000D01*
X5005476Y-14499476D01*
X5157857Y-14680428D02*
X5167381Y-14689952D01*
X5157857Y-14699476D01*
X5148333Y-14689952D01*
X5157857Y-14680428D01*
X5157857Y-14699476D01*
X5291190Y-14499476D02*
X5310238Y-14499476D01*
X5329286Y-14509000D01*
X5338810Y-14518524D01*
X5348333Y-14537571D01*
X5357857Y-14575667D01*
X5357857Y-14623286D01*
X5348333Y-14661381D01*
X5338810Y-14680428D01*
X5329286Y-14689952D01*
X5310238Y-14699476D01*
X5291190Y-14699476D01*
X5272143Y-14689952D01*
X5262619Y-14680428D01*
X5253095Y-14661381D01*
X5243571Y-14623286D01*
X5243571Y-14575667D01*
X5253095Y-14537571D01*
X5262619Y-14518524D01*
X5272143Y-14509000D01*
X5291190Y-14499476D01*
X5434048Y-14518524D02*
X5443571Y-14509000D01*
X5462619Y-14499476D01*
X5510238Y-14499476D01*
X5529286Y-14509000D01*
X5538810Y-14518524D01*
X5548333Y-14537571D01*
X5548333Y-14556619D01*
X5538810Y-14585190D01*
X5424524Y-14699476D01*
X5548333Y-14699476D01*
X5615000Y-14499476D02*
X5738809Y-14499476D01*
X5672143Y-14575667D01*
X5700714Y-14575667D01*
X5719762Y-14585190D01*
X5729286Y-14594714D01*
X5738809Y-14613762D01*
X5738809Y-14661381D01*
X5729286Y-14680428D01*
X5719762Y-14689952D01*
X5700714Y-14699476D01*
X5643571Y-14699476D01*
X5624524Y-14689952D01*
X5615000Y-14680428D01*
X5910238Y-14499476D02*
X5872143Y-14499476D01*
X5853095Y-14509000D01*
X5843571Y-14518524D01*
X5824524Y-14547095D01*
X5815000Y-14585190D01*
X5815000Y-14661381D01*
X5824524Y-14680428D01*
X5834048Y-14689952D01*
X5853095Y-14699476D01*
X5891190Y-14699476D01*
X5910238Y-14689952D01*
X5919762Y-14680428D01*
X5929286Y-14661381D01*
X5929286Y-14613762D01*
X5919762Y-14594714D01*
X5910238Y-14585190D01*
X5891190Y-14575667D01*
X5853095Y-14575667D01*
X5834048Y-14585190D01*
X5824524Y-14594714D01*
X5815000Y-14613762D01*
X6005476Y-14499476D02*
X6005476Y-14537571D01*
X6081667Y-14499476D02*
X6081667Y-14537571D01*
X6376905Y-14775667D02*
X6367381Y-14766143D01*
X6348333Y-14737571D01*
X6338809Y-14718524D01*
X6329286Y-14689952D01*
X6319762Y-14642333D01*
X6319762Y-14604238D01*
X6329286Y-14556619D01*
X6338809Y-14528048D01*
X6348333Y-14509000D01*
X6367381Y-14480428D01*
X6376905Y-14470905D01*
X6557857Y-14699476D02*
X6443571Y-14699476D01*
X6500714Y-14699476D02*
X6500714Y-14499476D01*
X6481667Y-14528048D01*
X6462619Y-14547095D01*
X6443571Y-14556619D01*
X6795952Y-14699476D02*
X6795952Y-14499476D01*
X6881667Y-14699476D02*
X6881667Y-14594714D01*
X6872143Y-14575667D01*
X6853095Y-14566143D01*
X6824524Y-14566143D01*
X6805476Y-14575667D01*
X6795952Y-14585190D01*
X7005476Y-14699476D02*
X6986428Y-14689952D01*
X6976905Y-14680428D01*
X6967381Y-14661381D01*
X6967381Y-14604238D01*
X6976905Y-14585190D01*
X6986428Y-14575667D01*
X7005476Y-14566143D01*
X7034048Y-14566143D01*
X7053095Y-14575667D01*
X7062619Y-14585190D01*
X7072143Y-14604238D01*
X7072143Y-14661381D01*
X7062619Y-14680428D01*
X7053095Y-14689952D01*
X7034048Y-14699476D01*
X7005476Y-14699476D01*
X7186428Y-14699476D02*
X7167381Y-14689952D01*
X7157857Y-14670905D01*
X7157857Y-14499476D01*
X7338809Y-14689952D02*
X7319762Y-14699476D01*
X7281667Y-14699476D01*
X7262619Y-14689952D01*
X7253095Y-14670905D01*
X7253095Y-14594714D01*
X7262619Y-14575667D01*
X7281667Y-14566143D01*
X7319762Y-14566143D01*
X7338809Y-14575667D01*
X7348333Y-14594714D01*
X7348333Y-14613762D01*
X7253095Y-14632809D01*
X7415000Y-14775667D02*
X7424524Y-14766143D01*
X7443571Y-14737571D01*
X7453095Y-14718524D01*
X7462619Y-14689952D01*
X7472143Y-14642333D01*
X7472143Y-14604238D01*
X7462619Y-14556619D01*
X7453095Y-14528048D01*
X7443571Y-14509000D01*
X7424524Y-14480428D01*
X7415000Y-14470905D01*
D10*
X2755000Y-14823000D02*
X2755000Y-14923000D01*
X2705000Y-14873000D02*
X2805000Y-14873000D01*
D11*
X3167381Y-14963476D02*
X3053095Y-14963476D01*
X3110238Y-14963476D02*
X3110238Y-14763476D01*
X3091190Y-14792048D01*
X3072143Y-14811095D01*
X3053095Y-14820619D01*
X3253095Y-14944428D02*
X3262619Y-14953952D01*
X3253095Y-14963476D01*
X3243571Y-14953952D01*
X3253095Y-14944428D01*
X3253095Y-14963476D01*
X3386428Y-14763476D02*
X3405476Y-14763476D01*
X3424524Y-14773000D01*
X3434048Y-14782524D01*
X3443571Y-14801571D01*
X3453095Y-14839667D01*
X3453095Y-14887286D01*
X3443571Y-14925381D01*
X3434048Y-14944428D01*
X3424524Y-14953952D01*
X3405476Y-14963476D01*
X3386428Y-14963476D01*
X3367381Y-14953952D01*
X3357857Y-14944428D01*
X3348333Y-14925381D01*
X3338809Y-14887286D01*
X3338809Y-14839667D01*
X3348333Y-14801571D01*
X3357857Y-14782524D01*
X3367381Y-14773000D01*
X3386428Y-14763476D01*
X3576905Y-14763476D02*
X3595952Y-14763476D01*
X3615000Y-14773000D01*
X3624524Y-14782524D01*
X3634048Y-14801571D01*
X3643571Y-14839667D01*
X3643571Y-14887286D01*
X3634048Y-14925381D01*
X3624524Y-14944428D01*
X3615000Y-14953952D01*
X3595952Y-14963476D01*
X3576905Y-14963476D01*
X3557857Y-14953952D01*
X3548333Y-14944428D01*
X3538809Y-14925381D01*
X3529286Y-14887286D01*
X3529286Y-14839667D01*
X3538809Y-14801571D01*
X3548333Y-14782524D01*
X3557857Y-14773000D01*
X3576905Y-14763476D01*
X3767381Y-14763476D02*
X3786428Y-14763476D01*
X3805476Y-14773000D01*
X3815000Y-14782524D01*
X3824524Y-14801571D01*
X3834048Y-14839667D01*
X3834048Y-14887286D01*
X3824524Y-14925381D01*
X3815000Y-14944428D01*
X3805476Y-14953952D01*
X3786428Y-14963476D01*
X3767381Y-14963476D01*
X3748333Y-14953952D01*
X3738809Y-14944428D01*
X3729286Y-14925381D01*
X3719762Y-14887286D01*
X3719762Y-14839667D01*
X3729286Y-14801571D01*
X3738809Y-14782524D01*
X3748333Y-14773000D01*
X3767381Y-14763476D01*
X3919762Y-14963476D02*
X3919762Y-14830143D01*
X3919762Y-14849190D02*
X3929286Y-14839667D01*
X3948333Y-14830143D01*
X3976905Y-14830143D01*
X3995952Y-14839667D01*
X4005476Y-14858714D01*
X4005476Y-14963476D01*
X4005476Y-14858714D02*
X4015000Y-14839667D01*
X4034048Y-14830143D01*
X4062619Y-14830143D01*
X4081667Y-14839667D01*
X4091190Y-14858714D01*
X4091190Y-14963476D01*
X4186428Y-14963476D02*
X4186428Y-14830143D01*
X4186428Y-14849190D02*
X4195952Y-14839667D01*
X4215000Y-14830143D01*
X4243571Y-14830143D01*
X4262619Y-14839667D01*
X4272143Y-14858714D01*
X4272143Y-14963476D01*
X4272143Y-14858714D02*
X4281667Y-14839667D01*
X4300714Y-14830143D01*
X4329286Y-14830143D01*
X4348333Y-14839667D01*
X4357857Y-14858714D01*
X4357857Y-14963476D01*
X4748333Y-14753952D02*
X4576905Y-15011095D01*
X5005476Y-14763476D02*
X5024524Y-14763476D01*
X5043571Y-14773000D01*
X5053095Y-14782524D01*
X5062619Y-14801571D01*
X5072143Y-14839667D01*
X5072143Y-14887286D01*
X5062619Y-14925381D01*
X5053095Y-14944428D01*
X5043571Y-14953952D01*
X5024524Y-14963476D01*
X5005476Y-14963476D01*
X4986429Y-14953952D01*
X4976905Y-14944428D01*
X4967381Y-14925381D01*
X4957857Y-14887286D01*
X4957857Y-14839667D01*
X4967381Y-14801571D01*
X4976905Y-14782524D01*
X4986429Y-14773000D01*
X5005476Y-14763476D01*
X5157857Y-14944428D02*
X5167381Y-14953952D01*
X5157857Y-14963476D01*
X5148333Y-14953952D01*
X5157857Y-14944428D01*
X5157857Y-14963476D01*
X5291190Y-14763476D02*
X5310238Y-14763476D01*
X5329286Y-14773000D01*
X5338810Y-14782524D01*
X5348333Y-14801571D01*
X5357857Y-14839667D01*
X5357857Y-14887286D01*
X5348333Y-14925381D01*
X5338810Y-14944428D01*
X5329286Y-14953952D01*
X5310238Y-14963476D01*
X5291190Y-14963476D01*
X5272143Y-14953952D01*
X5262619Y-14944428D01*
X5253095Y-14925381D01*
X5243571Y-14887286D01*
X5243571Y-14839667D01*
X5253095Y-14801571D01*
X5262619Y-14782524D01*
X5272143Y-14773000D01*
X5291190Y-14763476D01*
X5424524Y-14763476D02*
X5548333Y-14763476D01*
X5481667Y-14839667D01*
X5510238Y-14839667D01*
X5529286Y-14849190D01*
X5538810Y-14858714D01*
X5548333Y-14877762D01*
X5548333Y-14925381D01*
X5538810Y-14944428D01*
X5529286Y-14953952D01*
X5510238Y-14963476D01*
X5453095Y-14963476D01*
X5434048Y-14953952D01*
X5424524Y-14944428D01*
X5643571Y-14963476D02*
X5681667Y-14963476D01*
X5700714Y-14953952D01*
X5710238Y-14944428D01*
X5729286Y-14915857D01*
X5738809Y-14877762D01*
X5738809Y-14801571D01*
X5729286Y-14782524D01*
X5719762Y-14773000D01*
X5700714Y-14763476D01*
X5662619Y-14763476D01*
X5643571Y-14773000D01*
X5634048Y-14782524D01*
X5624524Y-14801571D01*
X5624524Y-14849190D01*
X5634048Y-14868238D01*
X5643571Y-14877762D01*
X5662619Y-14887286D01*
X5700714Y-14887286D01*
X5719762Y-14877762D01*
X5729286Y-14868238D01*
X5738809Y-14849190D01*
X5910238Y-14830143D02*
X5910238Y-14963476D01*
X5862619Y-14753952D02*
X5815000Y-14896809D01*
X5938809Y-14896809D01*
X6005476Y-14763476D02*
X6005476Y-14801571D01*
X6081667Y-14763476D02*
X6081667Y-14801571D01*
X6376905Y-15039667D02*
X6367381Y-15030143D01*
X6348333Y-15001571D01*
X6338809Y-14982524D01*
X6329286Y-14953952D01*
X6319762Y-14906333D01*
X6319762Y-14868238D01*
X6329286Y-14820619D01*
X6338809Y-14792048D01*
X6348333Y-14773000D01*
X6367381Y-14744428D01*
X6376905Y-14734905D01*
X6434048Y-14763476D02*
X6567381Y-14763476D01*
X6481667Y-14963476D01*
X6729286Y-14763476D02*
X6691190Y-14763476D01*
X6672143Y-14773000D01*
X6662619Y-14782524D01*
X6643571Y-14811095D01*
X6634048Y-14849190D01*
X6634048Y-14925381D01*
X6643571Y-14944428D01*
X6653095Y-14953952D01*
X6672143Y-14963476D01*
X6710238Y-14963476D01*
X6729286Y-14953952D01*
X6738809Y-14944428D01*
X6748333Y-14925381D01*
X6748333Y-14877762D01*
X6738809Y-14858714D01*
X6729286Y-14849190D01*
X6710238Y-14839667D01*
X6672143Y-14839667D01*
X6653095Y-14849190D01*
X6643571Y-14858714D01*
X6634048Y-14877762D01*
X6986428Y-14963476D02*
X6986428Y-14763476D01*
X7072143Y-14963476D02*
X7072143Y-14858714D01*
X7062619Y-14839667D01*
X7043571Y-14830143D01*
X7015000Y-14830143D01*
X6995952Y-14839667D01*
X6986428Y-14849190D01*
X7195952Y-14963476D02*
X7176905Y-14953952D01*
X7167381Y-14944428D01*
X7157857Y-14925381D01*
X7157857Y-14868238D01*
X7167381Y-14849190D01*
X7176905Y-14839667D01*
X7195952Y-14830143D01*
X7224524Y-14830143D01*
X7243571Y-14839667D01*
X7253095Y-14849190D01*
X7262619Y-14868238D01*
X7262619Y-14925381D01*
X7253095Y-14944428D01*
X7243571Y-14953952D01*
X7224524Y-14963476D01*
X7195952Y-14963476D01*
X7376905Y-14963476D02*
X7357857Y-14953952D01*
X7348333Y-14934905D01*
X7348333Y-14763476D01*
X7529286Y-14953952D02*
X7510238Y-14963476D01*
X7472143Y-14963476D01*
X7453095Y-14953952D01*
X7443571Y-14934905D01*
X7443571Y-14858714D01*
X7453095Y-14839667D01*
X7472143Y-14830143D01*
X7510238Y-14830143D01*
X7529286Y-14839667D01*
X7538809Y-14858714D01*
X7538809Y-14877762D01*
X7443571Y-14896809D01*
X7615000Y-14953952D02*
X7634048Y-14963476D01*
X7672143Y-14963476D01*
X7691190Y-14953952D01*
X7700714Y-14934905D01*
X7700714Y-14925381D01*
X7691190Y-14906333D01*
X7672143Y-14896809D01*
X7643571Y-14896809D01*
X7624524Y-14887286D01*
X7615000Y-14868238D01*
X7615000Y-14858714D01*
X7624524Y-14839667D01*
X7643571Y-14830143D01*
X7672143Y-14830143D01*
X7691190Y-14839667D01*
X7767381Y-15039667D02*
X7776905Y-15030143D01*
X7795952Y-15001571D01*
X7805476Y-14982524D01*
X7815000Y-14953952D01*
X7824524Y-14906333D01*
X7824524Y-14868238D01*
X7815000Y-14820619D01*
X7805476Y-14792048D01*
X7795952Y-14773000D01*
X7776905Y-14744428D01*
X7767381Y-14734905D01*
D14*
X2788891Y-15175891D02*
X2788891Y-15098109D01*
X2711109Y-15098109D01*
X2711109Y-15175891D01*
X2788891Y-15175891D01*
D11*
X3167381Y-15227476D02*
X3053095Y-15227476D01*
X3110238Y-15227476D02*
X3110238Y-15027476D01*
X3091190Y-15056048D01*
X3072143Y-15075095D01*
X3053095Y-15084619D01*
X3253095Y-15208428D02*
X3262619Y-15217952D01*
X3253095Y-15227476D01*
X3243571Y-15217952D01*
X3253095Y-15208428D01*
X3253095Y-15227476D01*
X3453095Y-15227476D02*
X3338809Y-15227476D01*
X3395952Y-15227476D02*
X3395952Y-15027476D01*
X3376905Y-15056048D01*
X3357857Y-15075095D01*
X3338809Y-15084619D01*
X3576905Y-15027476D02*
X3595952Y-15027476D01*
X3615000Y-15037000D01*
X3624524Y-15046524D01*
X3634048Y-15065571D01*
X3643571Y-15103667D01*
X3643571Y-15151286D01*
X3634048Y-15189381D01*
X3624524Y-15208428D01*
X3615000Y-15217952D01*
X3595952Y-15227476D01*
X3576905Y-15227476D01*
X3557857Y-15217952D01*
X3548333Y-15208428D01*
X3538809Y-15189381D01*
X3529286Y-15151286D01*
X3529286Y-15103667D01*
X3538809Y-15065571D01*
X3548333Y-15046524D01*
X3557857Y-15037000D01*
X3576905Y-15027476D01*
X3767381Y-15027476D02*
X3786428Y-15027476D01*
X3805476Y-15037000D01*
X3815000Y-15046524D01*
X3824524Y-15065571D01*
X3834048Y-15103667D01*
X3834048Y-15151286D01*
X3824524Y-15189381D01*
X3815000Y-15208428D01*
X3805476Y-15217952D01*
X3786428Y-15227476D01*
X3767381Y-15227476D01*
X3748333Y-15217952D01*
X3738809Y-15208428D01*
X3729286Y-15189381D01*
X3719762Y-15151286D01*
X3719762Y-15103667D01*
X3729286Y-15065571D01*
X3738809Y-15046524D01*
X3748333Y-15037000D01*
X3767381Y-15027476D01*
X3919762Y-15227476D02*
X3919762Y-15094143D01*
X3919762Y-15113190D02*
X3929286Y-15103667D01*
X3948333Y-15094143D01*
X3976905Y-15094143D01*
X3995952Y-15103667D01*
X4005476Y-15122714D01*
X4005476Y-15227476D01*
X4005476Y-15122714D02*
X4015000Y-15103667D01*
X4034048Y-15094143D01*
X4062619Y-15094143D01*
X4081667Y-15103667D01*
X4091190Y-15122714D01*
X4091190Y-15227476D01*
X4186428Y-15227476D02*
X4186428Y-15094143D01*
X4186428Y-15113190D02*
X4195952Y-15103667D01*
X4215000Y-15094143D01*
X4243571Y-15094143D01*
X4262619Y-15103667D01*
X4272143Y-15122714D01*
X4272143Y-15227476D01*
X4272143Y-15122714D02*
X4281667Y-15103667D01*
X4300714Y-15094143D01*
X4329286Y-15094143D01*
X4348333Y-15103667D01*
X4357857Y-15122714D01*
X4357857Y-15227476D01*
X4748333Y-15017952D02*
X4576905Y-15275095D01*
X5005476Y-15027476D02*
X5024524Y-15027476D01*
X5043571Y-15037000D01*
X5053095Y-15046524D01*
X5062619Y-15065571D01*
X5072143Y-15103667D01*
X5072143Y-15151286D01*
X5062619Y-15189381D01*
X5053095Y-15208428D01*
X5043571Y-15217952D01*
X5024524Y-15227476D01*
X5005476Y-15227476D01*
X4986429Y-15217952D01*
X4976905Y-15208428D01*
X4967381Y-15189381D01*
X4957857Y-15151286D01*
X4957857Y-15103667D01*
X4967381Y-15065571D01*
X4976905Y-15046524D01*
X4986429Y-15037000D01*
X5005476Y-15027476D01*
X5157857Y-15208428D02*
X5167381Y-15217952D01*
X5157857Y-15227476D01*
X5148333Y-15217952D01*
X5157857Y-15208428D01*
X5157857Y-15227476D01*
X5291190Y-15027476D02*
X5310238Y-15027476D01*
X5329286Y-15037000D01*
X5338810Y-15046524D01*
X5348333Y-15065571D01*
X5357857Y-15103667D01*
X5357857Y-15151286D01*
X5348333Y-15189381D01*
X5338810Y-15208428D01*
X5329286Y-15217952D01*
X5310238Y-15227476D01*
X5291190Y-15227476D01*
X5272143Y-15217952D01*
X5262619Y-15208428D01*
X5253095Y-15189381D01*
X5243571Y-15151286D01*
X5243571Y-15103667D01*
X5253095Y-15065571D01*
X5262619Y-15046524D01*
X5272143Y-15037000D01*
X5291190Y-15027476D01*
X5529286Y-15094143D02*
X5529286Y-15227476D01*
X5481667Y-15017952D02*
X5434048Y-15160809D01*
X5557857Y-15160809D01*
X5615000Y-15027476D02*
X5738809Y-15027476D01*
X5672143Y-15103667D01*
X5700714Y-15103667D01*
X5719762Y-15113190D01*
X5729286Y-15122714D01*
X5738809Y-15141762D01*
X5738809Y-15189381D01*
X5729286Y-15208428D01*
X5719762Y-15217952D01*
X5700714Y-15227476D01*
X5643571Y-15227476D01*
X5624524Y-15217952D01*
X5615000Y-15208428D01*
X5805476Y-15027476D02*
X5929286Y-15027476D01*
X5862619Y-15103667D01*
X5891190Y-15103667D01*
X5910238Y-15113190D01*
X5919762Y-15122714D01*
X5929286Y-15141762D01*
X5929286Y-15189381D01*
X5919762Y-15208428D01*
X5910238Y-15217952D01*
X5891190Y-15227476D01*
X5834048Y-15227476D01*
X5815000Y-15217952D01*
X5805476Y-15208428D01*
X6005476Y-15027476D02*
X6005476Y-15065571D01*
X6081667Y-15027476D02*
X6081667Y-15065571D01*
X6376905Y-15303667D02*
X6367381Y-15294143D01*
X6348333Y-15265571D01*
X6338809Y-15246524D01*
X6329286Y-15217952D01*
X6319762Y-15170333D01*
X6319762Y-15132238D01*
X6329286Y-15084619D01*
X6338809Y-15056048D01*
X6348333Y-15037000D01*
X6367381Y-15008428D01*
X6376905Y-14998905D01*
X6443571Y-15046524D02*
X6453095Y-15037000D01*
X6472143Y-15027476D01*
X6519762Y-15027476D01*
X6538809Y-15037000D01*
X6548333Y-15046524D01*
X6557857Y-15065571D01*
X6557857Y-15084619D01*
X6548333Y-15113190D01*
X6434048Y-15227476D01*
X6557857Y-15227476D01*
X6795952Y-15227476D02*
X6795952Y-15027476D01*
X6881667Y-15227476D02*
X6881667Y-15122714D01*
X6872143Y-15103667D01*
X6853095Y-15094143D01*
X6824524Y-15094143D01*
X6805476Y-15103667D01*
X6795952Y-15113190D01*
X7005476Y-15227476D02*
X6986428Y-15217952D01*
X6976905Y-15208428D01*
X6967381Y-15189381D01*
X6967381Y-15132238D01*
X6976905Y-15113190D01*
X6986428Y-15103667D01*
X7005476Y-15094143D01*
X7034048Y-15094143D01*
X7053095Y-15103667D01*
X7062619Y-15113190D01*
X7072143Y-15132238D01*
X7072143Y-15189381D01*
X7062619Y-15208428D01*
X7053095Y-15217952D01*
X7034048Y-15227476D01*
X7005476Y-15227476D01*
X7186428Y-15227476D02*
X7167381Y-15217952D01*
X7157857Y-15198905D01*
X7157857Y-15027476D01*
X7338809Y-15217952D02*
X7319762Y-15227476D01*
X7281667Y-15227476D01*
X7262619Y-15217952D01*
X7253095Y-15198905D01*
X7253095Y-15122714D01*
X7262619Y-15103667D01*
X7281667Y-15094143D01*
X7319762Y-15094143D01*
X7338809Y-15103667D01*
X7348333Y-15122714D01*
X7348333Y-15141762D01*
X7253095Y-15160809D01*
X7424524Y-15217952D02*
X7443571Y-15227476D01*
X7481667Y-15227476D01*
X7500714Y-15217952D01*
X7510238Y-15198905D01*
X7510238Y-15189381D01*
X7500714Y-15170333D01*
X7481667Y-15160809D01*
X7453095Y-15160809D01*
X7434048Y-15151286D01*
X7424524Y-15132238D01*
X7424524Y-15122714D01*
X7434048Y-15103667D01*
X7453095Y-15094143D01*
X7481667Y-15094143D01*
X7500714Y-15103667D01*
X7576905Y-15303667D02*
X7586428Y-15294143D01*
X7605476Y-15265571D01*
X7615000Y-15246524D01*
X7624524Y-15217952D01*
X7634048Y-15170333D01*
X7634048Y-15132238D01*
X7624524Y-15084619D01*
X7615000Y-15056048D01*
X7605476Y-15037000D01*
X7586428Y-15008428D01*
X7576905Y-14998905D01*
D15*
X2745000Y-15461000D02*
X2805000Y-15401000D01*
X2745000Y-15341000D01*
X2685000Y-15401000D01*
X2745000Y-15461000D01*
D11*
X3167381Y-15491476D02*
X3053095Y-15491476D01*
X3110238Y-15491476D02*
X3110238Y-15291476D01*
X3091190Y-15320048D01*
X3072143Y-15339095D01*
X3053095Y-15348619D01*
X3253095Y-15472428D02*
X3262619Y-15481952D01*
X3253095Y-15491476D01*
X3243571Y-15481952D01*
X3253095Y-15472428D01*
X3253095Y-15491476D01*
X3338809Y-15310524D02*
X3348333Y-15301000D01*
X3367381Y-15291476D01*
X3415000Y-15291476D01*
X3434048Y-15301000D01*
X3443571Y-15310524D01*
X3453095Y-15329571D01*
X3453095Y-15348619D01*
X3443571Y-15377190D01*
X3329286Y-15491476D01*
X3453095Y-15491476D01*
X3576905Y-15291476D02*
X3595952Y-15291476D01*
X3615000Y-15301000D01*
X3624524Y-15310524D01*
X3634048Y-15329571D01*
X3643571Y-15367667D01*
X3643571Y-15415286D01*
X3634048Y-15453381D01*
X3624524Y-15472428D01*
X3615000Y-15481952D01*
X3595952Y-15491476D01*
X3576905Y-15491476D01*
X3557857Y-15481952D01*
X3548333Y-15472428D01*
X3538809Y-15453381D01*
X3529286Y-15415286D01*
X3529286Y-15367667D01*
X3538809Y-15329571D01*
X3548333Y-15310524D01*
X3557857Y-15301000D01*
X3576905Y-15291476D01*
X3767381Y-15291476D02*
X3786428Y-15291476D01*
X3805476Y-15301000D01*
X3815000Y-15310524D01*
X3824524Y-15329571D01*
X3834048Y-15367667D01*
X3834048Y-15415286D01*
X3824524Y-15453381D01*
X3815000Y-15472428D01*
X3805476Y-15481952D01*
X3786428Y-15491476D01*
X3767381Y-15491476D01*
X3748333Y-15481952D01*
X3738809Y-15472428D01*
X3729286Y-15453381D01*
X3719762Y-15415286D01*
X3719762Y-15367667D01*
X3729286Y-15329571D01*
X3738809Y-15310524D01*
X3748333Y-15301000D01*
X3767381Y-15291476D01*
X3919762Y-15491476D02*
X3919762Y-15358143D01*
X3919762Y-15377190D02*
X3929286Y-15367667D01*
X3948333Y-15358143D01*
X3976905Y-15358143D01*
X3995952Y-15367667D01*
X4005476Y-15386714D01*
X4005476Y-15491476D01*
X4005476Y-15386714D02*
X4015000Y-15367667D01*
X4034048Y-15358143D01*
X4062619Y-15358143D01*
X4081667Y-15367667D01*
X4091190Y-15386714D01*
X4091190Y-15491476D01*
X4186428Y-15491476D02*
X4186428Y-15358143D01*
X4186428Y-15377190D02*
X4195952Y-15367667D01*
X4215000Y-15358143D01*
X4243571Y-15358143D01*
X4262619Y-15367667D01*
X4272143Y-15386714D01*
X4272143Y-15491476D01*
X4272143Y-15386714D02*
X4281667Y-15367667D01*
X4300714Y-15358143D01*
X4329286Y-15358143D01*
X4348333Y-15367667D01*
X4357857Y-15386714D01*
X4357857Y-15491476D01*
X4748333Y-15281952D02*
X4576905Y-15539095D01*
X5005476Y-15291476D02*
X5024524Y-15291476D01*
X5043571Y-15301000D01*
X5053095Y-15310524D01*
X5062619Y-15329571D01*
X5072143Y-15367667D01*
X5072143Y-15415286D01*
X5062619Y-15453381D01*
X5053095Y-15472428D01*
X5043571Y-15481952D01*
X5024524Y-15491476D01*
X5005476Y-15491476D01*
X4986429Y-15481952D01*
X4976905Y-15472428D01*
X4967381Y-15453381D01*
X4957857Y-15415286D01*
X4957857Y-15367667D01*
X4967381Y-15329571D01*
X4976905Y-15310524D01*
X4986429Y-15301000D01*
X5005476Y-15291476D01*
X5157857Y-15472428D02*
X5167381Y-15481952D01*
X5157857Y-15491476D01*
X5148333Y-15481952D01*
X5157857Y-15472428D01*
X5157857Y-15491476D01*
X5291190Y-15291476D02*
X5310238Y-15291476D01*
X5329286Y-15301000D01*
X5338810Y-15310524D01*
X5348333Y-15329571D01*
X5357857Y-15367667D01*
X5357857Y-15415286D01*
X5348333Y-15453381D01*
X5338810Y-15472428D01*
X5329286Y-15481952D01*
X5310238Y-15491476D01*
X5291190Y-15491476D01*
X5272143Y-15481952D01*
X5262619Y-15472428D01*
X5253095Y-15453381D01*
X5243571Y-15415286D01*
X5243571Y-15367667D01*
X5253095Y-15329571D01*
X5262619Y-15310524D01*
X5272143Y-15301000D01*
X5291190Y-15291476D01*
X5529286Y-15358143D02*
X5529286Y-15491476D01*
X5481667Y-15281952D02*
X5434048Y-15424809D01*
X5557857Y-15424809D01*
X5615000Y-15291476D02*
X5748333Y-15291476D01*
X5662619Y-15491476D01*
X5815000Y-15310524D02*
X5824524Y-15301000D01*
X5843571Y-15291476D01*
X5891190Y-15291476D01*
X5910238Y-15301000D01*
X5919762Y-15310524D01*
X5929286Y-15329571D01*
X5929286Y-15348619D01*
X5919762Y-15377190D01*
X5805476Y-15491476D01*
X5929286Y-15491476D01*
X6005476Y-15291476D02*
X6005476Y-15329571D01*
X6081667Y-15291476D02*
X6081667Y-15329571D01*
X6376905Y-15567667D02*
X6367381Y-15558143D01*
X6348333Y-15529571D01*
X6338809Y-15510524D01*
X6329286Y-15481952D01*
X6319762Y-15434333D01*
X6319762Y-15396238D01*
X6329286Y-15348619D01*
X6338809Y-15320048D01*
X6348333Y-15301000D01*
X6367381Y-15272428D01*
X6376905Y-15262905D01*
X6443571Y-15310524D02*
X6453095Y-15301000D01*
X6472143Y-15291476D01*
X6519762Y-15291476D01*
X6538809Y-15301000D01*
X6548333Y-15310524D01*
X6557857Y-15329571D01*
X6557857Y-15348619D01*
X6548333Y-15377190D01*
X6434048Y-15491476D01*
X6557857Y-15491476D01*
X6795952Y-15491476D02*
X6795952Y-15291476D01*
X6881667Y-15491476D02*
X6881667Y-15386714D01*
X6872143Y-15367667D01*
X6853095Y-15358143D01*
X6824524Y-15358143D01*
X6805476Y-15367667D01*
X6795952Y-15377190D01*
X7005476Y-15491476D02*
X6986428Y-15481952D01*
X6976905Y-15472428D01*
X6967381Y-15453381D01*
X6967381Y-15396238D01*
X6976905Y-15377190D01*
X6986428Y-15367667D01*
X7005476Y-15358143D01*
X7034048Y-15358143D01*
X7053095Y-15367667D01*
X7062619Y-15377190D01*
X7072143Y-15396238D01*
X7072143Y-15453381D01*
X7062619Y-15472428D01*
X7053095Y-15481952D01*
X7034048Y-15491476D01*
X7005476Y-15491476D01*
X7186428Y-15491476D02*
X7167381Y-15481952D01*
X7157857Y-15462905D01*
X7157857Y-15291476D01*
X7338809Y-15481952D02*
X7319762Y-15491476D01*
X7281667Y-15491476D01*
X7262619Y-15481952D01*
X7253095Y-15462905D01*
X7253095Y-15386714D01*
X7262619Y-15367667D01*
X7281667Y-15358143D01*
X7319762Y-15358143D01*
X7338809Y-15367667D01*
X7348333Y-15386714D01*
X7348333Y-15405762D01*
X7253095Y-15424809D01*
X7424524Y-15481952D02*
X7443571Y-15491476D01*
X7481667Y-15491476D01*
X7500714Y-15481952D01*
X7510238Y-15462905D01*
X7510238Y-15453381D01*
X7500714Y-15434333D01*
X7481667Y-15424809D01*
X7453095Y-15424809D01*
X7434048Y-15415286D01*
X7424524Y-15396238D01*
X7424524Y-15386714D01*
X7434048Y-15367667D01*
X7453095Y-15358143D01*
X7481667Y-15358143D01*
X7500714Y-15367667D01*
X7576905Y-15567667D02*
X7586428Y-15558143D01*
X7605476Y-15529571D01*
X7615000Y-15510524D01*
X7624524Y-15481952D01*
X7634048Y-15434333D01*
X7634048Y-15396238D01*
X7624524Y-15348619D01*
X7615000Y-15320048D01*
X7605476Y-15301000D01*
X7586428Y-15272428D01*
X7576905Y-15262905D01*
D16*
X2645000Y-15585000D02*
X2805000Y-15745000D01*
X2805000Y-15585000D02*
X2645000Y-15745000D01*
X2805000Y-15665000D02*
G75*
G03*
X2805000Y-15665000I-80000J0D01*
G01*
D11*
X3167381Y-15755476D02*
X3053095Y-15755476D01*
X3110238Y-15755476D02*
X3110238Y-15555476D01*
X3091190Y-15584048D01*
X3072143Y-15603095D01*
X3053095Y-15612619D01*
X3253095Y-15736428D02*
X3262619Y-15745952D01*
X3253095Y-15755476D01*
X3243571Y-15745952D01*
X3253095Y-15736428D01*
X3253095Y-15755476D01*
X3434048Y-15555476D02*
X3395952Y-15555476D01*
X3376905Y-15565000D01*
X3367381Y-15574524D01*
X3348333Y-15603095D01*
X3338809Y-15641190D01*
X3338809Y-15717381D01*
X3348333Y-15736428D01*
X3357857Y-15745952D01*
X3376905Y-15755476D01*
X3415000Y-15755476D01*
X3434048Y-15745952D01*
X3443571Y-15736428D01*
X3453095Y-15717381D01*
X3453095Y-15669762D01*
X3443571Y-15650714D01*
X3434048Y-15641190D01*
X3415000Y-15631667D01*
X3376905Y-15631667D01*
X3357857Y-15641190D01*
X3348333Y-15650714D01*
X3338809Y-15669762D01*
X3576905Y-15555476D02*
X3595952Y-15555476D01*
X3615000Y-15565000D01*
X3624524Y-15574524D01*
X3634048Y-15593571D01*
X3643571Y-15631667D01*
X3643571Y-15679286D01*
X3634048Y-15717381D01*
X3624524Y-15736428D01*
X3615000Y-15745952D01*
X3595952Y-15755476D01*
X3576905Y-15755476D01*
X3557857Y-15745952D01*
X3548333Y-15736428D01*
X3538809Y-15717381D01*
X3529286Y-15679286D01*
X3529286Y-15631667D01*
X3538809Y-15593571D01*
X3548333Y-15574524D01*
X3557857Y-15565000D01*
X3576905Y-15555476D01*
X3767381Y-15555476D02*
X3786428Y-15555476D01*
X3805476Y-15565000D01*
X3815000Y-15574524D01*
X3824524Y-15593571D01*
X3834048Y-15631667D01*
X3834048Y-15679286D01*
X3824524Y-15717381D01*
X3815000Y-15736428D01*
X3805476Y-15745952D01*
X3786428Y-15755476D01*
X3767381Y-15755476D01*
X3748333Y-15745952D01*
X3738809Y-15736428D01*
X3729286Y-15717381D01*
X3719762Y-15679286D01*
X3719762Y-15631667D01*
X3729286Y-15593571D01*
X3738809Y-15574524D01*
X3748333Y-15565000D01*
X3767381Y-15555476D01*
X3919762Y-15755476D02*
X3919762Y-15622143D01*
X3919762Y-15641190D02*
X3929286Y-15631667D01*
X3948333Y-15622143D01*
X3976905Y-15622143D01*
X3995952Y-15631667D01*
X4005476Y-15650714D01*
X4005476Y-15755476D01*
X4005476Y-15650714D02*
X4015000Y-15631667D01*
X4034048Y-15622143D01*
X4062619Y-15622143D01*
X4081667Y-15631667D01*
X4091190Y-15650714D01*
X4091190Y-15755476D01*
X4186428Y-15755476D02*
X4186428Y-15622143D01*
X4186428Y-15641190D02*
X4195952Y-15631667D01*
X4215000Y-15622143D01*
X4243571Y-15622143D01*
X4262619Y-15631667D01*
X4272143Y-15650714D01*
X4272143Y-15755476D01*
X4272143Y-15650714D02*
X4281667Y-15631667D01*
X4300714Y-15622143D01*
X4329286Y-15622143D01*
X4348333Y-15631667D01*
X4357857Y-15650714D01*
X4357857Y-15755476D01*
X4748333Y-15545952D02*
X4576905Y-15803095D01*
X5005476Y-15555476D02*
X5024524Y-15555476D01*
X5043571Y-15565000D01*
X5053095Y-15574524D01*
X5062619Y-15593571D01*
X5072143Y-15631667D01*
X5072143Y-15679286D01*
X5062619Y-15717381D01*
X5053095Y-15736428D01*
X5043571Y-15745952D01*
X5024524Y-15755476D01*
X5005476Y-15755476D01*
X4986429Y-15745952D01*
X4976905Y-15736428D01*
X4967381Y-15717381D01*
X4957857Y-15679286D01*
X4957857Y-15631667D01*
X4967381Y-15593571D01*
X4976905Y-15574524D01*
X4986429Y-15565000D01*
X5005476Y-15555476D01*
X5157857Y-15736428D02*
X5167381Y-15745952D01*
X5157857Y-15755476D01*
X5148333Y-15745952D01*
X5157857Y-15736428D01*
X5157857Y-15755476D01*
X5291190Y-15555476D02*
X5310238Y-15555476D01*
X5329286Y-15565000D01*
X5338810Y-15574524D01*
X5348333Y-15593571D01*
X5357857Y-15631667D01*
X5357857Y-15679286D01*
X5348333Y-15717381D01*
X5338810Y-15736428D01*
X5329286Y-15745952D01*
X5310238Y-15755476D01*
X5291190Y-15755476D01*
X5272143Y-15745952D01*
X5262619Y-15736428D01*
X5253095Y-15717381D01*
X5243571Y-15679286D01*
X5243571Y-15631667D01*
X5253095Y-15593571D01*
X5262619Y-15574524D01*
X5272143Y-15565000D01*
X5291190Y-15555476D01*
X5529286Y-15555476D02*
X5491190Y-15555476D01*
X5472143Y-15565000D01*
X5462619Y-15574524D01*
X5443571Y-15603095D01*
X5434048Y-15641190D01*
X5434048Y-15717381D01*
X5443571Y-15736428D01*
X5453095Y-15745952D01*
X5472143Y-15755476D01*
X5510238Y-15755476D01*
X5529286Y-15745952D01*
X5538810Y-15736428D01*
X5548333Y-15717381D01*
X5548333Y-15669762D01*
X5538810Y-15650714D01*
X5529286Y-15641190D01*
X5510238Y-15631667D01*
X5472143Y-15631667D01*
X5453095Y-15641190D01*
X5443571Y-15650714D01*
X5434048Y-15669762D01*
X5615000Y-15555476D02*
X5738809Y-15555476D01*
X5672143Y-15631667D01*
X5700714Y-15631667D01*
X5719762Y-15641190D01*
X5729286Y-15650714D01*
X5738809Y-15669762D01*
X5738809Y-15717381D01*
X5729286Y-15736428D01*
X5719762Y-15745952D01*
X5700714Y-15755476D01*
X5643571Y-15755476D01*
X5624524Y-15745952D01*
X5615000Y-15736428D01*
X5862619Y-15555476D02*
X5881667Y-15555476D01*
X5900714Y-15565000D01*
X5910238Y-15574524D01*
X5919762Y-15593571D01*
X5929286Y-15631667D01*
X5929286Y-15679286D01*
X5919762Y-15717381D01*
X5910238Y-15736428D01*
X5900714Y-15745952D01*
X5881667Y-15755476D01*
X5862619Y-15755476D01*
X5843571Y-15745952D01*
X5834048Y-15736428D01*
X5824524Y-15717381D01*
X5815000Y-15679286D01*
X5815000Y-15631667D01*
X5824524Y-15593571D01*
X5834048Y-15574524D01*
X5843571Y-15565000D01*
X5862619Y-15555476D01*
X6005476Y-15555476D02*
X6005476Y-15593571D01*
X6081667Y-15555476D02*
X6081667Y-15593571D01*
X6376905Y-15831667D02*
X6367381Y-15822143D01*
X6348333Y-15793571D01*
X6338809Y-15774524D01*
X6329286Y-15745952D01*
X6319762Y-15698333D01*
X6319762Y-15660238D01*
X6329286Y-15612619D01*
X6338809Y-15584048D01*
X6348333Y-15565000D01*
X6367381Y-15536428D01*
X6376905Y-15526905D01*
X6443571Y-15574524D02*
X6453095Y-15565000D01*
X6472143Y-15555476D01*
X6519762Y-15555476D01*
X6538809Y-15565000D01*
X6548333Y-15574524D01*
X6557857Y-15593571D01*
X6557857Y-15612619D01*
X6548333Y-15641190D01*
X6434048Y-15755476D01*
X6557857Y-15755476D01*
X6795952Y-15755476D02*
X6795952Y-15555476D01*
X6881667Y-15755476D02*
X6881667Y-15650714D01*
X6872143Y-15631667D01*
X6853095Y-15622143D01*
X6824524Y-15622143D01*
X6805476Y-15631667D01*
X6795952Y-15641190D01*
X7005476Y-15755476D02*
X6986428Y-15745952D01*
X6976905Y-15736428D01*
X6967381Y-15717381D01*
X6967381Y-15660238D01*
X6976905Y-15641190D01*
X6986428Y-15631667D01*
X7005476Y-15622143D01*
X7034048Y-15622143D01*
X7053095Y-15631667D01*
X7062619Y-15641190D01*
X7072143Y-15660238D01*
X7072143Y-15717381D01*
X7062619Y-15736428D01*
X7053095Y-15745952D01*
X7034048Y-15755476D01*
X7005476Y-15755476D01*
X7186428Y-15755476D02*
X7167381Y-15745952D01*
X7157857Y-15726905D01*
X7157857Y-15555476D01*
X7338809Y-15745952D02*
X7319762Y-15755476D01*
X7281667Y-15755476D01*
X7262619Y-15745952D01*
X7253095Y-15726905D01*
X7253095Y-15650714D01*
X7262619Y-15631667D01*
X7281667Y-15622143D01*
X7319762Y-15622143D01*
X7338809Y-15631667D01*
X7348333Y-15650714D01*
X7348333Y-15669762D01*
X7253095Y-15688809D01*
X7424524Y-15745952D02*
X7443571Y-15755476D01*
X7481667Y-15755476D01*
X7500714Y-15745952D01*
X7510238Y-15726905D01*
X7510238Y-15717381D01*
X7500714Y-15698333D01*
X7481667Y-15688809D01*
X7453095Y-15688809D01*
X7434048Y-15679286D01*
X7424524Y-15660238D01*
X7424524Y-15650714D01*
X7434048Y-15631667D01*
X7453095Y-15622143D01*
X7481667Y-15622143D01*
X7500714Y-15631667D01*
X7576905Y-15831667D02*
X7586428Y-15822143D01*
X7605476Y-15793571D01*
X7615000Y-15774524D01*
X7624524Y-15745952D01*
X7634048Y-15698333D01*
X7634048Y-15660238D01*
X7624524Y-15612619D01*
X7615000Y-15584048D01*
X7605476Y-15565000D01*
X7586428Y-15536428D01*
X7576905Y-15526905D01*
D17*
X2615000Y-15850000D02*
X2805000Y-16040000D01*
X2805000Y-15850000D02*
X2615000Y-16040000D01*
X2710000Y-15850000D02*
X2710000Y-16040000D01*
X2615000Y-15945000D02*
X2805000Y-15945000D01*
D11*
X3167381Y-16035476D02*
X3053095Y-16035476D01*
X3110238Y-16035476D02*
X3110238Y-15835476D01*
X3091190Y-15864048D01*
X3072143Y-15883095D01*
X3053095Y-15892619D01*
X3253095Y-16016428D02*
X3262619Y-16025952D01*
X3253095Y-16035476D01*
X3243571Y-16025952D01*
X3253095Y-16016428D01*
X3253095Y-16035476D01*
X3357857Y-16035476D02*
X3395952Y-16035476D01*
X3415000Y-16025952D01*
X3424524Y-16016428D01*
X3443571Y-15987857D01*
X3453095Y-15949762D01*
X3453095Y-15873571D01*
X3443571Y-15854524D01*
X3434048Y-15845000D01*
X3415000Y-15835476D01*
X3376905Y-15835476D01*
X3357857Y-15845000D01*
X3348333Y-15854524D01*
X3338809Y-15873571D01*
X3338809Y-15921190D01*
X3348333Y-15940238D01*
X3357857Y-15949762D01*
X3376905Y-15959286D01*
X3415000Y-15959286D01*
X3434048Y-15949762D01*
X3443571Y-15940238D01*
X3453095Y-15921190D01*
X3576905Y-15835476D02*
X3595952Y-15835476D01*
X3615000Y-15845000D01*
X3624524Y-15854524D01*
X3634048Y-15873571D01*
X3643571Y-15911667D01*
X3643571Y-15959286D01*
X3634048Y-15997381D01*
X3624524Y-16016428D01*
X3615000Y-16025952D01*
X3595952Y-16035476D01*
X3576905Y-16035476D01*
X3557857Y-16025952D01*
X3548333Y-16016428D01*
X3538809Y-15997381D01*
X3529286Y-15959286D01*
X3529286Y-15911667D01*
X3538809Y-15873571D01*
X3548333Y-15854524D01*
X3557857Y-15845000D01*
X3576905Y-15835476D01*
X3767381Y-15835476D02*
X3786428Y-15835476D01*
X3805476Y-15845000D01*
X3815000Y-15854524D01*
X3824524Y-15873571D01*
X3834048Y-15911667D01*
X3834048Y-15959286D01*
X3824524Y-15997381D01*
X3815000Y-16016428D01*
X3805476Y-16025952D01*
X3786428Y-16035476D01*
X3767381Y-16035476D01*
X3748333Y-16025952D01*
X3738809Y-16016428D01*
X3729286Y-15997381D01*
X3719762Y-15959286D01*
X3719762Y-15911667D01*
X3729286Y-15873571D01*
X3738809Y-15854524D01*
X3748333Y-15845000D01*
X3767381Y-15835476D01*
X3919762Y-16035476D02*
X3919762Y-15902143D01*
X3919762Y-15921190D02*
X3929286Y-15911667D01*
X3948333Y-15902143D01*
X3976905Y-15902143D01*
X3995952Y-15911667D01*
X4005476Y-15930714D01*
X4005476Y-16035476D01*
X4005476Y-15930714D02*
X4015000Y-15911667D01*
X4034048Y-15902143D01*
X4062619Y-15902143D01*
X4081667Y-15911667D01*
X4091190Y-15930714D01*
X4091190Y-16035476D01*
X4186428Y-16035476D02*
X4186428Y-15902143D01*
X4186428Y-15921190D02*
X4195952Y-15911667D01*
X4215000Y-15902143D01*
X4243571Y-15902143D01*
X4262619Y-15911667D01*
X4272143Y-15930714D01*
X4272143Y-16035476D01*
X4272143Y-15930714D02*
X4281667Y-15911667D01*
X4300714Y-15902143D01*
X4329286Y-15902143D01*
X4348333Y-15911667D01*
X4357857Y-15930714D01*
X4357857Y-16035476D01*
X4748333Y-15825952D02*
X4576905Y-16083095D01*
X5005476Y-15835476D02*
X5024524Y-15835476D01*
X5043571Y-15845000D01*
X5053095Y-15854524D01*
X5062619Y-15873571D01*
X5072143Y-15911667D01*
X5072143Y-15959286D01*
X5062619Y-15997381D01*
X5053095Y-16016428D01*
X5043571Y-16025952D01*
X5024524Y-16035476D01*
X5005476Y-16035476D01*
X4986429Y-16025952D01*
X4976905Y-16016428D01*
X4967381Y-15997381D01*
X4957857Y-15959286D01*
X4957857Y-15911667D01*
X4967381Y-15873571D01*
X4976905Y-15854524D01*
X4986429Y-15845000D01*
X5005476Y-15835476D01*
X5157857Y-16016428D02*
X5167381Y-16025952D01*
X5157857Y-16035476D01*
X5148333Y-16025952D01*
X5157857Y-16016428D01*
X5157857Y-16035476D01*
X5291190Y-15835476D02*
X5310238Y-15835476D01*
X5329286Y-15845000D01*
X5338810Y-15854524D01*
X5348333Y-15873571D01*
X5357857Y-15911667D01*
X5357857Y-15959286D01*
X5348333Y-15997381D01*
X5338810Y-16016428D01*
X5329286Y-16025952D01*
X5310238Y-16035476D01*
X5291190Y-16035476D01*
X5272143Y-16025952D01*
X5262619Y-16016428D01*
X5253095Y-15997381D01*
X5243571Y-15959286D01*
X5243571Y-15911667D01*
X5253095Y-15873571D01*
X5262619Y-15854524D01*
X5272143Y-15845000D01*
X5291190Y-15835476D01*
X5424524Y-15835476D02*
X5557857Y-15835476D01*
X5472143Y-16035476D01*
X5719762Y-15902143D02*
X5719762Y-16035476D01*
X5672143Y-15825952D02*
X5624524Y-15968809D01*
X5748333Y-15968809D01*
X5853095Y-15921190D02*
X5834048Y-15911667D01*
X5824524Y-15902143D01*
X5815000Y-15883095D01*
X5815000Y-15873571D01*
X5824524Y-15854524D01*
X5834048Y-15845000D01*
X5853095Y-15835476D01*
X5891190Y-15835476D01*
X5910238Y-15845000D01*
X5919762Y-15854524D01*
X5929286Y-15873571D01*
X5929286Y-15883095D01*
X5919762Y-15902143D01*
X5910238Y-15911667D01*
X5891190Y-15921190D01*
X5853095Y-15921190D01*
X5834048Y-15930714D01*
X5824524Y-15940238D01*
X5815000Y-15959286D01*
X5815000Y-15997381D01*
X5824524Y-16016428D01*
X5834048Y-16025952D01*
X5853095Y-16035476D01*
X5891190Y-16035476D01*
X5910238Y-16025952D01*
X5919762Y-16016428D01*
X5929286Y-15997381D01*
X5929286Y-15959286D01*
X5919762Y-15940238D01*
X5910238Y-15930714D01*
X5891190Y-15921190D01*
X6005476Y-15835476D02*
X6005476Y-15873571D01*
X6081667Y-15835476D02*
X6081667Y-15873571D01*
X6376905Y-16111667D02*
X6367381Y-16102143D01*
X6348333Y-16073571D01*
X6338809Y-16054524D01*
X6329286Y-16025952D01*
X6319762Y-15978333D01*
X6319762Y-15940238D01*
X6329286Y-15892619D01*
X6338809Y-15864048D01*
X6348333Y-15845000D01*
X6367381Y-15816428D01*
X6376905Y-15806905D01*
X6481667Y-15921190D02*
X6462619Y-15911667D01*
X6453095Y-15902143D01*
X6443571Y-15883095D01*
X6443571Y-15873571D01*
X6453095Y-15854524D01*
X6462619Y-15845000D01*
X6481667Y-15835476D01*
X6519762Y-15835476D01*
X6538809Y-15845000D01*
X6548333Y-15854524D01*
X6557857Y-15873571D01*
X6557857Y-15883095D01*
X6548333Y-15902143D01*
X6538809Y-15911667D01*
X6519762Y-15921190D01*
X6481667Y-15921190D01*
X6462619Y-15930714D01*
X6453095Y-15940238D01*
X6443571Y-15959286D01*
X6443571Y-15997381D01*
X6453095Y-16016428D01*
X6462619Y-16025952D01*
X6481667Y-16035476D01*
X6519762Y-16035476D01*
X6538809Y-16025952D01*
X6548333Y-16016428D01*
X6557857Y-15997381D01*
X6557857Y-15959286D01*
X6548333Y-15940238D01*
X6538809Y-15930714D01*
X6519762Y-15921190D01*
X6795952Y-16035476D02*
X6795952Y-15835476D01*
X6881667Y-16035476D02*
X6881667Y-15930714D01*
X6872143Y-15911667D01*
X6853095Y-15902143D01*
X6824524Y-15902143D01*
X6805476Y-15911667D01*
X6795952Y-15921190D01*
X7005476Y-16035476D02*
X6986428Y-16025952D01*
X6976905Y-16016428D01*
X6967381Y-15997381D01*
X6967381Y-15940238D01*
X6976905Y-15921190D01*
X6986428Y-15911667D01*
X7005476Y-15902143D01*
X7034048Y-15902143D01*
X7053095Y-15911667D01*
X7062619Y-15921190D01*
X7072143Y-15940238D01*
X7072143Y-15997381D01*
X7062619Y-16016428D01*
X7053095Y-16025952D01*
X7034048Y-16035476D01*
X7005476Y-16035476D01*
X7186428Y-16035476D02*
X7167381Y-16025952D01*
X7157857Y-16006905D01*
X7157857Y-15835476D01*
X7338809Y-16025952D02*
X7319762Y-16035476D01*
X7281667Y-16035476D01*
X7262619Y-16025952D01*
X7253095Y-16006905D01*
X7253095Y-15930714D01*
X7262619Y-15911667D01*
X7281667Y-15902143D01*
X7319762Y-15902143D01*
X7338809Y-15911667D01*
X7348333Y-15930714D01*
X7348333Y-15949762D01*
X7253095Y-15968809D01*
X7424524Y-16025952D02*
X7443571Y-16035476D01*
X7481667Y-16035476D01*
X7500714Y-16025952D01*
X7510238Y-16006905D01*
X7510238Y-15997381D01*
X7500714Y-15978333D01*
X7481667Y-15968809D01*
X7453095Y-15968809D01*
X7434048Y-15959286D01*
X7424524Y-15940238D01*
X7424524Y-15930714D01*
X7434048Y-15911667D01*
X7453095Y-15902143D01*
X7481667Y-15902143D01*
X7500714Y-15911667D01*
X7576905Y-16111667D02*
X7586428Y-16102143D01*
X7605476Y-16073571D01*
X7615000Y-16054524D01*
X7624524Y-16025952D01*
X7634048Y-15978333D01*
X7634048Y-15940238D01*
X7624524Y-15892619D01*
X7615000Y-15864048D01*
X7605476Y-15845000D01*
X7586428Y-15816428D01*
X7576905Y-15806905D01*
X2605000Y-16155000D02*
X2805000Y-16355000D01*
X2805000Y-16155000D02*
X2605000Y-16355000D01*
X2775711Y-16325711D02*
X2775711Y-16184289D01*
X2634289Y-16184289D01*
X2634289Y-16325711D01*
X2775711Y-16325711D01*
X3043571Y-16145476D02*
X3167381Y-16145476D01*
X3100714Y-16221667D01*
X3129286Y-16221667D01*
X3148333Y-16231190D01*
X3157857Y-16240714D01*
X3167381Y-16259762D01*
X3167381Y-16307381D01*
X3157857Y-16326428D01*
X3148333Y-16335952D01*
X3129286Y-16345476D01*
X3072143Y-16345476D01*
X3053095Y-16335952D01*
X3043571Y-16326428D01*
X3253095Y-16326428D02*
X3262619Y-16335952D01*
X3253095Y-16345476D01*
X3243571Y-16335952D01*
X3253095Y-16326428D01*
X3253095Y-16345476D01*
X3386428Y-16145476D02*
X3405476Y-16145476D01*
X3424524Y-16155000D01*
X3434048Y-16164524D01*
X3443571Y-16183571D01*
X3453095Y-16221667D01*
X3453095Y-16269286D01*
X3443571Y-16307381D01*
X3434048Y-16326428D01*
X3424524Y-16335952D01*
X3405476Y-16345476D01*
X3386428Y-16345476D01*
X3367381Y-16335952D01*
X3357857Y-16326428D01*
X3348333Y-16307381D01*
X3338809Y-16269286D01*
X3338809Y-16221667D01*
X3348333Y-16183571D01*
X3357857Y-16164524D01*
X3367381Y-16155000D01*
X3386428Y-16145476D01*
X3576905Y-16145476D02*
X3595952Y-16145476D01*
X3615000Y-16155000D01*
X3624524Y-16164524D01*
X3634048Y-16183571D01*
X3643571Y-16221667D01*
X3643571Y-16269286D01*
X3634048Y-16307381D01*
X3624524Y-16326428D01*
X3615000Y-16335952D01*
X3595952Y-16345476D01*
X3576905Y-16345476D01*
X3557857Y-16335952D01*
X3548333Y-16326428D01*
X3538809Y-16307381D01*
X3529286Y-16269286D01*
X3529286Y-16221667D01*
X3538809Y-16183571D01*
X3548333Y-16164524D01*
X3557857Y-16155000D01*
X3576905Y-16145476D01*
X3767381Y-16145476D02*
X3786428Y-16145476D01*
X3805476Y-16155000D01*
X3815000Y-16164524D01*
X3824524Y-16183571D01*
X3834048Y-16221667D01*
X3834048Y-16269286D01*
X3824524Y-16307381D01*
X3815000Y-16326428D01*
X3805476Y-16335952D01*
X3786428Y-16345476D01*
X3767381Y-16345476D01*
X3748333Y-16335952D01*
X3738809Y-16326428D01*
X3729286Y-16307381D01*
X3719762Y-16269286D01*
X3719762Y-16221667D01*
X3729286Y-16183571D01*
X3738809Y-16164524D01*
X3748333Y-16155000D01*
X3767381Y-16145476D01*
X3919762Y-16345476D02*
X3919762Y-16212143D01*
X3919762Y-16231190D02*
X3929286Y-16221667D01*
X3948333Y-16212143D01*
X3976905Y-16212143D01*
X3995952Y-16221667D01*
X4005476Y-16240714D01*
X4005476Y-16345476D01*
X4005476Y-16240714D02*
X4015000Y-16221667D01*
X4034048Y-16212143D01*
X4062619Y-16212143D01*
X4081667Y-16221667D01*
X4091190Y-16240714D01*
X4091190Y-16345476D01*
X4186428Y-16345476D02*
X4186428Y-16212143D01*
X4186428Y-16231190D02*
X4195952Y-16221667D01*
X4215000Y-16212143D01*
X4243571Y-16212143D01*
X4262619Y-16221667D01*
X4272143Y-16240714D01*
X4272143Y-16345476D01*
X4272143Y-16240714D02*
X4281667Y-16221667D01*
X4300714Y-16212143D01*
X4329286Y-16212143D01*
X4348333Y-16221667D01*
X4357857Y-16240714D01*
X4357857Y-16345476D01*
X4748333Y-16135952D02*
X4576905Y-16393095D01*
X5005476Y-16145476D02*
X5024524Y-16145476D01*
X5043571Y-16155000D01*
X5053095Y-16164524D01*
X5062619Y-16183571D01*
X5072143Y-16221667D01*
X5072143Y-16269286D01*
X5062619Y-16307381D01*
X5053095Y-16326428D01*
X5043571Y-16335952D01*
X5024524Y-16345476D01*
X5005476Y-16345476D01*
X4986429Y-16335952D01*
X4976905Y-16326428D01*
X4967381Y-16307381D01*
X4957857Y-16269286D01*
X4957857Y-16221667D01*
X4967381Y-16183571D01*
X4976905Y-16164524D01*
X4986429Y-16155000D01*
X5005476Y-16145476D01*
X5157857Y-16326428D02*
X5167381Y-16335952D01*
X5157857Y-16345476D01*
X5148333Y-16335952D01*
X5157857Y-16326428D01*
X5157857Y-16345476D01*
X5357857Y-16345476D02*
X5243571Y-16345476D01*
X5300714Y-16345476D02*
X5300714Y-16145476D01*
X5281667Y-16174048D01*
X5262619Y-16193095D01*
X5243571Y-16202619D01*
X5548333Y-16345476D02*
X5434048Y-16345476D01*
X5491190Y-16345476D02*
X5491190Y-16145476D01*
X5472143Y-16174048D01*
X5453095Y-16193095D01*
X5434048Y-16202619D01*
X5662619Y-16231190D02*
X5643571Y-16221667D01*
X5634048Y-16212143D01*
X5624524Y-16193095D01*
X5624524Y-16183571D01*
X5634048Y-16164524D01*
X5643571Y-16155000D01*
X5662619Y-16145476D01*
X5700714Y-16145476D01*
X5719762Y-16155000D01*
X5729286Y-16164524D01*
X5738809Y-16183571D01*
X5738809Y-16193095D01*
X5729286Y-16212143D01*
X5719762Y-16221667D01*
X5700714Y-16231190D01*
X5662619Y-16231190D01*
X5643571Y-16240714D01*
X5634048Y-16250238D01*
X5624524Y-16269286D01*
X5624524Y-16307381D01*
X5634048Y-16326428D01*
X5643571Y-16335952D01*
X5662619Y-16345476D01*
X5700714Y-16345476D01*
X5719762Y-16335952D01*
X5729286Y-16326428D01*
X5738809Y-16307381D01*
X5738809Y-16269286D01*
X5729286Y-16250238D01*
X5719762Y-16240714D01*
X5700714Y-16231190D01*
X5929286Y-16345476D02*
X5815000Y-16345476D01*
X5872143Y-16345476D02*
X5872143Y-16145476D01*
X5853095Y-16174048D01*
X5834048Y-16193095D01*
X5815000Y-16202619D01*
X6005476Y-16145476D02*
X6005476Y-16183571D01*
X6081667Y-16145476D02*
X6081667Y-16183571D01*
X6376905Y-16421667D02*
X6367381Y-16412143D01*
X6348333Y-16383571D01*
X6338809Y-16364524D01*
X6329286Y-16335952D01*
X6319762Y-16288333D01*
X6319762Y-16250238D01*
X6329286Y-16202619D01*
X6338809Y-16174048D01*
X6348333Y-16155000D01*
X6367381Y-16126428D01*
X6376905Y-16116905D01*
X6538809Y-16212143D02*
X6538809Y-16345476D01*
X6491190Y-16135952D02*
X6443571Y-16278809D01*
X6567381Y-16278809D01*
X6795952Y-16345476D02*
X6795952Y-16145476D01*
X6881667Y-16345476D02*
X6881667Y-16240714D01*
X6872143Y-16221667D01*
X6853095Y-16212143D01*
X6824524Y-16212143D01*
X6805476Y-16221667D01*
X6795952Y-16231190D01*
X7005476Y-16345476D02*
X6986428Y-16335952D01*
X6976905Y-16326428D01*
X6967381Y-16307381D01*
X6967381Y-16250238D01*
X6976905Y-16231190D01*
X6986428Y-16221667D01*
X7005476Y-16212143D01*
X7034048Y-16212143D01*
X7053095Y-16221667D01*
X7062619Y-16231190D01*
X7072143Y-16250238D01*
X7072143Y-16307381D01*
X7062619Y-16326428D01*
X7053095Y-16335952D01*
X7034048Y-16345476D01*
X7005476Y-16345476D01*
X7186428Y-16345476D02*
X7167381Y-16335952D01*
X7157857Y-16316905D01*
X7157857Y-16145476D01*
X7338809Y-16335952D02*
X7319762Y-16345476D01*
X7281667Y-16345476D01*
X7262619Y-16335952D01*
X7253095Y-16316905D01*
X7253095Y-16240714D01*
X7262619Y-16221667D01*
X7281667Y-16212143D01*
X7319762Y-16212143D01*
X7338809Y-16221667D01*
X7348333Y-16240714D01*
X7348333Y-16259762D01*
X7253095Y-16278809D01*
X7424524Y-16335952D02*
X7443571Y-16345476D01*
X7481667Y-16345476D01*
X7500714Y-16335952D01*
X7510238Y-16316905D01*
X7510238Y-16307381D01*
X7500714Y-16288333D01*
X7481667Y-16278809D01*
X7453095Y-16278809D01*
X7434048Y-16269286D01*
X7424524Y-16250238D01*
X7424524Y-16240714D01*
X7434048Y-16221667D01*
X7453095Y-16212143D01*
X7481667Y-16212143D01*
X7500714Y-16221667D01*
X7576905Y-16421667D02*
X7586428Y-16412143D01*
X7605476Y-16383571D01*
X7615000Y-16364524D01*
X7624524Y-16335952D01*
X7634048Y-16288333D01*
X7634048Y-16250238D01*
X7624524Y-16202619D01*
X7615000Y-16174048D01*
X7605476Y-16155000D01*
X7586428Y-16126428D01*
X7576905Y-16116905D01*
X2605000Y-16475000D02*
X2805000Y-16675000D01*
X2805000Y-16475000D02*
X2605000Y-16675000D01*
X2705000Y-16675000D02*
X2805000Y-16575000D01*
X2705000Y-16475000D01*
X2605000Y-16575000D01*
X2705000Y-16675000D01*
X3043571Y-16465476D02*
X3167381Y-16465476D01*
X3100714Y-16541667D01*
X3129286Y-16541667D01*
X3148333Y-16551190D01*
X3157857Y-16560714D01*
X3167381Y-16579762D01*
X3167381Y-16627381D01*
X3157857Y-16646428D01*
X3148333Y-16655952D01*
X3129286Y-16665476D01*
X3072143Y-16665476D01*
X3053095Y-16655952D01*
X3043571Y-16646428D01*
X3253095Y-16646428D02*
X3262619Y-16655952D01*
X3253095Y-16665476D01*
X3243571Y-16655952D01*
X3253095Y-16646428D01*
X3253095Y-16665476D01*
X3443571Y-16465476D02*
X3348333Y-16465476D01*
X3338809Y-16560714D01*
X3348333Y-16551190D01*
X3367381Y-16541667D01*
X3415000Y-16541667D01*
X3434048Y-16551190D01*
X3443571Y-16560714D01*
X3453095Y-16579762D01*
X3453095Y-16627381D01*
X3443571Y-16646428D01*
X3434048Y-16655952D01*
X3415000Y-16665476D01*
X3367381Y-16665476D01*
X3348333Y-16655952D01*
X3338809Y-16646428D01*
X3576905Y-16465476D02*
X3595952Y-16465476D01*
X3615000Y-16475000D01*
X3624524Y-16484524D01*
X3634048Y-16503571D01*
X3643571Y-16541667D01*
X3643571Y-16589286D01*
X3634048Y-16627381D01*
X3624524Y-16646428D01*
X3615000Y-16655952D01*
X3595952Y-16665476D01*
X3576905Y-16665476D01*
X3557857Y-16655952D01*
X3548333Y-16646428D01*
X3538809Y-16627381D01*
X3529286Y-16589286D01*
X3529286Y-16541667D01*
X3538809Y-16503571D01*
X3548333Y-16484524D01*
X3557857Y-16475000D01*
X3576905Y-16465476D01*
X3767381Y-16465476D02*
X3786428Y-16465476D01*
X3805476Y-16475000D01*
X3815000Y-16484524D01*
X3824524Y-16503571D01*
X3834048Y-16541667D01*
X3834048Y-16589286D01*
X3824524Y-16627381D01*
X3815000Y-16646428D01*
X3805476Y-16655952D01*
X3786428Y-16665476D01*
X3767381Y-16665476D01*
X3748333Y-16655952D01*
X3738809Y-16646428D01*
X3729286Y-16627381D01*
X3719762Y-16589286D01*
X3719762Y-16541667D01*
X3729286Y-16503571D01*
X3738809Y-16484524D01*
X3748333Y-16475000D01*
X3767381Y-16465476D01*
X3919762Y-16665476D02*
X3919762Y-16532143D01*
X3919762Y-16551190D02*
X3929286Y-16541667D01*
X3948333Y-16532143D01*
X3976905Y-16532143D01*
X3995952Y-16541667D01*
X4005476Y-16560714D01*
X4005476Y-16665476D01*
X4005476Y-16560714D02*
X4015000Y-16541667D01*
X4034048Y-16532143D01*
X4062619Y-16532143D01*
X4081667Y-16541667D01*
X4091190Y-16560714D01*
X4091190Y-16665476D01*
X4186428Y-16665476D02*
X4186428Y-16532143D01*
X4186428Y-16551190D02*
X4195952Y-16541667D01*
X4215000Y-16532143D01*
X4243571Y-16532143D01*
X4262619Y-16541667D01*
X4272143Y-16560714D01*
X4272143Y-16665476D01*
X4272143Y-16560714D02*
X4281667Y-16541667D01*
X4300714Y-16532143D01*
X4329286Y-16532143D01*
X4348333Y-16541667D01*
X4357857Y-16560714D01*
X4357857Y-16665476D01*
X4748333Y-16455952D02*
X4576905Y-16713095D01*
X5005476Y-16465476D02*
X5024524Y-16465476D01*
X5043571Y-16475000D01*
X5053095Y-16484524D01*
X5062619Y-16503571D01*
X5072143Y-16541667D01*
X5072143Y-16589286D01*
X5062619Y-16627381D01*
X5053095Y-16646428D01*
X5043571Y-16655952D01*
X5024524Y-16665476D01*
X5005476Y-16665476D01*
X4986429Y-16655952D01*
X4976905Y-16646428D01*
X4967381Y-16627381D01*
X4957857Y-16589286D01*
X4957857Y-16541667D01*
X4967381Y-16503571D01*
X4976905Y-16484524D01*
X4986429Y-16475000D01*
X5005476Y-16465476D01*
X5157857Y-16646428D02*
X5167381Y-16655952D01*
X5157857Y-16665476D01*
X5148333Y-16655952D01*
X5157857Y-16646428D01*
X5157857Y-16665476D01*
X5357857Y-16665476D02*
X5243571Y-16665476D01*
X5300714Y-16665476D02*
X5300714Y-16465476D01*
X5281667Y-16494048D01*
X5262619Y-16513095D01*
X5243571Y-16522619D01*
X5424524Y-16465476D02*
X5548333Y-16465476D01*
X5481667Y-16541667D01*
X5510238Y-16541667D01*
X5529286Y-16551190D01*
X5538810Y-16560714D01*
X5548333Y-16579762D01*
X5548333Y-16627381D01*
X5538810Y-16646428D01*
X5529286Y-16655952D01*
X5510238Y-16665476D01*
X5453095Y-16665476D01*
X5434048Y-16655952D01*
X5424524Y-16646428D01*
X5615000Y-16465476D02*
X5748333Y-16465476D01*
X5662619Y-16665476D01*
X5853095Y-16551190D02*
X5834048Y-16541667D01*
X5824524Y-16532143D01*
X5815000Y-16513095D01*
X5815000Y-16503571D01*
X5824524Y-16484524D01*
X5834048Y-16475000D01*
X5853095Y-16465476D01*
X5891190Y-16465476D01*
X5910238Y-16475000D01*
X5919762Y-16484524D01*
X5929286Y-16503571D01*
X5929286Y-16513095D01*
X5919762Y-16532143D01*
X5910238Y-16541667D01*
X5891190Y-16551190D01*
X5853095Y-16551190D01*
X5834048Y-16560714D01*
X5824524Y-16570238D01*
X5815000Y-16589286D01*
X5815000Y-16627381D01*
X5824524Y-16646428D01*
X5834048Y-16655952D01*
X5853095Y-16665476D01*
X5891190Y-16665476D01*
X5910238Y-16655952D01*
X5919762Y-16646428D01*
X5929286Y-16627381D01*
X5929286Y-16589286D01*
X5919762Y-16570238D01*
X5910238Y-16560714D01*
X5891190Y-16551190D01*
X6005476Y-16465476D02*
X6005476Y-16503571D01*
X6081667Y-16465476D02*
X6081667Y-16503571D01*
X6376905Y-16741667D02*
X6367381Y-16732143D01*
X6348333Y-16703571D01*
X6338809Y-16684524D01*
X6329286Y-16655952D01*
X6319762Y-16608333D01*
X6319762Y-16570238D01*
X6329286Y-16522619D01*
X6338809Y-16494048D01*
X6348333Y-16475000D01*
X6367381Y-16446428D01*
X6376905Y-16436905D01*
X6538809Y-16532143D02*
X6538809Y-16665476D01*
X6491190Y-16455952D02*
X6443571Y-16598809D01*
X6567381Y-16598809D01*
X6795952Y-16665476D02*
X6795952Y-16465476D01*
X6881667Y-16665476D02*
X6881667Y-16560714D01*
X6872143Y-16541667D01*
X6853095Y-16532143D01*
X6824524Y-16532143D01*
X6805476Y-16541667D01*
X6795952Y-16551190D01*
X7005476Y-16665476D02*
X6986428Y-16655952D01*
X6976905Y-16646428D01*
X6967381Y-16627381D01*
X6967381Y-16570238D01*
X6976905Y-16551190D01*
X6986428Y-16541667D01*
X7005476Y-16532143D01*
X7034048Y-16532143D01*
X7053095Y-16541667D01*
X7062619Y-16551190D01*
X7072143Y-16570238D01*
X7072143Y-16627381D01*
X7062619Y-16646428D01*
X7053095Y-16655952D01*
X7034048Y-16665476D01*
X7005476Y-16665476D01*
X7186428Y-16665476D02*
X7167381Y-16655952D01*
X7157857Y-16636905D01*
X7157857Y-16465476D01*
X7338809Y-16655952D02*
X7319762Y-16665476D01*
X7281667Y-16665476D01*
X7262619Y-16655952D01*
X7253095Y-16636905D01*
X7253095Y-16560714D01*
X7262619Y-16541667D01*
X7281667Y-16532143D01*
X7319762Y-16532143D01*
X7338809Y-16541667D01*
X7348333Y-16560714D01*
X7348333Y-16579762D01*
X7253095Y-16598809D01*
X7424524Y-16655952D02*
X7443571Y-16665476D01*
X7481667Y-16665476D01*
X7500714Y-16655952D01*
X7510238Y-16636905D01*
X7510238Y-16627381D01*
X7500714Y-16608333D01*
X7481667Y-16598809D01*
X7453095Y-16598809D01*
X7434048Y-16589286D01*
X7424524Y-16570238D01*
X7424524Y-16560714D01*
X7434048Y-16541667D01*
X7453095Y-16532143D01*
X7481667Y-16532143D01*
X7500714Y-16541667D01*
X7576905Y-16741667D02*
X7586428Y-16732143D01*
X7605476Y-16703571D01*
X7615000Y-16684524D01*
X7624524Y-16655952D01*
X7634048Y-16608333D01*
X7634048Y-16570238D01*
X7624524Y-16522619D01*
X7615000Y-16494048D01*
X7605476Y-16475000D01*
X7586428Y-16446428D01*
X7576905Y-16436905D01*
M02*
