%TF.GenerationSoftware,KiCad,Pcbnew,(6.0.9)*%
%TF.CreationDate,2023-04-17T01:59:29-04:00*%
%TF.ProjectId,TrailCounter,54726169-6c43-46f7-956e-7465722e6b69,rev?*%
%TF.SameCoordinates,Original*%
%TF.FileFunction,Legend,Top*%
%TF.FilePolarity,Positive*%
%FSLAX46Y46*%
G04 Gerber Fmt 4.6, Leading zero omitted, Abs format (unit mm)*
G04 Created by KiCad (PCBNEW (6.0.9)) date 2023-04-17 01:59:29*
%MOMM*%
%LPD*%
G01*
G04 APERTURE LIST*
%ADD10C,0.254000*%
%ADD11C,0.150000*%
%ADD12C,0.200000*%
%ADD13C,0.250000*%
%ADD14C,0.120000*%
%ADD15C,0.100000*%
G04 APERTURE END LIST*
D10*
%TO.C,IC4*%
X170500523Y-94203761D02*
X169230523Y-94203761D01*
X170379571Y-92873285D02*
X170440047Y-92933761D01*
X170500523Y-93115190D01*
X170500523Y-93236142D01*
X170440047Y-93417571D01*
X170319095Y-93538523D01*
X170198142Y-93599000D01*
X169956238Y-93659476D01*
X169774809Y-93659476D01*
X169532904Y-93599000D01*
X169411952Y-93538523D01*
X169291000Y-93417571D01*
X169230523Y-93236142D01*
X169230523Y-93115190D01*
X169291000Y-92933761D01*
X169351476Y-92873285D01*
X169653857Y-91784714D02*
X170500523Y-91784714D01*
X169170047Y-92087095D02*
X170077190Y-92389476D01*
X170077190Y-91603285D01*
D11*
%TO.C,C19*%
X170095942Y-84427542D02*
X170048323Y-84475161D01*
X169905466Y-84522780D01*
X169810228Y-84522780D01*
X169667371Y-84475161D01*
X169572133Y-84379923D01*
X169524514Y-84284685D01*
X169476895Y-84094209D01*
X169476895Y-83951352D01*
X169524514Y-83760876D01*
X169572133Y-83665638D01*
X169667371Y-83570400D01*
X169810228Y-83522780D01*
X169905466Y-83522780D01*
X170048323Y-83570400D01*
X170095942Y-83618019D01*
X171048323Y-84522780D02*
X170476895Y-84522780D01*
X170762609Y-84522780D02*
X170762609Y-83522780D01*
X170667371Y-83665638D01*
X170572133Y-83760876D01*
X170476895Y-83808495D01*
X171524514Y-84522780D02*
X171714990Y-84522780D01*
X171810228Y-84475161D01*
X171857847Y-84427542D01*
X171953085Y-84284685D01*
X172000704Y-84094209D01*
X172000704Y-83713257D01*
X171953085Y-83618019D01*
X171905466Y-83570400D01*
X171810228Y-83522780D01*
X171619752Y-83522780D01*
X171524514Y-83570400D01*
X171476895Y-83618019D01*
X171429276Y-83713257D01*
X171429276Y-83951352D01*
X171476895Y-84046590D01*
X171524514Y-84094209D01*
X171619752Y-84141828D01*
X171810228Y-84141828D01*
X171905466Y-84094209D01*
X171953085Y-84046590D01*
X172000704Y-83951352D01*
%TO.C,C16*%
X150588742Y-111707142D02*
X150541123Y-111754761D01*
X150398266Y-111802380D01*
X150303028Y-111802380D01*
X150160171Y-111754761D01*
X150064933Y-111659523D01*
X150017314Y-111564285D01*
X149969695Y-111373809D01*
X149969695Y-111230952D01*
X150017314Y-111040476D01*
X150064933Y-110945238D01*
X150160171Y-110850000D01*
X150303028Y-110802380D01*
X150398266Y-110802380D01*
X150541123Y-110850000D01*
X150588742Y-110897619D01*
X151541123Y-111802380D02*
X150969695Y-111802380D01*
X151255409Y-111802380D02*
X151255409Y-110802380D01*
X151160171Y-110945238D01*
X151064933Y-111040476D01*
X150969695Y-111088095D01*
X152398266Y-110802380D02*
X152207790Y-110802380D01*
X152112552Y-110850000D01*
X152064933Y-110897619D01*
X151969695Y-111040476D01*
X151922076Y-111230952D01*
X151922076Y-111611904D01*
X151969695Y-111707142D01*
X152017314Y-111754761D01*
X152112552Y-111802380D01*
X152303028Y-111802380D01*
X152398266Y-111754761D01*
X152445885Y-111707142D01*
X152493504Y-111611904D01*
X152493504Y-111373809D01*
X152445885Y-111278571D01*
X152398266Y-111230952D01*
X152303028Y-111183333D01*
X152112552Y-111183333D01*
X152017314Y-111230952D01*
X151969695Y-111278571D01*
X151922076Y-111373809D01*
%TO.C,C15*%
X150588742Y-109319542D02*
X150541123Y-109367161D01*
X150398266Y-109414780D01*
X150303028Y-109414780D01*
X150160171Y-109367161D01*
X150064933Y-109271923D01*
X150017314Y-109176685D01*
X149969695Y-108986209D01*
X149969695Y-108843352D01*
X150017314Y-108652876D01*
X150064933Y-108557638D01*
X150160171Y-108462400D01*
X150303028Y-108414780D01*
X150398266Y-108414780D01*
X150541123Y-108462400D01*
X150588742Y-108510019D01*
X151541123Y-109414780D02*
X150969695Y-109414780D01*
X151255409Y-109414780D02*
X151255409Y-108414780D01*
X151160171Y-108557638D01*
X151064933Y-108652876D01*
X150969695Y-108700495D01*
X152445885Y-108414780D02*
X151969695Y-108414780D01*
X151922076Y-108890971D01*
X151969695Y-108843352D01*
X152064933Y-108795733D01*
X152303028Y-108795733D01*
X152398266Y-108843352D01*
X152445885Y-108890971D01*
X152493504Y-108986209D01*
X152493504Y-109224304D01*
X152445885Y-109319542D01*
X152398266Y-109367161D01*
X152303028Y-109414780D01*
X152064933Y-109414780D01*
X151969695Y-109367161D01*
X151922076Y-109319542D01*
%TO.C,C13*%
X146664742Y-113774457D02*
X146712361Y-113822076D01*
X146759980Y-113964933D01*
X146759980Y-114060171D01*
X146712361Y-114203028D01*
X146617123Y-114298266D01*
X146521885Y-114345885D01*
X146331409Y-114393504D01*
X146188552Y-114393504D01*
X145998076Y-114345885D01*
X145902838Y-114298266D01*
X145807600Y-114203028D01*
X145759980Y-114060171D01*
X145759980Y-113964933D01*
X145807600Y-113822076D01*
X145855219Y-113774457D01*
X146759980Y-112822076D02*
X146759980Y-113393504D01*
X146759980Y-113107790D02*
X145759980Y-113107790D01*
X145902838Y-113203028D01*
X145998076Y-113298266D01*
X146045695Y-113393504D01*
X145759980Y-112488742D02*
X145759980Y-111869695D01*
X146140933Y-112203028D01*
X146140933Y-112060171D01*
X146188552Y-111964933D01*
X146236171Y-111917314D01*
X146331409Y-111869695D01*
X146569504Y-111869695D01*
X146664742Y-111917314D01*
X146712361Y-111964933D01*
X146759980Y-112060171D01*
X146759980Y-112345885D01*
X146712361Y-112441123D01*
X146664742Y-112488742D01*
%TO.C,C10*%
X132808742Y-110957142D02*
X132761123Y-111004761D01*
X132618266Y-111052380D01*
X132523028Y-111052380D01*
X132380171Y-111004761D01*
X132284933Y-110909523D01*
X132237314Y-110814285D01*
X132189695Y-110623809D01*
X132189695Y-110480952D01*
X132237314Y-110290476D01*
X132284933Y-110195238D01*
X132380171Y-110100000D01*
X132523028Y-110052380D01*
X132618266Y-110052380D01*
X132761123Y-110100000D01*
X132808742Y-110147619D01*
X133761123Y-111052380D02*
X133189695Y-111052380D01*
X133475409Y-111052380D02*
X133475409Y-110052380D01*
X133380171Y-110195238D01*
X133284933Y-110290476D01*
X133189695Y-110338095D01*
X134380171Y-110052380D02*
X134475409Y-110052380D01*
X134570647Y-110100000D01*
X134618266Y-110147619D01*
X134665885Y-110242857D01*
X134713504Y-110433333D01*
X134713504Y-110671428D01*
X134665885Y-110861904D01*
X134618266Y-110957142D01*
X134570647Y-111004761D01*
X134475409Y-111052380D01*
X134380171Y-111052380D01*
X134284933Y-111004761D01*
X134237314Y-110957142D01*
X134189695Y-110861904D01*
X134142076Y-110671428D01*
X134142076Y-110433333D01*
X134189695Y-110242857D01*
X134237314Y-110147619D01*
X134284933Y-110100000D01*
X134380171Y-110052380D01*
%TO.C,TP1*%
X102370095Y-23212380D02*
X102941523Y-23212380D01*
X102655809Y-24212380D02*
X102655809Y-23212380D01*
X103274857Y-24212380D02*
X103274857Y-23212380D01*
X103655809Y-23212380D01*
X103751047Y-23260000D01*
X103798666Y-23307619D01*
X103846285Y-23402857D01*
X103846285Y-23545714D01*
X103798666Y-23640952D01*
X103751047Y-23688571D01*
X103655809Y-23736190D01*
X103274857Y-23736190D01*
X104798666Y-24212380D02*
X104227238Y-24212380D01*
X104512952Y-24212380D02*
X104512952Y-23212380D01*
X104417714Y-23355238D01*
X104322476Y-23450476D01*
X104227238Y-23498095D01*
%TO.C,C4*%
X117154742Y-98972666D02*
X117202361Y-99020285D01*
X117249980Y-99163142D01*
X117249980Y-99258380D01*
X117202361Y-99401238D01*
X117107123Y-99496476D01*
X117011885Y-99544095D01*
X116821409Y-99591714D01*
X116678552Y-99591714D01*
X116488076Y-99544095D01*
X116392838Y-99496476D01*
X116297600Y-99401238D01*
X116249980Y-99258380D01*
X116249980Y-99163142D01*
X116297600Y-99020285D01*
X116345219Y-98972666D01*
X116583314Y-98115523D02*
X117249980Y-98115523D01*
X116202361Y-98353619D02*
X116916647Y-98591714D01*
X116916647Y-97972666D01*
%TO.C,R7*%
X148524933Y-116531980D02*
X148191600Y-116055790D01*
X147953504Y-116531980D02*
X147953504Y-115531980D01*
X148334457Y-115531980D01*
X148429695Y-115579600D01*
X148477314Y-115627219D01*
X148524933Y-115722457D01*
X148524933Y-115865314D01*
X148477314Y-115960552D01*
X148429695Y-116008171D01*
X148334457Y-116055790D01*
X147953504Y-116055790D01*
X148858266Y-115531980D02*
X149524933Y-115531980D01*
X149096361Y-116531980D01*
D10*
%TO.C,IC3*%
X135767838Y-109743723D02*
X135767838Y-108473723D01*
X137098314Y-109622771D02*
X137037838Y-109683247D01*
X136856409Y-109743723D01*
X136735457Y-109743723D01*
X136554028Y-109683247D01*
X136433076Y-109562295D01*
X136372600Y-109441342D01*
X136312123Y-109199438D01*
X136312123Y-109018009D01*
X136372600Y-108776104D01*
X136433076Y-108655152D01*
X136554028Y-108534200D01*
X136735457Y-108473723D01*
X136856409Y-108473723D01*
X137037838Y-108534200D01*
X137098314Y-108594676D01*
X137521647Y-108473723D02*
X138307838Y-108473723D01*
X137884504Y-108957533D01*
X138065933Y-108957533D01*
X138186885Y-109018009D01*
X138247361Y-109078485D01*
X138307838Y-109199438D01*
X138307838Y-109501819D01*
X138247361Y-109622771D01*
X138186885Y-109683247D01*
X138065933Y-109743723D01*
X137703076Y-109743723D01*
X137582123Y-109683247D01*
X137521647Y-109622771D01*
D11*
%TO.C,TH1*%
X111872780Y-109997714D02*
X111872780Y-109426285D01*
X112872780Y-109712000D02*
X111872780Y-109712000D01*
X112872780Y-109092952D02*
X111872780Y-109092952D01*
X112348971Y-109092952D02*
X112348971Y-108521523D01*
X112872780Y-108521523D02*
X111872780Y-108521523D01*
X112872780Y-107521523D02*
X112872780Y-108092952D01*
X112872780Y-107807238D02*
X111872780Y-107807238D01*
X112015638Y-107902476D01*
X112110876Y-107997714D01*
X112158495Y-108092952D01*
%TO.C,C7*%
X139549142Y-134989866D02*
X139596761Y-135037485D01*
X139644380Y-135180342D01*
X139644380Y-135275580D01*
X139596761Y-135418438D01*
X139501523Y-135513676D01*
X139406285Y-135561295D01*
X139215809Y-135608914D01*
X139072952Y-135608914D01*
X138882476Y-135561295D01*
X138787238Y-135513676D01*
X138692000Y-135418438D01*
X138644380Y-135275580D01*
X138644380Y-135180342D01*
X138692000Y-135037485D01*
X138739619Y-134989866D01*
X138644380Y-134656533D02*
X138644380Y-133989866D01*
X139644380Y-134418438D01*
%TO.C,J4*%
X168267580Y-114176133D02*
X168981866Y-114176133D01*
X169124723Y-114223752D01*
X169219961Y-114318990D01*
X169267580Y-114461847D01*
X169267580Y-114557085D01*
X168600914Y-113271371D02*
X169267580Y-113271371D01*
X168219961Y-113509466D02*
X168934247Y-113747561D01*
X168934247Y-113128514D01*
%TO.C,J5*%
X192013380Y-83696133D02*
X192727666Y-83696133D01*
X192870523Y-83743752D01*
X192965761Y-83838990D01*
X193013380Y-83981847D01*
X193013380Y-84077085D01*
X192013380Y-82743752D02*
X192013380Y-83219942D01*
X192489571Y-83267561D01*
X192441952Y-83219942D01*
X192394333Y-83124704D01*
X192394333Y-82886609D01*
X192441952Y-82791371D01*
X192489571Y-82743752D01*
X192584809Y-82696133D01*
X192822904Y-82696133D01*
X192918142Y-82743752D01*
X192965761Y-82791371D01*
X193013380Y-82886609D01*
X193013380Y-83124704D01*
X192965761Y-83219942D01*
X192918142Y-83267561D01*
%TO.C,U4*%
X161544095Y-33242380D02*
X161544095Y-34051904D01*
X161591714Y-34147142D01*
X161639333Y-34194761D01*
X161734571Y-34242380D01*
X161925047Y-34242380D01*
X162020285Y-34194761D01*
X162067904Y-34147142D01*
X162115523Y-34051904D01*
X162115523Y-33242380D01*
X163020285Y-33575714D02*
X163020285Y-34242380D01*
X162782190Y-33194761D02*
X162544095Y-33909047D01*
X163163142Y-33909047D01*
%TO.C,C12*%
X142292342Y-113571257D02*
X142339961Y-113618876D01*
X142387580Y-113761733D01*
X142387580Y-113856971D01*
X142339961Y-113999828D01*
X142244723Y-114095066D01*
X142149485Y-114142685D01*
X141959009Y-114190304D01*
X141816152Y-114190304D01*
X141625676Y-114142685D01*
X141530438Y-114095066D01*
X141435200Y-113999828D01*
X141387580Y-113856971D01*
X141387580Y-113761733D01*
X141435200Y-113618876D01*
X141482819Y-113571257D01*
X142387580Y-112618876D02*
X142387580Y-113190304D01*
X142387580Y-112904590D02*
X141387580Y-112904590D01*
X141530438Y-112999828D01*
X141625676Y-113095066D01*
X141673295Y-113190304D01*
X141482819Y-112237923D02*
X141435200Y-112190304D01*
X141387580Y-112095066D01*
X141387580Y-111856971D01*
X141435200Y-111761733D01*
X141482819Y-111714114D01*
X141578057Y-111666495D01*
X141673295Y-111666495D01*
X141816152Y-111714114D01*
X142387580Y-112285542D01*
X142387580Y-111666495D01*
D10*
%TO.C,IC6*%
X143286238Y-96535723D02*
X143286238Y-95265723D01*
X144616714Y-96414771D02*
X144556238Y-96475247D01*
X144374809Y-96535723D01*
X144253857Y-96535723D01*
X144072428Y-96475247D01*
X143951476Y-96354295D01*
X143891000Y-96233342D01*
X143830523Y-95991438D01*
X143830523Y-95810009D01*
X143891000Y-95568104D01*
X143951476Y-95447152D01*
X144072428Y-95326200D01*
X144253857Y-95265723D01*
X144374809Y-95265723D01*
X144556238Y-95326200D01*
X144616714Y-95386676D01*
X145705285Y-95265723D02*
X145463380Y-95265723D01*
X145342428Y-95326200D01*
X145281952Y-95386676D01*
X145161000Y-95568104D01*
X145100523Y-95810009D01*
X145100523Y-96293819D01*
X145161000Y-96414771D01*
X145221476Y-96475247D01*
X145342428Y-96535723D01*
X145584333Y-96535723D01*
X145705285Y-96475247D01*
X145765761Y-96414771D01*
X145826238Y-96293819D01*
X145826238Y-95991438D01*
X145765761Y-95870485D01*
X145705285Y-95810009D01*
X145584333Y-95749533D01*
X145342428Y-95749533D01*
X145221476Y-95810009D01*
X145161000Y-95870485D01*
X145100523Y-95991438D01*
D11*
%TO.C,C22*%
X172026342Y-87580742D02*
X171978723Y-87628361D01*
X171835866Y-87675980D01*
X171740628Y-87675980D01*
X171597771Y-87628361D01*
X171502533Y-87533123D01*
X171454914Y-87437885D01*
X171407295Y-87247409D01*
X171407295Y-87104552D01*
X171454914Y-86914076D01*
X171502533Y-86818838D01*
X171597771Y-86723600D01*
X171740628Y-86675980D01*
X171835866Y-86675980D01*
X171978723Y-86723600D01*
X172026342Y-86771219D01*
X172407295Y-86771219D02*
X172454914Y-86723600D01*
X172550152Y-86675980D01*
X172788247Y-86675980D01*
X172883485Y-86723600D01*
X172931104Y-86771219D01*
X172978723Y-86866457D01*
X172978723Y-86961695D01*
X172931104Y-87104552D01*
X172359676Y-87675980D01*
X172978723Y-87675980D01*
X173359676Y-86771219D02*
X173407295Y-86723600D01*
X173502533Y-86675980D01*
X173740628Y-86675980D01*
X173835866Y-86723600D01*
X173883485Y-86771219D01*
X173931104Y-86866457D01*
X173931104Y-86961695D01*
X173883485Y-87104552D01*
X173312057Y-87675980D01*
X173931104Y-87675980D01*
D10*
%TO.C,J2*%
X189771866Y-47056523D02*
X189771866Y-47963666D01*
X189711390Y-48145095D01*
X189590438Y-48266047D01*
X189409009Y-48326523D01*
X189288057Y-48326523D01*
X190316152Y-47177476D02*
X190376628Y-47117000D01*
X190497580Y-47056523D01*
X190799961Y-47056523D01*
X190920914Y-47117000D01*
X190981390Y-47177476D01*
X191041866Y-47298428D01*
X191041866Y-47419380D01*
X190981390Y-47600809D01*
X190255676Y-48326523D01*
X191041866Y-48326523D01*
D11*
%TO.C,L2*%
X144359333Y-104643180D02*
X143883142Y-104643180D01*
X143883142Y-103643180D01*
X144645047Y-103738419D02*
X144692666Y-103690800D01*
X144787904Y-103643180D01*
X145026000Y-103643180D01*
X145121238Y-103690800D01*
X145168857Y-103738419D01*
X145216476Y-103833657D01*
X145216476Y-103928895D01*
X145168857Y-104071752D01*
X144597428Y-104643180D01*
X145216476Y-104643180D01*
%TO.C,C2*%
X126950742Y-98210666D02*
X126998361Y-98258285D01*
X127045980Y-98401142D01*
X127045980Y-98496380D01*
X126998361Y-98639238D01*
X126903123Y-98734476D01*
X126807885Y-98782095D01*
X126617409Y-98829714D01*
X126474552Y-98829714D01*
X126284076Y-98782095D01*
X126188838Y-98734476D01*
X126093600Y-98639238D01*
X126045980Y-98496380D01*
X126045980Y-98401142D01*
X126093600Y-98258285D01*
X126141219Y-98210666D01*
X126141219Y-97829714D02*
X126093600Y-97782095D01*
X126045980Y-97686857D01*
X126045980Y-97448761D01*
X126093600Y-97353523D01*
X126141219Y-97305904D01*
X126236457Y-97258285D01*
X126331695Y-97258285D01*
X126474552Y-97305904D01*
X127045980Y-97877333D01*
X127045980Y-97258285D01*
D10*
%TO.C,Q1*%
X161981847Y-38236676D02*
X161860895Y-38176200D01*
X161739942Y-38055247D01*
X161558514Y-37873819D01*
X161437561Y-37813342D01*
X161316609Y-37813342D01*
X161377085Y-38115723D02*
X161256133Y-38055247D01*
X161135180Y-37934295D01*
X161074704Y-37692390D01*
X161074704Y-37269057D01*
X161135180Y-37027152D01*
X161256133Y-36906200D01*
X161377085Y-36845723D01*
X161618990Y-36845723D01*
X161739942Y-36906200D01*
X161860895Y-37027152D01*
X161921371Y-37269057D01*
X161921371Y-37692390D01*
X161860895Y-37934295D01*
X161739942Y-38055247D01*
X161618990Y-38115723D01*
X161377085Y-38115723D01*
X163130895Y-38115723D02*
X162405180Y-38115723D01*
X162768038Y-38115723D02*
X162768038Y-36845723D01*
X162647085Y-37027152D01*
X162526133Y-37148104D01*
X162405180Y-37208580D01*
D11*
%TO.C,C25*%
X174566342Y-99010742D02*
X174518723Y-99058361D01*
X174375866Y-99105980D01*
X174280628Y-99105980D01*
X174137771Y-99058361D01*
X174042533Y-98963123D01*
X173994914Y-98867885D01*
X173947295Y-98677409D01*
X173947295Y-98534552D01*
X173994914Y-98344076D01*
X174042533Y-98248838D01*
X174137771Y-98153600D01*
X174280628Y-98105980D01*
X174375866Y-98105980D01*
X174518723Y-98153600D01*
X174566342Y-98201219D01*
X174947295Y-98201219D02*
X174994914Y-98153600D01*
X175090152Y-98105980D01*
X175328247Y-98105980D01*
X175423485Y-98153600D01*
X175471104Y-98201219D01*
X175518723Y-98296457D01*
X175518723Y-98391695D01*
X175471104Y-98534552D01*
X174899676Y-99105980D01*
X175518723Y-99105980D01*
X176423485Y-98105980D02*
X175947295Y-98105980D01*
X175899676Y-98582171D01*
X175947295Y-98534552D01*
X176042533Y-98486933D01*
X176280628Y-98486933D01*
X176375866Y-98534552D01*
X176423485Y-98582171D01*
X176471104Y-98677409D01*
X176471104Y-98915504D01*
X176423485Y-99010742D01*
X176375866Y-99058361D01*
X176280628Y-99105980D01*
X176042533Y-99105980D01*
X175947295Y-99058361D01*
X175899676Y-99010742D01*
%TO.C,L1*%
X144559980Y-122594666D02*
X144559980Y-123070857D01*
X143559980Y-123070857D01*
X144559980Y-121737523D02*
X144559980Y-122308952D01*
X144559980Y-122023238D02*
X143559980Y-122023238D01*
X143702838Y-122118476D01*
X143798076Y-122213714D01*
X143845695Y-122308952D01*
%TO.C,C20*%
X177395142Y-90914457D02*
X177442761Y-90962076D01*
X177490380Y-91104933D01*
X177490380Y-91200171D01*
X177442761Y-91343028D01*
X177347523Y-91438266D01*
X177252285Y-91485885D01*
X177061809Y-91533504D01*
X176918952Y-91533504D01*
X176728476Y-91485885D01*
X176633238Y-91438266D01*
X176538000Y-91343028D01*
X176490380Y-91200171D01*
X176490380Y-91104933D01*
X176538000Y-90962076D01*
X176585619Y-90914457D01*
X176585619Y-90533504D02*
X176538000Y-90485885D01*
X176490380Y-90390647D01*
X176490380Y-90152552D01*
X176538000Y-90057314D01*
X176585619Y-90009695D01*
X176680857Y-89962076D01*
X176776095Y-89962076D01*
X176918952Y-90009695D01*
X177490380Y-90581123D01*
X177490380Y-89962076D01*
X176490380Y-89343028D02*
X176490380Y-89247790D01*
X176538000Y-89152552D01*
X176585619Y-89104933D01*
X176680857Y-89057314D01*
X176871333Y-89009695D01*
X177109428Y-89009695D01*
X177299904Y-89057314D01*
X177395142Y-89104933D01*
X177442761Y-89152552D01*
X177490380Y-89247790D01*
X177490380Y-89343028D01*
X177442761Y-89438266D01*
X177395142Y-89485885D01*
X177299904Y-89533504D01*
X177109428Y-89581123D01*
X176871333Y-89581123D01*
X176680857Y-89533504D01*
X176585619Y-89485885D01*
X176538000Y-89438266D01*
X176490380Y-89343028D01*
%TO.C,C18*%
X174398942Y-110593142D02*
X174351323Y-110640761D01*
X174208466Y-110688380D01*
X174113228Y-110688380D01*
X173970371Y-110640761D01*
X173875133Y-110545523D01*
X173827514Y-110450285D01*
X173779895Y-110259809D01*
X173779895Y-110116952D01*
X173827514Y-109926476D01*
X173875133Y-109831238D01*
X173970371Y-109736000D01*
X174113228Y-109688380D01*
X174208466Y-109688380D01*
X174351323Y-109736000D01*
X174398942Y-109783619D01*
X175351323Y-110688380D02*
X174779895Y-110688380D01*
X175065609Y-110688380D02*
X175065609Y-109688380D01*
X174970371Y-109831238D01*
X174875133Y-109926476D01*
X174779895Y-109974095D01*
X175922752Y-110116952D02*
X175827514Y-110069333D01*
X175779895Y-110021714D01*
X175732276Y-109926476D01*
X175732276Y-109878857D01*
X175779895Y-109783619D01*
X175827514Y-109736000D01*
X175922752Y-109688380D01*
X176113228Y-109688380D01*
X176208466Y-109736000D01*
X176256085Y-109783619D01*
X176303704Y-109878857D01*
X176303704Y-109926476D01*
X176256085Y-110021714D01*
X176208466Y-110069333D01*
X176113228Y-110116952D01*
X175922752Y-110116952D01*
X175827514Y-110164571D01*
X175779895Y-110212190D01*
X175732276Y-110307428D01*
X175732276Y-110497904D01*
X175779895Y-110593142D01*
X175827514Y-110640761D01*
X175922752Y-110688380D01*
X176113228Y-110688380D01*
X176208466Y-110640761D01*
X176256085Y-110593142D01*
X176303704Y-110497904D01*
X176303704Y-110307428D01*
X176256085Y-110212190D01*
X176208466Y-110164571D01*
X176113228Y-110116952D01*
%TO.C,R9*%
X183830933Y-40118780D02*
X183497600Y-39642590D01*
X183259504Y-40118780D02*
X183259504Y-39118780D01*
X183640457Y-39118780D01*
X183735695Y-39166400D01*
X183783314Y-39214019D01*
X183830933Y-39309257D01*
X183830933Y-39452114D01*
X183783314Y-39547352D01*
X183735695Y-39594971D01*
X183640457Y-39642590D01*
X183259504Y-39642590D01*
X184307123Y-40118780D02*
X184497600Y-40118780D01*
X184592838Y-40071161D01*
X184640457Y-40023542D01*
X184735695Y-39880685D01*
X184783314Y-39690209D01*
X184783314Y-39309257D01*
X184735695Y-39214019D01*
X184688076Y-39166400D01*
X184592838Y-39118780D01*
X184402361Y-39118780D01*
X184307123Y-39166400D01*
X184259504Y-39214019D01*
X184211885Y-39309257D01*
X184211885Y-39547352D01*
X184259504Y-39642590D01*
X184307123Y-39690209D01*
X184402361Y-39737828D01*
X184592838Y-39737828D01*
X184688076Y-39690209D01*
X184735695Y-39642590D01*
X184783314Y-39547352D01*
%TO.C,C17*%
X140174742Y-109424742D02*
X140127123Y-109472361D01*
X139984266Y-109519980D01*
X139889028Y-109519980D01*
X139746171Y-109472361D01*
X139650933Y-109377123D01*
X139603314Y-109281885D01*
X139555695Y-109091409D01*
X139555695Y-108948552D01*
X139603314Y-108758076D01*
X139650933Y-108662838D01*
X139746171Y-108567600D01*
X139889028Y-108519980D01*
X139984266Y-108519980D01*
X140127123Y-108567600D01*
X140174742Y-108615219D01*
X141127123Y-109519980D02*
X140555695Y-109519980D01*
X140841409Y-109519980D02*
X140841409Y-108519980D01*
X140746171Y-108662838D01*
X140650933Y-108758076D01*
X140555695Y-108805695D01*
X141460457Y-108519980D02*
X142127123Y-108519980D01*
X141698552Y-109519980D01*
%TO.C,R5*%
X116725980Y-101512666D02*
X116249790Y-101846000D01*
X116725980Y-102084095D02*
X115725980Y-102084095D01*
X115725980Y-101703142D01*
X115773600Y-101607904D01*
X115821219Y-101560285D01*
X115916457Y-101512666D01*
X116059314Y-101512666D01*
X116154552Y-101560285D01*
X116202171Y-101607904D01*
X116249790Y-101703142D01*
X116249790Y-102084095D01*
X115725980Y-100607904D02*
X115725980Y-101084095D01*
X116202171Y-101131714D01*
X116154552Y-101084095D01*
X116106933Y-100988857D01*
X116106933Y-100750761D01*
X116154552Y-100655523D01*
X116202171Y-100607904D01*
X116297409Y-100560285D01*
X116535504Y-100560285D01*
X116630742Y-100607904D01*
X116678361Y-100655523D01*
X116725980Y-100750761D01*
X116725980Y-100988857D01*
X116678361Y-101084095D01*
X116630742Y-101131714D01*
%TO.C,C27*%
X164542742Y-91270057D02*
X164590361Y-91317676D01*
X164637980Y-91460533D01*
X164637980Y-91555771D01*
X164590361Y-91698628D01*
X164495123Y-91793866D01*
X164399885Y-91841485D01*
X164209409Y-91889104D01*
X164066552Y-91889104D01*
X163876076Y-91841485D01*
X163780838Y-91793866D01*
X163685600Y-91698628D01*
X163637980Y-91555771D01*
X163637980Y-91460533D01*
X163685600Y-91317676D01*
X163733219Y-91270057D01*
X163733219Y-90889104D02*
X163685600Y-90841485D01*
X163637980Y-90746247D01*
X163637980Y-90508152D01*
X163685600Y-90412914D01*
X163733219Y-90365295D01*
X163828457Y-90317676D01*
X163923695Y-90317676D01*
X164066552Y-90365295D01*
X164637980Y-90936723D01*
X164637980Y-90317676D01*
X163637980Y-89984342D02*
X163637980Y-89317676D01*
X164637980Y-89746247D01*
%TO.C,C23*%
X162104342Y-93606857D02*
X162151961Y-93654476D01*
X162199580Y-93797333D01*
X162199580Y-93892571D01*
X162151961Y-94035428D01*
X162056723Y-94130666D01*
X161961485Y-94178285D01*
X161771009Y-94225904D01*
X161628152Y-94225904D01*
X161437676Y-94178285D01*
X161342438Y-94130666D01*
X161247200Y-94035428D01*
X161199580Y-93892571D01*
X161199580Y-93797333D01*
X161247200Y-93654476D01*
X161294819Y-93606857D01*
X161294819Y-93225904D02*
X161247200Y-93178285D01*
X161199580Y-93083047D01*
X161199580Y-92844952D01*
X161247200Y-92749714D01*
X161294819Y-92702095D01*
X161390057Y-92654476D01*
X161485295Y-92654476D01*
X161628152Y-92702095D01*
X162199580Y-93273523D01*
X162199580Y-92654476D01*
X161199580Y-92321142D02*
X161199580Y-91702095D01*
X161580533Y-92035428D01*
X161580533Y-91892571D01*
X161628152Y-91797333D01*
X161675771Y-91749714D01*
X161771009Y-91702095D01*
X162009104Y-91702095D01*
X162104342Y-91749714D01*
X162151961Y-91797333D01*
X162199580Y-91892571D01*
X162199580Y-92178285D01*
X162151961Y-92273523D01*
X162104342Y-92321142D01*
%TO.C,C11*%
X132437142Y-114485657D02*
X132484761Y-114533276D01*
X132532380Y-114676133D01*
X132532380Y-114771371D01*
X132484761Y-114914228D01*
X132389523Y-115009466D01*
X132294285Y-115057085D01*
X132103809Y-115104704D01*
X131960952Y-115104704D01*
X131770476Y-115057085D01*
X131675238Y-115009466D01*
X131580000Y-114914228D01*
X131532380Y-114771371D01*
X131532380Y-114676133D01*
X131580000Y-114533276D01*
X131627619Y-114485657D01*
X132532380Y-113533276D02*
X132532380Y-114104704D01*
X132532380Y-113818990D02*
X131532380Y-113818990D01*
X131675238Y-113914228D01*
X131770476Y-114009466D01*
X131818095Y-114104704D01*
X132532380Y-112580895D02*
X132532380Y-113152323D01*
X132532380Y-112866609D02*
X131532380Y-112866609D01*
X131675238Y-112961847D01*
X131770476Y-113057085D01*
X131818095Y-113152323D01*
%TO.C,R8*%
X146594533Y-116531980D02*
X146261200Y-116055790D01*
X146023104Y-116531980D02*
X146023104Y-115531980D01*
X146404057Y-115531980D01*
X146499295Y-115579600D01*
X146546914Y-115627219D01*
X146594533Y-115722457D01*
X146594533Y-115865314D01*
X146546914Y-115960552D01*
X146499295Y-116008171D01*
X146404057Y-116055790D01*
X146023104Y-116055790D01*
X147165961Y-115960552D02*
X147070723Y-115912933D01*
X147023104Y-115865314D01*
X146975485Y-115770076D01*
X146975485Y-115722457D01*
X147023104Y-115627219D01*
X147070723Y-115579600D01*
X147165961Y-115531980D01*
X147356438Y-115531980D01*
X147451676Y-115579600D01*
X147499295Y-115627219D01*
X147546914Y-115722457D01*
X147546914Y-115770076D01*
X147499295Y-115865314D01*
X147451676Y-115912933D01*
X147356438Y-115960552D01*
X147165961Y-115960552D01*
X147070723Y-116008171D01*
X147023104Y-116055790D01*
X146975485Y-116151028D01*
X146975485Y-116341504D01*
X147023104Y-116436742D01*
X147070723Y-116484361D01*
X147165961Y-116531980D01*
X147356438Y-116531980D01*
X147451676Y-116484361D01*
X147499295Y-116436742D01*
X147546914Y-116341504D01*
X147546914Y-116151028D01*
X147499295Y-116055790D01*
X147451676Y-116008171D01*
X147356438Y-115960552D01*
D10*
%TO.C,IC1*%
X128205123Y-108681761D02*
X126935123Y-108681761D01*
X128084171Y-107351285D02*
X128144647Y-107411761D01*
X128205123Y-107593190D01*
X128205123Y-107714142D01*
X128144647Y-107895571D01*
X128023695Y-108016523D01*
X127902742Y-108077000D01*
X127660838Y-108137476D01*
X127479409Y-108137476D01*
X127237504Y-108077000D01*
X127116552Y-108016523D01*
X126995600Y-107895571D01*
X126935123Y-107714142D01*
X126935123Y-107593190D01*
X126995600Y-107411761D01*
X127056076Y-107351285D01*
X128205123Y-106141761D02*
X128205123Y-106867476D01*
X128205123Y-106504619D02*
X126935123Y-106504619D01*
X127116552Y-106625571D01*
X127237504Y-106746523D01*
X127297980Y-106867476D01*
%TO.C,IC5*%
X143235438Y-86731323D02*
X143235438Y-85461323D01*
X144565914Y-86610371D02*
X144505438Y-86670847D01*
X144324009Y-86731323D01*
X144203057Y-86731323D01*
X144021628Y-86670847D01*
X143900676Y-86549895D01*
X143840200Y-86428942D01*
X143779723Y-86187038D01*
X143779723Y-86005609D01*
X143840200Y-85763704D01*
X143900676Y-85642752D01*
X144021628Y-85521800D01*
X144203057Y-85461323D01*
X144324009Y-85461323D01*
X144505438Y-85521800D01*
X144565914Y-85582276D01*
X145714961Y-85461323D02*
X145110200Y-85461323D01*
X145049723Y-86066085D01*
X145110200Y-86005609D01*
X145231152Y-85945133D01*
X145533533Y-85945133D01*
X145654485Y-86005609D01*
X145714961Y-86066085D01*
X145775438Y-86187038D01*
X145775438Y-86489419D01*
X145714961Y-86610371D01*
X145654485Y-86670847D01*
X145533533Y-86731323D01*
X145231152Y-86731323D01*
X145110200Y-86670847D01*
X145049723Y-86610371D01*
%TO.C,U2*%
X51374523Y-68785619D02*
X52402619Y-68785619D01*
X52523571Y-68725142D01*
X52584047Y-68664666D01*
X52644523Y-68543714D01*
X52644523Y-68301809D01*
X52584047Y-68180857D01*
X52523571Y-68120380D01*
X52402619Y-68059904D01*
X51374523Y-68059904D01*
X51495476Y-67515619D02*
X51435000Y-67455142D01*
X51374523Y-67334190D01*
X51374523Y-67031809D01*
X51435000Y-66910857D01*
X51495476Y-66850380D01*
X51616428Y-66789904D01*
X51737380Y-66789904D01*
X51918809Y-66850380D01*
X52644523Y-67576095D01*
X52644523Y-66789904D01*
D11*
%TO.C,C24*%
X176125142Y-90863657D02*
X176172761Y-90911276D01*
X176220380Y-91054133D01*
X176220380Y-91149371D01*
X176172761Y-91292228D01*
X176077523Y-91387466D01*
X175982285Y-91435085D01*
X175791809Y-91482704D01*
X175648952Y-91482704D01*
X175458476Y-91435085D01*
X175363238Y-91387466D01*
X175268000Y-91292228D01*
X175220380Y-91149371D01*
X175220380Y-91054133D01*
X175268000Y-90911276D01*
X175315619Y-90863657D01*
X175315619Y-90482704D02*
X175268000Y-90435085D01*
X175220380Y-90339847D01*
X175220380Y-90101752D01*
X175268000Y-90006514D01*
X175315619Y-89958895D01*
X175410857Y-89911276D01*
X175506095Y-89911276D01*
X175648952Y-89958895D01*
X176220380Y-90530323D01*
X176220380Y-89911276D01*
X175553714Y-89054133D02*
X176220380Y-89054133D01*
X175172761Y-89292228D02*
X175887047Y-89530323D01*
X175887047Y-88911276D01*
%TO.C,C3*%
X122667733Y-105115142D02*
X122620114Y-105162761D01*
X122477257Y-105210380D01*
X122382019Y-105210380D01*
X122239161Y-105162761D01*
X122143923Y-105067523D01*
X122096304Y-104972285D01*
X122048685Y-104781809D01*
X122048685Y-104638952D01*
X122096304Y-104448476D01*
X122143923Y-104353238D01*
X122239161Y-104258000D01*
X122382019Y-104210380D01*
X122477257Y-104210380D01*
X122620114Y-104258000D01*
X122667733Y-104305619D01*
X123001066Y-104210380D02*
X123620114Y-104210380D01*
X123286780Y-104591333D01*
X123429638Y-104591333D01*
X123524876Y-104638952D01*
X123572495Y-104686571D01*
X123620114Y-104781809D01*
X123620114Y-105019904D01*
X123572495Y-105115142D01*
X123524876Y-105162761D01*
X123429638Y-105210380D01*
X123143923Y-105210380D01*
X123048685Y-105162761D01*
X123001066Y-105115142D01*
%TO.C,C14*%
X146118342Y-113895142D02*
X146070723Y-113942761D01*
X145927866Y-113990380D01*
X145832628Y-113990380D01*
X145689771Y-113942761D01*
X145594533Y-113847523D01*
X145546914Y-113752285D01*
X145499295Y-113561809D01*
X145499295Y-113418952D01*
X145546914Y-113228476D01*
X145594533Y-113133238D01*
X145689771Y-113038000D01*
X145832628Y-112990380D01*
X145927866Y-112990380D01*
X146070723Y-113038000D01*
X146118342Y-113085619D01*
X147070723Y-113990380D02*
X146499295Y-113990380D01*
X146785009Y-113990380D02*
X146785009Y-112990380D01*
X146689771Y-113133238D01*
X146594533Y-113228476D01*
X146499295Y-113276095D01*
X147927866Y-113323714D02*
X147927866Y-113990380D01*
X147689771Y-112942761D02*
X147451676Y-113657047D01*
X148070723Y-113657047D01*
%TO.C,C26*%
X132554742Y-105357142D02*
X132507123Y-105404761D01*
X132364266Y-105452380D01*
X132269028Y-105452380D01*
X132126171Y-105404761D01*
X132030933Y-105309523D01*
X131983314Y-105214285D01*
X131935695Y-105023809D01*
X131935695Y-104880952D01*
X131983314Y-104690476D01*
X132030933Y-104595238D01*
X132126171Y-104500000D01*
X132269028Y-104452380D01*
X132364266Y-104452380D01*
X132507123Y-104500000D01*
X132554742Y-104547619D01*
X132935695Y-104547619D02*
X132983314Y-104500000D01*
X133078552Y-104452380D01*
X133316647Y-104452380D01*
X133411885Y-104500000D01*
X133459504Y-104547619D01*
X133507123Y-104642857D01*
X133507123Y-104738095D01*
X133459504Y-104880952D01*
X132888076Y-105452380D01*
X133507123Y-105452380D01*
X134364266Y-104452380D02*
X134173790Y-104452380D01*
X134078552Y-104500000D01*
X134030933Y-104547619D01*
X133935695Y-104690476D01*
X133888076Y-104880952D01*
X133888076Y-105261904D01*
X133935695Y-105357142D01*
X133983314Y-105404761D01*
X134078552Y-105452380D01*
X134269028Y-105452380D01*
X134364266Y-105404761D01*
X134411885Y-105357142D01*
X134459504Y-105261904D01*
X134459504Y-105023809D01*
X134411885Y-104928571D01*
X134364266Y-104880952D01*
X134269028Y-104833333D01*
X134078552Y-104833333D01*
X133983314Y-104880952D01*
X133935695Y-104928571D01*
X133888076Y-105023809D01*
%TO.C,R4*%
X123843980Y-111672666D02*
X123367790Y-112006000D01*
X123843980Y-112244095D02*
X122843980Y-112244095D01*
X122843980Y-111863142D01*
X122891600Y-111767904D01*
X122939219Y-111720285D01*
X123034457Y-111672666D01*
X123177314Y-111672666D01*
X123272552Y-111720285D01*
X123320171Y-111767904D01*
X123367790Y-111863142D01*
X123367790Y-112244095D01*
X123177314Y-110815523D02*
X123843980Y-110815523D01*
X122796361Y-111053619D02*
X123510647Y-111291714D01*
X123510647Y-110672666D01*
%TO.C,R2*%
X133030933Y-103222380D02*
X132697600Y-102746190D01*
X132459504Y-103222380D02*
X132459504Y-102222380D01*
X132840457Y-102222380D01*
X132935695Y-102270000D01*
X132983314Y-102317619D01*
X133030933Y-102412857D01*
X133030933Y-102555714D01*
X132983314Y-102650952D01*
X132935695Y-102698571D01*
X132840457Y-102746190D01*
X132459504Y-102746190D01*
X133411885Y-102317619D02*
X133459504Y-102270000D01*
X133554742Y-102222380D01*
X133792838Y-102222380D01*
X133888076Y-102270000D01*
X133935695Y-102317619D01*
X133983314Y-102412857D01*
X133983314Y-102508095D01*
X133935695Y-102650952D01*
X133364266Y-103222380D01*
X133983314Y-103222380D01*
%TO.C,TP2*%
X128125695Y-98904380D02*
X128697123Y-98904380D01*
X128411409Y-99904380D02*
X128411409Y-98904380D01*
X129030457Y-99904380D02*
X129030457Y-98904380D01*
X129411409Y-98904380D01*
X129506647Y-98952000D01*
X129554266Y-98999619D01*
X129601885Y-99094857D01*
X129601885Y-99237714D01*
X129554266Y-99332952D01*
X129506647Y-99380571D01*
X129411409Y-99428190D01*
X129030457Y-99428190D01*
X129982838Y-98999619D02*
X130030457Y-98952000D01*
X130125695Y-98904380D01*
X130363790Y-98904380D01*
X130459028Y-98952000D01*
X130506647Y-98999619D01*
X130554266Y-99094857D01*
X130554266Y-99190095D01*
X130506647Y-99332952D01*
X129935219Y-99904380D01*
X130554266Y-99904380D01*
%TO.C,U5*%
X130048095Y-60674380D02*
X130048095Y-61483904D01*
X130095714Y-61579142D01*
X130143333Y-61626761D01*
X130238571Y-61674380D01*
X130429047Y-61674380D01*
X130524285Y-61626761D01*
X130571904Y-61579142D01*
X130619523Y-61483904D01*
X130619523Y-60674380D01*
X131571904Y-60674380D02*
X131095714Y-60674380D01*
X131048095Y-61150571D01*
X131095714Y-61102952D01*
X131190952Y-61055333D01*
X131429047Y-61055333D01*
X131524285Y-61102952D01*
X131571904Y-61150571D01*
X131619523Y-61245809D01*
X131619523Y-61483904D01*
X131571904Y-61579142D01*
X131524285Y-61626761D01*
X131429047Y-61674380D01*
X131190952Y-61674380D01*
X131095714Y-61626761D01*
X131048095Y-61579142D01*
%TO.C,C21*%
X174566342Y-100179142D02*
X174518723Y-100226761D01*
X174375866Y-100274380D01*
X174280628Y-100274380D01*
X174137771Y-100226761D01*
X174042533Y-100131523D01*
X173994914Y-100036285D01*
X173947295Y-99845809D01*
X173947295Y-99702952D01*
X173994914Y-99512476D01*
X174042533Y-99417238D01*
X174137771Y-99322000D01*
X174280628Y-99274380D01*
X174375866Y-99274380D01*
X174518723Y-99322000D01*
X174566342Y-99369619D01*
X174947295Y-99369619D02*
X174994914Y-99322000D01*
X175090152Y-99274380D01*
X175328247Y-99274380D01*
X175423485Y-99322000D01*
X175471104Y-99369619D01*
X175518723Y-99464857D01*
X175518723Y-99560095D01*
X175471104Y-99702952D01*
X174899676Y-100274380D01*
X175518723Y-100274380D01*
X176471104Y-100274380D02*
X175899676Y-100274380D01*
X176185390Y-100274380D02*
X176185390Y-99274380D01*
X176090152Y-99417238D01*
X175994914Y-99512476D01*
X175899676Y-99560095D01*
%TO.C,C6*%
X127458742Y-115838266D02*
X127506361Y-115885885D01*
X127553980Y-116028742D01*
X127553980Y-116123980D01*
X127506361Y-116266838D01*
X127411123Y-116362076D01*
X127315885Y-116409695D01*
X127125409Y-116457314D01*
X126982552Y-116457314D01*
X126792076Y-116409695D01*
X126696838Y-116362076D01*
X126601600Y-116266838D01*
X126553980Y-116123980D01*
X126553980Y-116028742D01*
X126601600Y-115885885D01*
X126649219Y-115838266D01*
X126553980Y-114981123D02*
X126553980Y-115171600D01*
X126601600Y-115266838D01*
X126649219Y-115314457D01*
X126792076Y-115409695D01*
X126982552Y-115457314D01*
X127363504Y-115457314D01*
X127458742Y-115409695D01*
X127506361Y-115362076D01*
X127553980Y-115266838D01*
X127553980Y-115076361D01*
X127506361Y-114981123D01*
X127458742Y-114933504D01*
X127363504Y-114885885D01*
X127125409Y-114885885D01*
X127030171Y-114933504D01*
X126982552Y-114981123D01*
X126934933Y-115076361D01*
X126934933Y-115266838D01*
X126982552Y-115362076D01*
X127030171Y-115409695D01*
X127125409Y-115457314D01*
%TO.C,R1*%
X135316933Y-103222380D02*
X134983600Y-102746190D01*
X134745504Y-103222380D02*
X134745504Y-102222380D01*
X135126457Y-102222380D01*
X135221695Y-102270000D01*
X135269314Y-102317619D01*
X135316933Y-102412857D01*
X135316933Y-102555714D01*
X135269314Y-102650952D01*
X135221695Y-102698571D01*
X135126457Y-102746190D01*
X134745504Y-102746190D01*
X136269314Y-103222380D02*
X135697885Y-103222380D01*
X135983600Y-103222380D02*
X135983600Y-102222380D01*
X135888361Y-102365238D01*
X135793123Y-102460476D01*
X135697885Y-102508095D01*
%TO.C,J3*%
X73123466Y-126699580D02*
X73123466Y-127413866D01*
X73075847Y-127556723D01*
X72980609Y-127651961D01*
X72837752Y-127699580D01*
X72742514Y-127699580D01*
X73504419Y-126699580D02*
X74123466Y-126699580D01*
X73790133Y-127080533D01*
X73932990Y-127080533D01*
X74028228Y-127128152D01*
X74075847Y-127175771D01*
X74123466Y-127271009D01*
X74123466Y-127509104D01*
X74075847Y-127604342D01*
X74028228Y-127651961D01*
X73932990Y-127699580D01*
X73647276Y-127699580D01*
X73552038Y-127651961D01*
X73504419Y-127604342D01*
%TO.C,C1*%
X124918742Y-98109066D02*
X124966361Y-98156685D01*
X125013980Y-98299542D01*
X125013980Y-98394780D01*
X124966361Y-98537638D01*
X124871123Y-98632876D01*
X124775885Y-98680495D01*
X124585409Y-98728114D01*
X124442552Y-98728114D01*
X124252076Y-98680495D01*
X124156838Y-98632876D01*
X124061600Y-98537638D01*
X124013980Y-98394780D01*
X124013980Y-98299542D01*
X124061600Y-98156685D01*
X124109219Y-98109066D01*
X125013980Y-97156685D02*
X125013980Y-97728114D01*
X125013980Y-97442400D02*
X124013980Y-97442400D01*
X124156838Y-97537638D01*
X124252076Y-97632876D01*
X124299695Y-97728114D01*
D10*
%TO.C,IC2*%
X119511838Y-100904523D02*
X119511838Y-99634523D01*
X120842314Y-100783571D02*
X120781838Y-100844047D01*
X120600409Y-100904523D01*
X120479457Y-100904523D01*
X120298028Y-100844047D01*
X120177076Y-100723095D01*
X120116600Y-100602142D01*
X120056123Y-100360238D01*
X120056123Y-100178809D01*
X120116600Y-99936904D01*
X120177076Y-99815952D01*
X120298028Y-99695000D01*
X120479457Y-99634523D01*
X120600409Y-99634523D01*
X120781838Y-99695000D01*
X120842314Y-99755476D01*
X121326123Y-99755476D02*
X121386600Y-99695000D01*
X121507552Y-99634523D01*
X121809933Y-99634523D01*
X121930885Y-99695000D01*
X121991361Y-99755476D01*
X122051838Y-99876428D01*
X122051838Y-99997380D01*
X121991361Y-100178809D01*
X121265647Y-100904523D01*
X122051838Y-100904523D01*
D11*
%TO.C,R3*%
X120229333Y-107386380D02*
X119896000Y-106910190D01*
X119657904Y-107386380D02*
X119657904Y-106386380D01*
X120038857Y-106386380D01*
X120134095Y-106434000D01*
X120181714Y-106481619D01*
X120229333Y-106576857D01*
X120229333Y-106719714D01*
X120181714Y-106814952D01*
X120134095Y-106862571D01*
X120038857Y-106910190D01*
X119657904Y-106910190D01*
X120562666Y-106386380D02*
X121181714Y-106386380D01*
X120848380Y-106767333D01*
X120991238Y-106767333D01*
X121086476Y-106814952D01*
X121134095Y-106862571D01*
X121181714Y-106957809D01*
X121181714Y-107195904D01*
X121134095Y-107291142D01*
X121086476Y-107338761D01*
X120991238Y-107386380D01*
X120705523Y-107386380D01*
X120610285Y-107338761D01*
X120562666Y-107291142D01*
%TO.C,R6*%
X118857733Y-104338380D02*
X118524400Y-103862190D01*
X118286304Y-104338380D02*
X118286304Y-103338380D01*
X118667257Y-103338380D01*
X118762495Y-103386000D01*
X118810114Y-103433619D01*
X118857733Y-103528857D01*
X118857733Y-103671714D01*
X118810114Y-103766952D01*
X118762495Y-103814571D01*
X118667257Y-103862190D01*
X118286304Y-103862190D01*
X119714876Y-103338380D02*
X119524400Y-103338380D01*
X119429161Y-103386000D01*
X119381542Y-103433619D01*
X119286304Y-103576476D01*
X119238685Y-103766952D01*
X119238685Y-104147904D01*
X119286304Y-104243142D01*
X119333923Y-104290761D01*
X119429161Y-104338380D01*
X119619638Y-104338380D01*
X119714876Y-104290761D01*
X119762495Y-104243142D01*
X119810114Y-104147904D01*
X119810114Y-103909809D01*
X119762495Y-103814571D01*
X119714876Y-103766952D01*
X119619638Y-103719333D01*
X119429161Y-103719333D01*
X119333923Y-103766952D01*
X119286304Y-103814571D01*
X119238685Y-103909809D01*
D10*
%TO.C,Q2*%
X130384247Y-32902676D02*
X130263295Y-32842200D01*
X130142342Y-32721247D01*
X129960914Y-32539819D01*
X129839961Y-32479342D01*
X129719009Y-32479342D01*
X129779485Y-32781723D02*
X129658533Y-32721247D01*
X129537580Y-32600295D01*
X129477104Y-32358390D01*
X129477104Y-31935057D01*
X129537580Y-31693152D01*
X129658533Y-31572200D01*
X129779485Y-31511723D01*
X130021390Y-31511723D01*
X130142342Y-31572200D01*
X130263295Y-31693152D01*
X130323771Y-31935057D01*
X130323771Y-32358390D01*
X130263295Y-32600295D01*
X130142342Y-32721247D01*
X130021390Y-32781723D01*
X129779485Y-32781723D01*
X130807580Y-31632676D02*
X130868057Y-31572200D01*
X130989009Y-31511723D01*
X131291390Y-31511723D01*
X131412342Y-31572200D01*
X131472819Y-31632676D01*
X131533295Y-31753628D01*
X131533295Y-31874580D01*
X131472819Y-32056009D01*
X130747104Y-32781723D01*
X131533295Y-32781723D01*
%TO.C,J1*%
X199982666Y-101564923D02*
X199982666Y-102472066D01*
X199922190Y-102653495D01*
X199801238Y-102774447D01*
X199619809Y-102834923D01*
X199498857Y-102834923D01*
X201252666Y-102834923D02*
X200526952Y-102834923D01*
X200889809Y-102834923D02*
X200889809Y-101564923D01*
X200768857Y-101746352D01*
X200647904Y-101867304D01*
X200526952Y-101927780D01*
D11*
%TO.C,C9*%
X137517142Y-134989866D02*
X137564761Y-135037485D01*
X137612380Y-135180342D01*
X137612380Y-135275580D01*
X137564761Y-135418438D01*
X137469523Y-135513676D01*
X137374285Y-135561295D01*
X137183809Y-135608914D01*
X137040952Y-135608914D01*
X136850476Y-135561295D01*
X136755238Y-135513676D01*
X136660000Y-135418438D01*
X136612380Y-135275580D01*
X136612380Y-135180342D01*
X136660000Y-135037485D01*
X136707619Y-134989866D01*
X137612380Y-134513676D02*
X137612380Y-134323200D01*
X137564761Y-134227961D01*
X137517142Y-134180342D01*
X137374285Y-134085104D01*
X137183809Y-134037485D01*
X136802857Y-134037485D01*
X136707619Y-134085104D01*
X136660000Y-134132723D01*
X136612380Y-134227961D01*
X136612380Y-134418438D01*
X136660000Y-134513676D01*
X136707619Y-134561295D01*
X136802857Y-134608914D01*
X137040952Y-134608914D01*
X137136190Y-134561295D01*
X137183809Y-134513676D01*
X137231428Y-134418438D01*
X137231428Y-134227961D01*
X137183809Y-134132723D01*
X137136190Y-134085104D01*
X137040952Y-134037485D01*
%TO.C,C5*%
X129490742Y-115838266D02*
X129538361Y-115885885D01*
X129585980Y-116028742D01*
X129585980Y-116123980D01*
X129538361Y-116266838D01*
X129443123Y-116362076D01*
X129347885Y-116409695D01*
X129157409Y-116457314D01*
X129014552Y-116457314D01*
X128824076Y-116409695D01*
X128728838Y-116362076D01*
X128633600Y-116266838D01*
X128585980Y-116123980D01*
X128585980Y-116028742D01*
X128633600Y-115885885D01*
X128681219Y-115838266D01*
X128585980Y-114933504D02*
X128585980Y-115409695D01*
X129062171Y-115457314D01*
X129014552Y-115409695D01*
X128966933Y-115314457D01*
X128966933Y-115076361D01*
X129014552Y-114981123D01*
X129062171Y-114933504D01*
X129157409Y-114885885D01*
X129395504Y-114885885D01*
X129490742Y-114933504D01*
X129538361Y-114981123D01*
X129585980Y-115076361D01*
X129585980Y-115314457D01*
X129538361Y-115409695D01*
X129490742Y-115457314D01*
D10*
%TO.C,U3*%
X146878523Y-108308019D02*
X147906619Y-108308019D01*
X148027571Y-108247542D01*
X148088047Y-108187066D01*
X148148523Y-108066114D01*
X148148523Y-107824209D01*
X148088047Y-107703257D01*
X148027571Y-107642780D01*
X147906619Y-107582304D01*
X146878523Y-107582304D01*
X146878523Y-107098495D02*
X146878523Y-106312304D01*
X147362333Y-106735638D01*
X147362333Y-106554209D01*
X147422809Y-106433257D01*
X147483285Y-106372780D01*
X147604238Y-106312304D01*
X147906619Y-106312304D01*
X148027571Y-106372780D01*
X148088047Y-106433257D01*
X148148523Y-106554209D01*
X148148523Y-106917066D01*
X148088047Y-107038019D01*
X148027571Y-107098495D01*
%TO.C,U1*%
X93284523Y-68785619D02*
X94312619Y-68785619D01*
X94433571Y-68725142D01*
X94494047Y-68664666D01*
X94554523Y-68543714D01*
X94554523Y-68301809D01*
X94494047Y-68180857D01*
X94433571Y-68120380D01*
X94312619Y-68059904D01*
X93284523Y-68059904D01*
X94554523Y-66789904D02*
X94554523Y-67515619D01*
X94554523Y-67152761D02*
X93284523Y-67152761D01*
X93465952Y-67273714D01*
X93586904Y-67394666D01*
X93647380Y-67515619D01*
D11*
%TO.C,C8*%
X135383542Y-134989866D02*
X135431161Y-135037485D01*
X135478780Y-135180342D01*
X135478780Y-135275580D01*
X135431161Y-135418438D01*
X135335923Y-135513676D01*
X135240685Y-135561295D01*
X135050209Y-135608914D01*
X134907352Y-135608914D01*
X134716876Y-135561295D01*
X134621638Y-135513676D01*
X134526400Y-135418438D01*
X134478780Y-135275580D01*
X134478780Y-135180342D01*
X134526400Y-135037485D01*
X134574019Y-134989866D01*
X134907352Y-134418438D02*
X134859733Y-134513676D01*
X134812114Y-134561295D01*
X134716876Y-134608914D01*
X134669257Y-134608914D01*
X134574019Y-134561295D01*
X134526400Y-134513676D01*
X134478780Y-134418438D01*
X134478780Y-134227961D01*
X134526400Y-134132723D01*
X134574019Y-134085104D01*
X134669257Y-134037485D01*
X134716876Y-134037485D01*
X134812114Y-134085104D01*
X134859733Y-134132723D01*
X134907352Y-134227961D01*
X134907352Y-134418438D01*
X134954971Y-134513676D01*
X135002590Y-134561295D01*
X135097828Y-134608914D01*
X135288304Y-134608914D01*
X135383542Y-134561295D01*
X135431161Y-134513676D01*
X135478780Y-134418438D01*
X135478780Y-134227961D01*
X135431161Y-134132723D01*
X135383542Y-134085104D01*
X135288304Y-134037485D01*
X135097828Y-134037485D01*
X135002590Y-134085104D01*
X134954971Y-134132723D01*
X134907352Y-134227961D01*
D12*
%TO.C,IC4*%
X173076000Y-89814000D02*
X173076000Y-96114000D01*
X173076000Y-96114000D02*
X166776000Y-96114000D01*
X166776000Y-96114000D02*
X166776000Y-89814000D01*
X166776000Y-89814000D02*
X173076000Y-89814000D01*
D13*
X173551000Y-88239000D02*
G75*
G03*
X173551000Y-88239000I-125000J0D01*
G01*
D14*
%TO.C,C19*%
X170477548Y-86485400D02*
X171000052Y-86485400D01*
X170477548Y-85015400D02*
X171000052Y-85015400D01*
%TO.C,C16*%
X150970348Y-113765000D02*
X151492852Y-113765000D01*
X150970348Y-112295000D02*
X151492852Y-112295000D01*
%TO.C,C15*%
X150970348Y-111377400D02*
X151492852Y-111377400D01*
X150970348Y-109907400D02*
X151492852Y-109907400D01*
%TO.C,C13*%
X143892600Y-112870348D02*
X143892600Y-113392852D01*
X145362600Y-112870348D02*
X145362600Y-113392852D01*
%TO.C,C10*%
X133343764Y-111400000D02*
X133559436Y-111400000D01*
X133343764Y-112120000D02*
X133559436Y-112120000D01*
%TO.C,TP1*%
X102182000Y-27358000D02*
X102182000Y-24458000D01*
X102182000Y-24458000D02*
X105082000Y-24458000D01*
X105082000Y-24458000D02*
X105082000Y-27358000D01*
X105082000Y-27358000D02*
X102182000Y-27358000D01*
%TO.C,C4*%
X117597600Y-98913836D02*
X117597600Y-98698164D01*
X118317600Y-98913836D02*
X118317600Y-98698164D01*
%TO.C,R7*%
X148845241Y-114529600D02*
X148537959Y-114529600D01*
X148845241Y-115289600D02*
X148537959Y-115289600D01*
D15*
%TO.C,IC3*%
X134607600Y-111318000D02*
X134607600Y-111318000D01*
X134507600Y-111318000D02*
X134507600Y-111318000D01*
X134607600Y-111318000D02*
G75*
G03*
X134507600Y-111318000I-50000J0D01*
G01*
X134507600Y-111318000D02*
G75*
G03*
X134607600Y-111318000I50000J0D01*
G01*
D14*
%TO.C,TH1*%
X113867200Y-108558359D02*
X113867200Y-108865641D01*
X113107200Y-108558359D02*
X113107200Y-108865641D01*
%TO.C,C7*%
X138457000Y-130802748D02*
X138457000Y-131325252D01*
X139927000Y-130802748D02*
X139927000Y-131325252D01*
%TO.C,J4*%
X172415200Y-112512800D02*
X177555200Y-112512800D01*
X177555200Y-115172800D02*
X177555200Y-112512800D01*
X169815200Y-115172800D02*
X169815200Y-113842800D01*
X171145200Y-115172800D02*
X169815200Y-115172800D01*
X172415200Y-115172800D02*
X177555200Y-115172800D01*
X172415200Y-115172800D02*
X172415200Y-112512800D01*
%TO.C,J5*%
X188961000Y-82032800D02*
X183821000Y-82032800D01*
X188961000Y-82032800D02*
X188961000Y-84692800D01*
X190231000Y-82032800D02*
X191561000Y-82032800D01*
X188961000Y-84692800D02*
X183821000Y-84692800D01*
X183821000Y-82032800D02*
X183821000Y-84692800D01*
X191561000Y-82032800D02*
X191561000Y-83362800D01*
%TO.C,U4*%
X147066000Y-29210000D02*
X177546000Y-29210000D01*
X177546000Y-29210000D02*
X177546000Y-85090000D01*
X177546000Y-85090000D02*
X147066000Y-85090000D01*
X147066000Y-85090000D02*
X147066000Y-29210000D01*
%TO.C,C12*%
X140307600Y-112889420D02*
X140307600Y-113170580D01*
X141327600Y-112889420D02*
X141327600Y-113170580D01*
D12*
%TO.C,IC6*%
X143325200Y-94667200D02*
X143325200Y-91667200D01*
X143325200Y-91667200D02*
X145625200Y-91667200D01*
X145625200Y-94667200D02*
X143325200Y-94667200D01*
X145625200Y-91667200D02*
X145625200Y-94667200D01*
X141550200Y-91617200D02*
X142975200Y-91617200D01*
D14*
%TO.C,C22*%
X170173764Y-87583600D02*
X170389436Y-87583600D01*
X170173764Y-86863600D02*
X170389436Y-86863600D01*
D12*
%TO.C,J2*%
X192195200Y-39202000D02*
X192195200Y-39202000D01*
X192395200Y-39202000D02*
X192395200Y-39202000D01*
D15*
X182670200Y-53077000D02*
X182670200Y-55827000D01*
X197720200Y-55827000D02*
X197720200Y-53077000D01*
X182670200Y-55827000D02*
X197720200Y-55827000D01*
X182670200Y-44077000D02*
X182670200Y-49502000D01*
X192995200Y-41077000D02*
X197195200Y-41077000D01*
X197720200Y-44077000D02*
X197720200Y-49502000D01*
D12*
X192195200Y-39202000D02*
G75*
G03*
X192395200Y-39202000I100000J0D01*
G01*
X192395200Y-39202000D02*
G75*
G03*
X192195200Y-39202000I-100000J0D01*
G01*
D14*
%TO.C,L2*%
X145128064Y-105320000D02*
X143923936Y-105320000D01*
X145128064Y-108040000D02*
X143923936Y-108040000D01*
%TO.C,C2*%
X127328600Y-101607252D02*
X127328600Y-101084748D01*
X125858600Y-101607252D02*
X125858600Y-101084748D01*
D12*
%TO.C,Q1*%
X162327000Y-42090000D02*
X161777000Y-42090000D01*
X160177000Y-39090000D02*
X161427000Y-39090000D01*
X161777000Y-42090000D02*
X161777000Y-39190000D01*
X162327000Y-39190000D02*
X162327000Y-42090000D01*
X161777000Y-39190000D02*
X162327000Y-39190000D01*
D14*
%TO.C,C25*%
X172878636Y-99013600D02*
X172662964Y-99013600D01*
X172878636Y-98293600D02*
X172662964Y-98293600D01*
%TO.C,L1*%
X140307600Y-116128000D02*
X143307600Y-116128000D01*
X143307600Y-116128000D02*
X143307600Y-128728000D01*
X130707600Y-128728000D02*
X130707600Y-116128000D01*
X133707600Y-128728000D02*
X130707600Y-128728000D01*
X130707600Y-116128000D02*
X133707600Y-116128000D01*
X143307600Y-128728000D02*
X140307600Y-128728000D01*
%TO.C,C20*%
X176271600Y-92602164D02*
X176271600Y-92817836D01*
X176991600Y-92602164D02*
X176991600Y-92817836D01*
%TO.C,C18*%
X175149636Y-111095200D02*
X174933964Y-111095200D01*
X175149636Y-111815200D02*
X174933964Y-111815200D01*
%TO.C,R9*%
X184105436Y-38146400D02*
X183889764Y-38146400D01*
X184105436Y-38866400D02*
X183889764Y-38866400D01*
%TO.C,C17*%
X140958180Y-110234000D02*
X140677020Y-110234000D01*
X140958180Y-111254000D02*
X140677020Y-111254000D01*
%TO.C,R5*%
X117181100Y-101583258D02*
X117181100Y-101108742D01*
X118226100Y-101583258D02*
X118226100Y-101108742D01*
%TO.C,C27*%
X163825600Y-92856164D02*
X163825600Y-93071836D01*
X164545600Y-92856164D02*
X164545600Y-93071836D01*
%TO.C,C23*%
X163580400Y-92856164D02*
X163580400Y-93071836D01*
X162860400Y-92856164D02*
X162860400Y-93071836D01*
%TO.C,C11*%
X133707600Y-113651420D02*
X133707600Y-113932580D01*
X132687600Y-113651420D02*
X132687600Y-113932580D01*
%TO.C,R8*%
X146914841Y-114529600D02*
X146607559Y-114529600D01*
X146914841Y-115289600D02*
X146607559Y-115289600D01*
D12*
%TO.C,IC1*%
X130255600Y-106842000D02*
X130255600Y-106842000D01*
D15*
X125355600Y-105692000D02*
X125105600Y-105692000D01*
X125105600Y-109192000D02*
X125105600Y-108942000D01*
X129605600Y-108942000D02*
X129605600Y-109192000D01*
X125355600Y-109192000D02*
X125105600Y-109192000D01*
X129605600Y-105692000D02*
X129355600Y-105692000D01*
D12*
X130255600Y-106642000D02*
X130255600Y-106642000D01*
D15*
X125105600Y-105692000D02*
X125105600Y-105942000D01*
X129605600Y-109192000D02*
X129355600Y-109192000D01*
X129605600Y-105942000D02*
X129605600Y-105692000D01*
D12*
X130255600Y-106842000D02*
G75*
G03*
X130255600Y-106642000I0J100000D01*
G01*
X130255600Y-106642000D02*
G75*
G03*
X130255600Y-106842000I0J-100000D01*
G01*
%TO.C,IC5*%
X143325200Y-90908000D02*
X143325200Y-87908000D01*
X141550200Y-87858000D02*
X142975200Y-87858000D01*
X143325200Y-87908000D02*
X145625200Y-87908000D01*
X145625200Y-90908000D02*
X143325200Y-90908000D01*
X145625200Y-87908000D02*
X145625200Y-90908000D01*
D15*
%TO.C,U2*%
X71370000Y-30318000D02*
X71370000Y-105318000D01*
X32770000Y-105318000D02*
X32770000Y-30318000D01*
X32770000Y-30318000D02*
X71370000Y-30318000D01*
X71370000Y-105318000D02*
X32770000Y-105318000D01*
D14*
%TO.C,C24*%
X175306400Y-92602164D02*
X175306400Y-92817836D01*
X176026400Y-92602164D02*
X176026400Y-92817836D01*
%TO.C,C3*%
X122703764Y-105558000D02*
X122919436Y-105558000D01*
X122703764Y-106278000D02*
X122919436Y-106278000D01*
%TO.C,C14*%
X146653364Y-112628000D02*
X146869036Y-112628000D01*
X146653364Y-111908000D02*
X146869036Y-111908000D01*
%TO.C,C26*%
X132936348Y-107415000D02*
X133458852Y-107415000D01*
X132936348Y-105945000D02*
X133458852Y-105945000D01*
%TO.C,R4*%
X124941600Y-111659641D02*
X124941600Y-111352359D01*
X124181600Y-111659641D02*
X124181600Y-111352359D01*
%TO.C,R2*%
X133351241Y-101220000D02*
X133043959Y-101220000D01*
X133351241Y-101980000D02*
X133043959Y-101980000D01*
%TO.C,TP2*%
X127937600Y-100150000D02*
X130837600Y-100150000D01*
X127937600Y-103050000D02*
X127937600Y-100150000D01*
X130837600Y-103050000D02*
X127937600Y-103050000D01*
X130837600Y-100150000D02*
X130837600Y-103050000D01*
%TO.C,U5*%
X116810000Y-33782000D02*
X144810000Y-33782000D01*
X115810000Y-29222000D02*
X145810000Y-29222000D01*
X145810000Y-29222000D02*
X145810000Y-94222000D01*
X145810000Y-94222000D02*
X115810000Y-94222000D01*
X115810000Y-94222000D02*
X115810000Y-29222000D01*
%TO.C,C21*%
X172929436Y-99309600D02*
X172713764Y-99309600D01*
X172929436Y-100029600D02*
X172713764Y-100029600D01*
%TO.C,C6*%
X127836600Y-112006748D02*
X127836600Y-112529252D01*
X126366600Y-112006748D02*
X126366600Y-112529252D01*
%TO.C,R1*%
X135637241Y-101980000D02*
X135329959Y-101980000D01*
X135637241Y-101220000D02*
X135329959Y-101220000D01*
%TO.C,J3*%
X74786800Y-123647200D02*
X74786800Y-110887200D01*
X74786800Y-110887200D02*
X72126800Y-110887200D01*
X74786800Y-126247200D02*
X73456800Y-126247200D01*
X74786800Y-123647200D02*
X72126800Y-123647200D01*
X74786800Y-124917200D02*
X74786800Y-126247200D01*
X72126800Y-123647200D02*
X72126800Y-110887200D01*
%TO.C,C1*%
X125296600Y-101607252D02*
X125296600Y-101084748D01*
X123826600Y-101607252D02*
X123826600Y-101084748D01*
D15*
%TO.C,IC2*%
X121351600Y-98330000D02*
X121351600Y-98330000D01*
X121351600Y-98230000D02*
X121351600Y-98230000D01*
X121351600Y-98330000D02*
G75*
G03*
X121351600Y-98230000I0J50000D01*
G01*
X121351600Y-98230000D02*
G75*
G03*
X121351600Y-98330000I0J-50000D01*
G01*
D14*
%TO.C,R3*%
X122629959Y-107314000D02*
X122937241Y-107314000D01*
X122629959Y-106554000D02*
X122937241Y-106554000D01*
%TO.C,R6*%
X120851959Y-104266000D02*
X121159241Y-104266000D01*
X120851959Y-103506000D02*
X121159241Y-103506000D01*
D12*
%TO.C,Q2*%
X130281000Y-33754400D02*
X130831000Y-33754400D01*
X130831000Y-36654400D02*
X130281000Y-36654400D01*
X130831000Y-33754400D02*
X130831000Y-36654400D01*
X128681000Y-33654400D02*
X129931000Y-33654400D01*
X130281000Y-36654400D02*
X130281000Y-33754400D01*
D15*
%TO.C,J1*%
X204656000Y-98810400D02*
X204656000Y-105710400D01*
X198156000Y-98260400D02*
X198156000Y-93760400D01*
X202656000Y-105710400D02*
X202656000Y-106510400D01*
X201656000Y-110760400D02*
X198156000Y-110760400D01*
X198156000Y-93760400D02*
X201656000Y-93760400D01*
X202656000Y-98010400D02*
X202656000Y-98810400D01*
X198156000Y-106260400D02*
X198156000Y-106260400D01*
X201656000Y-93760400D02*
X201656000Y-98010400D01*
X201656000Y-98010400D02*
X202656000Y-98010400D01*
X196256000Y-103560400D02*
X196256000Y-103560400D01*
X204656000Y-105710400D02*
X202656000Y-105710400D01*
X202656000Y-106510400D02*
X201656000Y-106510400D01*
X196156000Y-103560400D02*
X196156000Y-103560400D01*
X198156000Y-110760400D02*
X198156000Y-106260400D01*
X201656000Y-106510400D02*
X201656000Y-110760400D01*
X202656000Y-98810400D02*
X204656000Y-98810400D01*
X196156000Y-103560400D02*
G75*
G03*
X196256000Y-103560400I50000J0D01*
G01*
X196256000Y-103560400D02*
G75*
G03*
X196156000Y-103560400I-50000J0D01*
G01*
D14*
%TO.C,C9*%
X137895000Y-131325252D02*
X137895000Y-130802748D01*
X136425000Y-131325252D02*
X136425000Y-130802748D01*
%TO.C,C5*%
X129868600Y-112006748D02*
X129868600Y-112529252D01*
X128398600Y-112006748D02*
X128398600Y-112529252D01*
D10*
%TO.C,U3*%
X148230200Y-111439200D02*
X148230200Y-109439200D01*
X145858200Y-111194200D02*
G75*
G03*
X145858200Y-111194200I-29000J0D01*
G01*
D15*
%TO.C,U1*%
X74680000Y-30318000D02*
X113280000Y-30318000D01*
X113280000Y-30318000D02*
X113280000Y-105318000D01*
X113280000Y-105318000D02*
X74680000Y-105318000D01*
X74680000Y-105318000D02*
X74680000Y-30318000D01*
D14*
%TO.C,C8*%
X135863000Y-131310052D02*
X135863000Y-130787548D01*
X134393000Y-131310052D02*
X134393000Y-130787548D01*
%TD*%
M02*
